SplineFontDB: 3.2
FontName: CommonSans-Black
FullName: Common Sans Black
FamilyName: Common Sans
Weight: Black
Copyright: Copyright \\(c\\) 2015 by Stefan Peev, Context Ltd. All rights reserved.
Version: Version 001.000 
ItalicAngle: 0
UnderlinePosition: -225
UnderlineWidth: 50
Ascent: 800
Descent: 200
InvalidEm: 0
sfntRevision: 0x00010041
LayerCount: 2
Layer: 0 0 "Back" 1
Layer: 1 0 "Fore" 0
XUID: [1021 386 643941263 13931]
StyleMap: 0x0020
FSType: 260
OS2Version: 4
OS2_WeightWidthSlopeOnly: 0
OS2_UseTypoMetrics: 1
CreationTime: 1440686166
ModificationTime: 1669870152
PfmFamily: 81
TTFWeight: 900
TTFWidth: 5
LineGap: 52
VLineGap: 0
Panose: 0 0 0 0 0 0 0 0 0 0
OS2TypoAscent: 700
OS2TypoAOffset: 0
OS2TypoDescent: -200
OS2TypoDOffset: 0
OS2TypoLinegap: 52
OS2WinAscent: 950
OS2WinAOffset: 0
OS2WinDescent: 250
OS2WinDOffset: 0
HheadAscent: 700
HheadAOffset: 0
HheadDescent: -200
HheadDOffset: 0
OS2SubXSize: 650
OS2SubYSize: 600
OS2SubXOff: 0
OS2SubYOff: 75
OS2SupXSize: 650
OS2SupYSize: 600
OS2SupXOff: 0
OS2SupYOff: 350
OS2StrikeYSize: 50
OS2StrikeYPos: 276
OS2CapHeight: 700
OS2XHeight: 460
OS2Vendor: 'CNTX'
OS2CodePages: 20000097.00000000
OS2UnicodeRanges: 8000027f.40000048.00000000.00000000
Lookup: 1 0 0 "'aalt' Access All Alternates lookup 0" { "'aalt' Access All Alternates lookup 0 subtable"  } ['aalt' ('DFLT' <'dflt' > 'cyrl' <'BGR ' 'RUS ' 'SRB ' 'UKR ' 'dflt' > 'latn' <'AZE ' 'CAT ' 'LTH ' 'MOL ' 'NLD ' 'ROM ' 'TRK ' 'dflt' > ) ]
Lookup: 3 0 0 "'aalt' Access All Alternates lookup 1" { "'aalt' Access All Alternates lookup 1 subtable"  } ['aalt' ('DFLT' <'dflt' > 'cyrl' <'BGR ' 'RUS ' 'SRB ' 'UKR ' 'dflt' > 'latn' <'AZE ' 'CAT ' 'LTH ' 'MOL ' 'NLD ' 'ROM ' 'TRK ' 'dflt' > ) ]
Lookup: 1 0 0 "'locl' Localized Forms in Cyrillic lookup 2" { "'locl' Localized Forms in Cyrillic lookup 2 subtable"  } ['locl' ('cyrl' <'BGR ' > ) ]

StartChar: .notdef
Encoding: 256 -1 0
Width: 1000
GlyphClass: 1
Flags: MW
HStem: -50 90<163 573 642 825 100 573> 76 27<715 752 715 789> 121 116<163 336 321 321 321 336 494 573> 319 56<163 573 163 573> 433 40<678 715 678 715 678 825 678 752> 510 29<642 752 642 825> 576 41<643 715 643 715 642 715 643 752 752 825> 654 98<163 573 163 163>
VStem: 100 63<40 121 237 319 375 654> 245 246<457 573 457 573> 573 69<40 121 121 121 252 288 396 510 539 576> 678 37<103 165 103 165 103 165 433 473> 752 37<103 128 76 128 252 299> 825 75<40 165 165 165 189 299 299 299 329 366 366 366 396 433 433 433 539 576 576 576 617 653 653 653>
LayerCount: 2
Fore
SplineSet
573 237 m 1
 573 319 l 1
 163 319 l 1
 163 237 l 1
 336 237 l 1
 163 121 l 1
 163 40 l 1
 573 40 l 1
 573 121 l 1
 321 121 l 1
 494 237 l 1
 573 237 l 1
678 165 m 1
 642 165 l 1
 642 40 l 1
 825 40 l 1
 825 165 l 1
 715 165 l 1
 715 103 l 1
 752 103 l 1
 752 128 l 1
 789 128 l 1
 789 76 l 1
 678 76 l 1
 678 165 l 1
789 227 m 1
 642 227 l 1
 642 189 l 1
 825 189 l 1
 825 299 l 1
 789 299 l 1
 789 227 l 1
715 288 m 1
 642 288 l 1
 642 252 l 1
 752 252 l 1
 752 329 l 1
 825 329 l 1
 825 366 l 1
 642 366 l 1
 642 329 l 1
 715 329 l 1
 715 288 l 1
573 654 m 1
 163 654 l 1
 163 375 l 1
 573 375 l 1
 573 654 l 1
752 510 m 1
 642 510 l 1
 642 396 l 1
 825 396 l 1
 825 433 l 1
 752 433 l 1
 752 510 l 1
715 576 m 1
 642 576 l 1
 642 539 l 1
 825 539 l 1
 825 576 l 1
 752 576 l 1
 752 617 l 1
 825 617 l 1
 825 653 l 1
 643 653 l 1
 643 617 l 1
 715 617 l 1
 715 576 l 1
491 573 m 1
 491 457 l 1
 245 457 l 1
 245 573 l 1
 491 573 l 1
900 752 m 1
 900 -50 l 1
 100 -50 l 1
 100 752 l 1
 900 752 l 1
715 473 m 1
 715 433 l 1
 678 433 l 1
 678 473 l 1
 715 473 l 1
EndSplineSet
EndChar

StartChar: exclam
Encoding: 33 33 8
Width: 190
GlyphClass: 2
Flags: MW
HStem: 0 80<55 135 55 135> 680 20G<50 140 140 140>
VStem: 50 90<410 700 410 700> 55 80<0 80>
LayerCount: 2
Fore
SplineSet
70 150 m 1xe0
 50 410 l 1
 50 700 l 1
 140 700 l 1
 140 410 l 1
 120 150 l 1
 70 150 l 1xe0
135 0 m 1xd0
 55 0 l 1
 55 80 l 1
 135 80 l 1
 135 0 l 1xd0
EndSplineSet
EndChar

StartChar: quotedbl
Encoding: 34 34 9
Width: 290
GlyphClass: 2
Flags: MW
HStem: 450 220<70 70 70 110 180 180 180 220>
VStem: 50 80<580 670 580 670> 160 80<580 670 580 670>
LayerCount: 2
Fore
SplineSet
180 450 m 1
 160 580 l 1
 160 670 l 1
 240 670 l 1
 240 580 l 1
 220 450 l 1
 180 450 l 1
70 450 m 1xc0
 50 580 l 1
 50 670 l 1
 130 670 l 1
 130 580 l 1
 110 450 l 1
 70 450 l 1xc0
EndSplineSet
EndChar

StartChar: numbersign
Encoding: 35 35 10
Width: 579
GlyphClass: 2
Flags: MW
HStem: 0 252<65 65 65 119 24 156 257 257 257 311 24 348> 172 80<24 103 24 119 24 192 208 295 400 515> 420 80<61 157 61 174 259 348 61 243 451 552> 680 20G<214 301 301 301 406 493 493 493>
VStem: 24 528<172 500 252 500>
LayerCount: 2
Fore
SplineSet
348 420 m 1x78
 243 420 l 1
 208 252 l 1
 311 252 l 1
 348 420 l 1x78
65 0 m 1xb8
 103 172 l 1
 24 172 l 1
 24 252 l 1
 119 252 l 1
 157 420 l 1
 61 420 l 1
 61 500 l 1
 174 500 l 1
 214 700 l 1
 301 700 l 1
 259 500 l 1
 365 500 l 1
 406 700 l 1
 493 700 l 1
 451 500 l 1
 552 500 l 1
 552 420 l 1
 435 420 l 1
 400 252 l 1
 515 252 l 1
 515 172 l 1
 384 172 l 1x78
 348 0 l 1
 257 0 l 1xb8
 295 172 l 1
 192 172 l 1x78
 156 0 l 1
 65 0 l 1xb8
EndSplineSet
EndChar

StartChar: dollar
Encoding: 36 36 11
Width: 582
GlyphClass: 2
Flags: MW
HStem: -80 161<265 345 265 265> -11 92<265 265> -10 21G<345 345> 621 87<345 345>
VStem: 60 90<156 194 156 194> 71 90<504 555.5 504 570> 265 80<-80 -11 -11 -11 81 295 412 620 620 620 708 780> 462 90<157.5 215.5>
LayerCount: 2
Fore
SplineSet
374 287 m 2x37
 345 295 l 1
 345 81 l 1x57
 408 88 462 124 462 191 c 0
 462 240 417 275 374 287 c 2x37
233 421 m 2
 265 412 l 1
 265 620 l 1
 201 615 161 584 161 527 c 0
 161 481 183 435 233 421 c 2
265 81 m 1
 265 318 l 1
 228 328 l 2
 123 358 71 420 71 516 c 0
 71 624 149 700 265 707 c 1
 265 780 l 1
 345 780 l 1
 345 708 l 1
 460 707 551 637 551 522 c 1
 461 522 l 1
 461 587 418 620 345 621 c 1
 345 389 l 1
 383 378 l 2
 479 350 552 293 552 191 c 0
 552 67 466 -3 345 -10 c 1x37
 345 -80 l 1
 265 -80 l 1x97
 265 -11 l 1
 139 -4 60 69 60 194 c 1
 150 194 l 1x5b
 150 118 205 86 265 81 c 1
EndSplineSet
EndChar

StartChar: percent
Encoding: 37 37 12
Width: 720
GlyphClass: 2
Flags: MW
HStem: -10 62<518.5 560.5 518.5 604> 0 21G<110 201 110 110> 300 62<518.5 585.5> 358 62<134.5 201.5 134.5 220> 668 62<134.5 201.5> 680 20G<521 608 608 608>
VStem: 30 71<508 580 508 607> 235 71<508 580> 414 71<140 212 140 239> 619 71<149 212>
LayerCount: 2
Fore
SplineSet
485 176 m 0xabc0
 485 104 485 52 552 52 c 0
 569 52 582 55 591 61 c 0
 619 79 619 122 619 176 c 0
 619 248 619 300 552 300 c 0
 485 300 485 248 485 176 c 0xabc0
101 544 m 0
 101 472 101 420 168 420 c 0x97c0
 235 420 235 472 235 544 c 0
 235 616 235 668 168 668 c 0
 101 668 101 616 101 544 c 0
414 176 m 0
 414 302 448 362 552 362 c 0xa7c0
 655 362 690 302 690 176 c 0
 690 50 656 -10 552 -10 c 0
 448 -10 414 50 414 176 c 0
30 544 m 0
 30 670 64 730 168 730 c 0
 272 730 306 670 306 544 c 0
 306 418 272 358 168 358 c 0x9bc0
 64 358 30 418 30 544 c 0
608 700 m 1x57c0
 201 0 l 1
 110 0 l 1
 521 700 l 1
 608 700 l 1x57c0
EndSplineSet
EndChar

StartChar: ampersand
Encoding: 38 38 13
Width: 699
GlyphClass: 2
Flags: MW
HStem: -10 65<229 288.5 229 307> 0 21G<566 679 566 566> 645 65<273.5 320>
VStem: 40 80<153 235.5 153 255.5> 140 80<551.5 589 551.5 609> 380 80<538.5 588> 510 80<330 330>
LayerCount: 2
Fore
SplineSet
120 193 m 0xbe
 120 113 201 55 257 55 c 0
 320 55 394 82 442 137 c 1
 247 373 l 1
 171 330 120 278 120 193 c 0xbe
220 565 m 0
 220 538 239 504 277 463 c 1
 320 482 380 512 380 565 c 0
 380 611 346 645 294 645 c 0
 253 645 220 613 220 565 c 0
40 192 m 0
 40 319 112 373 199 431 c 1
 163 481 140 503 140 566 c 0
 140 652 212 710 298 710 c 0
 382 710 460 652 460 569 c 0
 460 487 402 451 325 406 c 1
 485 218 l 1
 501 254 507 284 510 330 c 1
 590 330 l 1
 586 261 570 222 540 165 c 1
 679 0 l 1
 566 0 l 1x7e
 491 90 l 1
 434 37 360 -10 254 -10 c 0
 142 -10 40 68 40 192 c 0
EndSplineSet
EndChar

StartChar: quotesingle
Encoding: 39 39 14
Width: 180
GlyphClass: 2
Flags: MW
HStem: 450 220<70 70 70 110>
VStem: 50 80<580 670 580 670>
LayerCount: 2
Fore
SplineSet
70 450 m 1
 50 580 l 1
 50 670 l 1
 130 670 l 1
 130 580 l 1
 110 450 l 1
 70 450 l 1
EndSplineSet
EndChar

StartChar: parenleft
Encoding: 40 40 15
Width: 241
GlyphClass: 2
Flags: MW
HStem: -180 860<161 201 161 201 150 201>
VStem: 40 80<169.5 307.5 159.5 314>
LayerCount: 2
Fore
SplineSet
40 230 m 0
 40 398 87 533 161 680 c 1
 201 680 l 1
 148 535 120 385 120 230 c 0
 120 89 151 -45 201 -180 c 1
 184 -180 167 -180 150 -180 c 1
 127 -125 l 2
 82 -14 40 109 40 230 c 0
EndSplineSet
EndChar

StartChar: parenright
Encoding: 41 41 16
Width: 241
GlyphClass: 2
Flags: MW
HStem: -180 860<39 79 39 79 39 90>
VStem: 120 80<169.5 307.5>
LayerCount: 2
Fore
SplineSet
39 -180 m 1
 89 -45 120 89 120 230 c 0
 120 385 92 535 39 680 c 1
 79 680 l 1
 153 533 200 398 200 230 c 0
 200 109 158 -14 113 -125 c 2
 90 -180 l 1
 39 -180 l 1
EndSplineSet
EndChar

StartChar: asterisk
Encoding: 42 42 17
Width: 550
GlyphClass: 2
Flags: MW
HStem: 200 80<50 178 50 178 372 500>
VStem: 235 80<15 143 15 143 337 465>
LayerCount: 2
Fore
SplineSet
178 200 m 1
 50 200 l 1
 50 280 l 1
 178 280 l 1
 88 371 l 1
 144 427 l 1
 235 337 l 1
 235 465 l 1
 315 465 l 1
 315 337 l 1
 406 427 l 1
 462 371 l 1
 372 280 l 1
 500 280 l 1
 500 200 l 1
 372 200 l 1
 462 109 l 1
 406 53 l 1
 315 143 l 1
 315 15 l 1
 235 15 l 1
 235 143 l 1
 144 53 l 1
 88 109 l 1
 178 200 l 1
EndSplineSet
EndChar

StartChar: plus
Encoding: 43 43 18
Width: 450
GlyphClass: 2
Flags: MW
HStem: 200 80<50 185 50 185 265 400>
VStem: 185 80<65 200 65 200 280 415>
LayerCount: 2
Fore
SplineSet
185 200 m 1
 50 200 l 1
 50 280 l 1
 185 280 l 1
 185 415 l 1
 265 415 l 1
 265 280 l 1
 400 280 l 1
 400 200 l 1
 265 200 l 1
 265 65 l 1
 185 65 l 1
 185 200 l 1
EndSplineSet
EndChar

StartChar: comma
Encoding: 44 44 19
Width: 180
GlyphClass: 2
Flags: MW
HStem: 0 80<50 72 50 130 50 130>
VStem: 50 80<0 80 0 80>
LayerCount: 2
Fore
SplineSet
72 0 m 1
 50 0 l 1
 50 80 l 1
 130 80 l 1
 130 0 l 1
 84 -130 l 1
 50 -130 l 1
 72 0 l 1
EndSplineSet
EndChar

StartChar: hyphen
Encoding: 45 45 20
Width: 320
GlyphClass: 2
Flags: MW
HStem: 210 65<50 270 50 270>
VStem: 50 220<210 275 210 275>
LayerCount: 2
Fore
SplineSet
270 210 m 1
 50 210 l 1
 50 275 l 1
 270 275 l 1
 270 210 l 1
EndSplineSet
EndChar

StartChar: period
Encoding: 46 46 21
Width: 180
GlyphClass: 2
Flags: MW
HStem: 0 80<50 130 50 130>
VStem: 50 80<0 80>
LayerCount: 2
Fore
SplineSet
130 0 m 1
 50 0 l 1
 50 80 l 1
 130 80 l 1
 130 0 l 1
EndSplineSet
EndChar

StartChar: slash
Encoding: 47 47 22
Width: 419
GlyphClass: 2
Flags: MW
HStem: 0 21G<30 121 30 30> 680 20G<301 388 388 388>
VStem: 30 358
LayerCount: 2
Fore
SplineSet
121 0 m 1
 30 0 l 1
 301 700 l 1
 388 700 l 1
 121 0 l 1
EndSplineSet
Substitution2: "Single Substitution lookup 26 subtable" fraction
EndChar

StartChar: zero
Encoding: 48 48 23
Width: 540
GlyphClass: 2
Flags: MW
HStem: -10 80<200 340 200 365> 630 80<200 340>
VStem: 40 90<275 425 275 455> 410 90<275 425>
LayerCount: 2
Fore
SplineSet
40 350 m 0
 40 560 80 710 270 710 c 0
 460 710 500 560 500 350 c 0
 500 140 460 -10 270 -10 c 0
 80 -10 40 140 40 350 c 0
130 350 m 0
 130 200 130 70 270 70 c 0
 410 70 410 200 410 350 c 0
 410 500 410 630 270 630 c 0
 130 630 130 500 130 350 c 0
EndSplineSet
Substitution2: "Single Substitution lookup 27 subtable" zero.dnom
Substitution2: "Single Substitution lookup 26 subtable" zero.numr
Substitution2: "'dnom' Denominators lookup 7 subtable" zero.dnom
Substitution2: "'numr' Numerators lookup 6 subtable" zero.numr
Substitution2: "'subs' Subscript lookup 5 subtable" zero.subscript
Substitution2: "'sups' Superscript lookup 4 subtable" zero.superior
Substitution2: "'sinf' Scientific Inferiors lookup 3 subtable" zero.inferior
AlternateSubs2: "'aalt' Access All Alternates lookup 1 subtable" zero.inferior zero.superior zero.subscript zero.numr zero.dnom
EndChar

StartChar: one
Encoding: 49 49 24
Width: 327
GlyphClass: 2
Flags: MW
HStem: 0 21G<187 277 187 187> 567 67<50 84.5> 680 20G<248 277 277 277>
VStem: 187 90<0 530 530 589 579 589>
LayerCount: 2
Fore
SplineSet
50 567 m 1
 50 634 l 1
 156 634 210 666 248 700 c 1
 277 700 l 1
 277 0 l 1
 187 0 l 1
 187 530 l 2
 187 550 187 569 187 589 c 1
 164 582 119 567 50 567 c 1
EndSplineSet
Substitution2: "Single Substitution lookup 27 subtable" one.dnom
Substitution2: "Single Substitution lookup 26 subtable" one.numr
Substitution2: "'dnom' Denominators lookup 7 subtable" one.dnom
Substitution2: "'numr' Numerators lookup 6 subtable" one.numr
Substitution2: "'subs' Subscript lookup 5 subtable" one.subscript
Substitution2: "'sups' Superscript lookup 4 subtable" onesuperior
Substitution2: "'sinf' Scientific Inferiors lookup 3 subtable" one.inferior
AlternateSubs2: "'aalt' Access All Alternates lookup 1 subtable" one.inferior onesuperior one.subscript one.numr one.dnom
EndChar

StartChar: two
Encoding: 50 50 25
Width: 528
GlyphClass: 2
Flags: MW
HStem: 0 90<172 514 58 58> 630 80<216.5 324>
VStem: 36 89<482 482 482 545.5> 402 90<445.5 536.5>
LayerCount: 2
Fore
SplineSet
125 482 m 1
 36 480 l 1
 36 611 123 710 260 710 c 0
 442 710 492 630 492 509 c 0
 492 349 264 195 172 90 c 1
 514 90 l 1
 514 0 l 1
 58 0 l 1
 58 90 l 1
 80 118 102 143 125 167 c 0
 261 310 402 393 402 498 c 0
 402 575 388 630 260 630 c 0
 173 630 128 562 125 482 c 1
EndSplineSet
Substitution2: "Single Substitution lookup 27 subtable" two.dnom
Substitution2: "Single Substitution lookup 26 subtable" two.numr
Substitution2: "'dnom' Denominators lookup 7 subtable" two.dnom
Substitution2: "'numr' Numerators lookup 6 subtable" two.numr
Substitution2: "'subs' Subscript lookup 5 subtable" two.subscript
Substitution2: "'sups' Superscript lookup 4 subtable" twosuperior
Substitution2: "'sinf' Scientific Inferiors lookup 3 subtable" two.inferior
AlternateSubs2: "'aalt' Access All Alternates lookup 1 subtable" two.inferior twosuperior two.subscript two.numr two.dnom
EndChar

StartChar: three
Encoding: 51 51 26
Width: 520
GlyphClass: 2
Flags: MW
HStem: -10 80<223.5 284.5 223.5 314> 337 80<189 235 189 235> 630 80<202.5 230 230 232>
VStem: 40 86<129 160 129 160 551 576> 340 90<501 560.5> 390 90<151.5 257.5>
LayerCount: 2
Fore
SplineSet
40 160 m 1xf4
 126 160 l 1
 126 98 197 70 250 70 c 0
 319 70 390 103 390 200 c 0xf4
 390 315 318 337 235 337 c 2
 189 337 l 1
 189 417 l 1
 235 417 l 2
 309 417 340 433 340 532 c 0
 340 589 299 630 232 630 c 2
 230 630 l 2
 175 630 126 601 126 551 c 1
 40 551 l 1
 40 657 131 710 230 710 c 0
 354 710 430 650 430 532 c 0xf8
 430 470 398 414 338 384 c 1
 416 370 480 324 480 200 c 0
 480 53 378 -10 250 -10 c 0
 142 -10 40 43 40 160 c 1xf4
EndSplineSet
Substitution2: "Single Substitution lookup 27 subtable" three.dnom
Substitution2: "Single Substitution lookup 26 subtable" three.numr
Substitution2: "'dnom' Denominators lookup 7 subtable" three.dnom
Substitution2: "'numr' Numerators lookup 6 subtable" three.numr
Substitution2: "'subs' Subscript lookup 5 subtable" three.subscript
Substitution2: "'sups' Superscript lookup 4 subtable" threesuperior
Substitution2: "'sinf' Scientific Inferiors lookup 3 subtable" three.inferior
AlternateSubs2: "'aalt' Access All Alternates lookup 1 subtable" three.inferior threesuperior three.subscript three.numr three.dnom
EndChar

StartChar: four
Encoding: 52 52 27
Width: 521
GlyphClass: 2
Flags: MW
HStem: 0 21G<370 370 370 460> 173 80<140 370 50 50 460 520> 620 80<360 370 360 360>
VStem: 50 90<173 253 253 253> 370 90<0 173 0 173 253 620 620 620>
LayerCount: 2
Fore
SplineSet
370 620 m 1
 360 620 l 1
 140 253 l 1
 370 253 l 1
 370 620 l 1
370 0 m 1
 370 173 l 1
 50 173 l 1
 50 253 l 1
 318 700 l 1
 460 700 l 1
 460 253 l 1
 520 253 l 1
 520 173 l 1
 460 173 l 1
 460 0 l 1
 370 0 l 1
EndSplineSet
Substitution2: "Single Substitution lookup 27 subtable" four.dnom
Substitution2: "Single Substitution lookup 26 subtable" four.numr
Substitution2: "'dnom' Denominators lookup 7 subtable" four.dnom
Substitution2: "'numr' Numerators lookup 6 subtable" four.numr
Substitution2: "'subs' Subscript lookup 5 subtable" four.subscript
Substitution2: "'sups' Superscript lookup 4 subtable" four.superior
Substitution2: "'sinf' Scientific Inferiors lookup 3 subtable" four.inferior
AlternateSubs2: "'aalt' Access All Alternates lookup 1 subtable" four.inferior four.superior four.subscript four.numr four.dnom
EndChar

StartChar: five
Encoding: 53 53 28
Width: 528
GlyphClass: 2
Flags: MW
HStem: -10 80<222 309 222 330.5> 298 105 420 73<262 316.5> 630 70<143 422 143 143>
VStem: 56 87<403 630 403 700 403 700> 400 89<207 312.5>
LayerCount: 2
Fore
SplineSet
53 148 m 1
 133 148 l 1
 148 100 182 70 262 70 c 0
 356 70 400 164 400 250 c 0
 400 375 340 420 293 420 c 0xbc
 231 420 157 393 145 300 c 1
 56 296 l 1xfc
 56 700 l 1
 422 700 l 1
 422 630 l 1
 143 630 l 1
 143 403 l 1
 144 403 145 403 146 403 c 0
 172 456 225 493 295 493 c 0
 413 493 489 392 489 243 c 0
 489 101 395 -10 266 -10 c 0
 142 -10 80 51 53 148 c 1
EndSplineSet
Substitution2: "Single Substitution lookup 27 subtable" five.dnom
Substitution2: "Single Substitution lookup 26 subtable" five.numr
Substitution2: "'dnom' Denominators lookup 7 subtable" five.dnom
Substitution2: "'numr' Numerators lookup 6 subtable" five.numr
Substitution2: "'subs' Subscript lookup 5 subtable" five.subscript
Substitution2: "'sups' Superscript lookup 4 subtable" five.superior
Substitution2: "'sinf' Scientific Inferiors lookup 3 subtable" five.inferior
AlternateSubs2: "'aalt' Access All Alternates lookup 1 subtable" five.inferior five.superior five.subscript five.numr five.dnom
EndChar

StartChar: six
Encoding: 54 54 29
Width: 528
GlyphClass: 2
Flags: MW
HStem: -10 80<199.5 309 199.5 330.5> 380 73<271 274 271 271> 630 80<251 303>
VStem: 36 87<230 232> 400 89<187 292>
LayerCount: 2
Fore
SplineSet
123 232 m 2
 123 230 l 2
 124 144 137 70 262 70 c 0
 356 70 400 144 400 230 c 0
 400 354 322 380 274 380 c 2
 271 380 l 2
 207 379 123 352 123 232 c 2
36 300 m 0
 36 539 86 710 266 710 c 0
 377 710 437 658 467 573 c 1
 437 573 406 572 376 572 c 1
 356 608 342 630 264 630 c 0
 238 630 217 625 200 616 c 0
 131 581 124 481 123 363 c 1
 126 363 l 1
 152 416 205 453 275 453 c 0
 393 453 489 372 489 223 c 0
 489 81 395 -10 266 -10 c 0
 86 -10 36 119 36 300 c 0
EndSplineSet
Substitution2: "Single Substitution lookup 27 subtable" six.dnom
Substitution2: "Single Substitution lookup 26 subtable" six.numr
Substitution2: "'dnom' Denominators lookup 7 subtable" six.dnom
Substitution2: "'numr' Numerators lookup 6 subtable" six.numr
Substitution2: "'subs' Subscript lookup 5 subtable" six.subscript
Substitution2: "'sups' Superscript lookup 4 subtable" six.superior
Substitution2: "'sinf' Scientific Inferiors lookup 3 subtable" six.inferior
AlternateSubs2: "'aalt' Access All Alternates lookup 1 subtable" six.inferior six.superior six.subscript six.numr six.dnom
EndChar

StartChar: seven
Encoding: 55 55 30
Width: 560
GlyphClass: 2
Flags: MW
HStem: 0 21G<180 270 180 180> 620 80<50 420 50 510 50 510>
VStem: 180 90<0 131.5> 420 90<620 700>
LayerCount: 2
Fore
SplineSet
420 620 m 1
 50 620 l 1
 50 700 l 1
 510 700 l 1
 510 620 l 1
 470 570 l 2
 364 433 270 277 270 0 c 1
 180 0 l 1
 180 263 253 418 420 620 c 1
EndSplineSet
Substitution2: "Single Substitution lookup 27 subtable" seven.dnom
Substitution2: "Single Substitution lookup 26 subtable" seven.numr
Substitution2: "'dnom' Denominators lookup 7 subtable" seven.dnom
Substitution2: "'numr' Numerators lookup 6 subtable" seven.numr
Substitution2: "'subs' Subscript lookup 5 subtable" seven.subscript
Substitution2: "'sups' Superscript lookup 4 subtable" seven.superior
Substitution2: "'sinf' Scientific Inferiors lookup 3 subtable" seven.inferior
AlternateSubs2: "'aalt' Access All Alternates lookup 1 subtable" seven.inferior seven.superior seven.subscript seven.numr seven.dnom
EndChar

StartChar: eight
Encoding: 56 56 31
Width: 553
GlyphClass: 2
Flags: MW
HStem: -10 80<220 310 220 340> 339 64<226 265> 630 80<220 310>
VStem: 40 89<160 242.5 160 245> 50 90<490 550 490 578.5> 390 90<490 550> 404 89<160 245 135 250.5>
LayerCount: 2
Fore
SplineSet
129 205 m 0xf2
 129 115 175 70 265 70 c 0
 355 70 404 115 404 205 c 0
 404 296 352 338 265 339 c 0
 187 339 129 280 129 205 c 0xf2
140 520 m 0xec
 140 460 175 403 265 403 c 0
 355 403 390 460 390 520 c 0
 390 580 355 630 265 630 c 0
 175 630 140 580 140 520 c 0xec
40 200 m 0xf2
 40 290 89 341 140 370 c 1
 114 380 50 407 50 527 c 0
 50 630 136 710 265 710 c 0
 411 710 480 630 480 527 c 0xec
 480 407 423 386 367 370 c 1
 436 342 493 290 493 200 c 0
 493 70 415 -10 265 -10 c 0
 115 -10 40 70 40 200 c 0xf2
EndSplineSet
Substitution2: "Single Substitution lookup 27 subtable" eight.dnom
Substitution2: "Single Substitution lookup 26 subtable" eight.numr
Substitution2: "'dnom' Denominators lookup 7 subtable" eight.dnom
Substitution2: "'numr' Numerators lookup 6 subtable" eight.numr
Substitution2: "'subs' Subscript lookup 5 subtable" eight.subscript
Substitution2: "'sups' Superscript lookup 4 subtable" eight.superior
Substitution2: "'sinf' Scientific Inferiors lookup 3 subtable" eight.inferior
AlternateSubs2: "'aalt' Access All Alternates lookup 1 subtable" eight.inferior eight.superior eight.subscript eight.numr eight.dnom
EndChar

StartChar: nine
Encoding: 57 57 32
Width: 528
GlyphClass: 2
Flags: MW
HStem: -10 80<222 274 222 349> 247 73<251 254 251 285> 630 80<216 325.5>
VStem: 36 89<408 513 408 548> 402 87<337 337 468 470 470 470>
LayerCount: 2
Fore
SplineSet
125 470 m 0
 125 346 203 320 251 320 c 2
 254 320 l 2
 318 321 402 348 402 468 c 2
 402 470 l 2
 401 556 388 630 263 630 c 0
 169 630 125 556 125 470 c 0
36 477 m 0
 36 619 130 710 259 710 c 0
 439 710 489 581 489 400 c 0
 489 161 439 -10 259 -10 c 0
 148 -10 88 42 58 127 c 1
 88 127 119 128 149 128 c 1
 169 92 183 70 261 70 c 0
 287 70 308 75 325 84 c 0
 394 119 401 219 402 337 c 1
 399 337 l 1
 373 284 320 247 250 247 c 0
 132 247 36 328 36 477 c 0
EndSplineSet
Substitution2: "Single Substitution lookup 27 subtable" nine.dnom
Substitution2: "Single Substitution lookup 26 subtable" nine.numr
Substitution2: "'dnom' Denominators lookup 7 subtable" nine.dnom
Substitution2: "'numr' Numerators lookup 6 subtable" nine.numr
Substitution2: "'subs' Subscript lookup 5 subtable" nine.subscript
Substitution2: "'sups' Superscript lookup 4 subtable" nine.superior
Substitution2: "'sinf' Scientific Inferiors lookup 3 subtable" nine.inferior
AlternateSubs2: "'aalt' Access All Alternates lookup 1 subtable" nine.inferior nine.superior nine.subscript nine.numr nine.dnom
EndChar

StartChar: colon
Encoding: 58 58 33
Width: 180
GlyphClass: 2
Flags: MW
HStem: 0 80<50 130 50 130> 370 80<50 130 50 130>
VStem: 50 80<0 80 370 450>
LayerCount: 2
Fore
SplineSet
130 370 m 1
 50 370 l 1
 50 450 l 1
 130 450 l 1
 130 370 l 1
130 0 m 1
 50 0 l 1
 50 80 l 1
 130 80 l 1
 130 0 l 1
EndSplineSet
EndChar

StartChar: semicolon
Encoding: 59 59 34
Width: 180
GlyphClass: 2
Flags: MW
HStem: 0 80<50 72 50 130 50 130> 370 80<50 130 50 130>
VStem: 50 80<0 80 0 80 370 450>
LayerCount: 2
Fore
SplineSet
72 0 m 1
 50 0 l 1
 50 80 l 1
 130 80 l 1
 130 0 l 1
 84 -130 l 1
 50 -130 l 1
 72 0 l 1
130 370 m 1
 50 370 l 1
 50 450 l 1
 130 450 l 1
 130 370 l 1
EndSplineSet
EndChar

StartChar: less
Encoding: 60 60 35
Width: 514
GlyphClass: 2
Flags: MW
HStem: 100 470<466 466>
VStem: 34 432<100 370 100 370>
LayerCount: 2
Fore
SplineSet
466 100 m 1
 34 300 l 1
 34 370 l 1
 466 570 l 1
 466 500 l 1
 108 336 l 1
 466 170 l 1
 466 100 l 1
EndSplineSet
EndChar

StartChar: equal
Encoding: 61 61 36
Width: 450
GlyphClass: 2
Flags: MW
HStem: 130 65<50 400 50 400> 285 65<50 400 50 400>
VStem: 50 350<130 195 130 195 285 350 130 350>
LayerCount: 2
Fore
SplineSet
400 130 m 1
 50 130 l 1
 50 195 l 1
 400 195 l 1
 400 130 l 1
400 285 m 1
 50 285 l 1
 50 350 l 1
 400 350 l 1
 400 285 l 1
EndSplineSet
EndChar

StartChar: greater
Encoding: 62 62 37
Width: 514
GlyphClass: 2
Flags: MW
HStem: 100 470<34 34>
VStem: 34 434<100 300 172 300 300 570 300 570>
LayerCount: 2
Fore
SplineSet
468 300 m 1
 34 100 l 1
 34 172 l 1
 392 336 l 1
 34 500 l 1
 34 570 l 1
 468 370 l 1
 468 300 l 1
EndSplineSet
EndChar

StartChar: question
Encoding: 63 63 38
Width: 502
GlyphClass: 2
Flags: MW
HStem: 0 80<190 270 190 270> 630 80<208 309.5>
VStem: 40 80<480 480> 190 80<0 80 130 170> 382 80<448.5 531.5>
LayerCount: 2
Fore
SplineSet
270 0 m 1
 190 0 l 1
 190 80 l 1
 270 80 l 1
 270 0 l 1
120 480 m 1
 40 480 l 1
 41 620 129 710 250 710 c 0
 396 710 462 630 462 509 c 0
 462 329 270 315 270 170 c 2
 270 130 l 1
 190 130 l 1
 190 170 l 2
 190 344 382 399 382 498 c 0
 382 565 369 630 250 630 c 0
 166 630 124 561 120 480 c 1
EndSplineSet
EndChar

StartChar: at
Encoding: 64 64 39
Width: 1020
GlyphClass: 2
Flags: MW
HStem: -2 59<435.5 519.5> 128 51<626.5 640.5> 158 61<435.5 444.5> 436 55<493.5 538> 580 68<456 551>
VStem: 181 72<243 407.5 243 427.5> 325 71<267 300 267 330.5> 548 52<180.5 233.5> 581 21 775 64<335 456>
LayerCount: 2
Fore
SplineSet
396 289 m 0xbec0
 396 245 412 219 459 219 c 0
 498 219 538 242 545 261 c 2
 573 339 l 2
 578 353 581 366 581 378 c 0
 581 411 561 436 515 436 c 0
 472 436 439 408 408 349 c 0
 400 334 396 311 396 289 c 0xbec0
181 312 m 0
 181 543 360 648 508 648 c 0
 651 648 839 579 839 367 c 0
 839 248 773 175 697 143 c 0
 673 133 650 128 631 128 c 0xdec0
 581 128 548 158 548 203 c 0xbf40
 548 207 549 211 549 216 c 1
 522 191 469 158 420 158 c 0
 354 158 325 218 325 276 c 0
 325 385 407 491 522 491 c 0
 575 491 602 458 602 426 c 2
 602 421 l 1xbec0
 617 465 l 1
 677 465 l 1
 612 283 l 2
 606 265 600 243 600 224 c 0
 600 199 610 179 643 179 c 0xdf40
 660 179 681 185 699 193 c 0
 756 216 775 304 775 366 c 0
 775 546 594 580 508 580 c 0
 404 580 253 502 253 313 c 0
 253 173 357 57 514 57 c 0
 566 57 609 68 663 96 c 1
 663 44 l 1
 614 15 554 -2 485 -2 c 0
 313 -2 181 136 181 312 c 0
EndSplineSet
EndChar

StartChar: A
Encoding: 65 65 40
Width: 650
GlyphClass: 2
Flags: MW
HStem: 0 21G<10 190 10 10 460 640 460 460> 115 180<280 370 280 425 225 370>
VStem: 10 630<0 0>
AnchorPoint: "top" 312 740 basechar 0
LayerCount: 2
Fore
SplineSet
370 295 m 1
 325 441 l 1
 280 295 l 1
 370 295 l 1
460 0 m 1
 425 115 l 1
 225 115 l 1
 190 0 l 1
 10 0 l 1
 218 680 l 1
 430 680 l 1
 640 0 l 1
 460 0 l 1
EndSplineSet
Substitution2: "Single Substitution lookup 28 subtable" ordfeminine
Substitution2: "'c2sc' Capitals to Small Capitals lookup 23 subtable" a.sc
Substitution2: "'aalt' Access All Alternates lookup 0 subtable" a.sc
EndChar

StartChar: B
Encoding: 66 66 41
Width: 620
GlyphClass: 2
Flags: HMW
HStem: 0 160<230 275 230 275> 287 160<230 275 230 275> 520 160<230 275 230 230>
VStem: 50 180<160 287 160 447 447 520> 310 180<486.5 492.5> 360 180<207.5 252>
AnchorPoint: "top" 272 740 basechar 0
LayerCount: 2
Fore
SplineSet
275 287 m 2xf4
 230 287 l 1
 230 160 l 1
 275 160 l 2
 321 160 360 182 360 233 c 0
 360 271 329 287 275 287 c 2xf4
275 520 m 2xf8
 230 520 l 1
 230 447 l 1
 275 447 l 2
 295 447 310 463 310 484 c 0
 310 501 302 520 275 520 c 2xf8
275 0 m 2
 50 0 l 1
 50 680 l 1
 275 680 l 2
 415 680 490 613 490 512 c 0xf8
 490 461 458 401 398 374 c 1
 476 360 540 299 540 221 c 0xf4
 540 100 473 0 275 0 c 2
EndSplineSet
Substitution2: "'c2sc' Capitals to Small Capitals lookup 23 subtable" b.sc
Substitution2: "'aalt' Access All Alternates lookup 0 subtable" b.sc
EndChar

StartChar: C
Encoding: 67 67 42
Width: 645
GlyphClass: 2
Flags: HMW
HStem: -10 160<306 373.5 306 418> 530 160<306 375.5>
VStem: 30 180<282.5 397.5 282.5 453>
AnchorPoint: "top" 342 740 basechar 0
LayerCount: 2
Fore
SplineSet
348 530 m 0
 264 530 210 455 210 340 c 0
 210 225 264 150 348 150 c 0
 399 150 445 181 455 224 c 1
 615 224 l 1
 594 81 488 -10 348 -10 c 0
 143 -10 30 114 30 340 c 0
 30 566 143 690 348 690 c 0
 494 690 594 594 615 444 c 1
 455 444 l 1
 444 502 403 530 348 530 c 0
EndSplineSet
Substitution2: "'c2sc' Capitals to Small Capitals lookup 23 subtable" c.sc
Substitution2: "'aalt' Access All Alternates lookup 0 subtable" c.sc
EndChar

StartChar: D
Encoding: 68 68 43
Width: 640
GlyphClass: 2
Flags: HMW
HStem: 0 160<230 308 230 308> 520 160<230 230 230 308>
VStem: 50 180<160 520 160 680 160 680> 430 180<286.5 411.5>
AnchorPoint: "top" 302 740 basechar 0
LayerCount: 2
Fore
SplineSet
230 520 m 1
 230 160 l 1
 308 160 l 2
 375 160 430 233 430 340 c 0
 430 483 377 520 308 520 c 2
 230 520 l 1
50 680 m 1
 308 680 l 2
 498 680 610 564 610 340 c 0
 610 113 499 0 308 0 c 2
 50 0 l 1
 50 680 l 1
EndSplineSet
Substitution2: "'c2sc' Capitals to Small Capitals lookup 23 subtable" d.sc
Substitution2: "'aalt' Access All Alternates lookup 0 subtable" d.sc
EndChar

StartChar: E
Encoding: 69 69 44
Width: 510
GlyphClass: 2
Flags: HMW
HStem: 0 150<230 460 230 460> 270 150<230 420 230 420> 530 150<230 460 230 230>
VStem: 50 180<150 270 150 420 420 530>
AnchorPoint: "top" 262 740 basechar 0
LayerCount: 2
Fore
SplineSet
420 270 m 1
 230 270 l 1
 230 150 l 1
 460 150 l 1
 460 0 l 1
 50 0 l 1
 50 680 l 1
 460 680 l 1
 460 530 l 1
 230 530 l 1
 230 420 l 1
 420 420 l 1
 420 270 l 1
EndSplineSet
Substitution2: "'c2sc' Capitals to Small Capitals lookup 23 subtable" e.sc
Substitution2: "'aalt' Access All Alternates lookup 0 subtable" e.sc
EndChar

StartChar: F
Encoding: 70 70 45
Width: 510
GlyphClass: 2
Flags: HMW
HStem: 0 21G<50 230 50 50> 270 150<230 420 230 420> 530 150<230 460 230 230>
VStem: 50 180<0 270 0 420 420 530>
AnchorPoint: "top" 262 740 basechar 0
LayerCount: 2
Fore
SplineSet
420 270 m 1
 230 270 l 1
 230 0 l 1
 50 0 l 1
 50 680 l 1
 460 680 l 1
 460 530 l 1
 230 530 l 1
 230 420 l 1
 420 420 l 1
 420 270 l 1
EndSplineSet
Substitution2: "'c2sc' Capitals to Small Capitals lookup 23 subtable" f.sc
Substitution2: "'aalt' Access All Alternates lookup 0 subtable" f.sc
EndChar

StartChar: G
Encoding: 71 71 46
Width: 647
GlyphClass: 2
Flags: HMW
HStem: -10 160<306 366.5> 0 150<306 607 306 457> 230 120<347 457 347 607> 530 160<306 375.5>
VStem: 30 180<282.5 397.5 282.5 453> 457 150<0 23 23 23 212 230 230 230>
AnchorPoint: "top" 342 740 basechar 0
LayerCount: 2
Fore
SplineSet
348 530 m 0xbc
 264 530 210 455 210 340 c 0
 210 225 264 150 348 150 c 0
 397 150 437 172 457 212 c 1xbc
 457 230 l 1
 347 230 l 1
 347 350 l 1
 607 350 l 1
 607 0 l 1
 457 0 l 1x7c
 457 23 l 1
 432 4 385 -10 348 -10 c 0
 143 -10 30 114 30 340 c 0
 30 566 143 690 348 690 c 0
 494 690 594 594 615 444 c 1
 455 444 l 1
 444 502 403 530 348 530 c 0xbc
EndSplineSet
Substitution2: "'c2sc' Capitals to Small Capitals lookup 23 subtable" g.sc
Substitution2: "'aalt' Access All Alternates lookup 0 subtable" g.sc
EndChar

StartChar: H
Encoding: 72 72 47
Width: 660
GlyphClass: 2
Flags: HMW
HStem: 0 21G<50 230 50 50 430 610 430 430> 257 160<230 430 230 430>
VStem: 50 180<0 257 0 417 417 680> 430 180<0 257 257 257 417 680 0 680>
AnchorPoint: "top" 333 740 basechar 0
LayerCount: 2
Fore
SplineSet
610 680 m 1
 610 0 l 1
 430 0 l 1
 430 257 l 1
 230 257 l 1
 230 0 l 1
 50 0 l 1
 50 680 l 1
 230 680 l 1
 230 417 l 1
 430 417 l 1
 430 680 l 1
 610 680 l 1
EndSplineSet
Substitution2: "'c2sc' Capitals to Small Capitals lookup 23 subtable" h.sc
Substitution2: "'aalt' Access All Alternates lookup 0 subtable" h.sc
EndChar

StartChar: I
Encoding: 73 73 48
Width: 280
GlyphClass: 2
Flags: HMW
HStem: 0 21G<50 230 50 50>
VStem: 50 180<0 680>
AnchorPoint: "top" 139 740 basechar 0
LayerCount: 2
Fore
SplineSet
230 0 m 1
 50 0 l 1
 50 680 l 1
 230 680 l 5
 230 0 l 1
EndSplineSet
Substitution2: "'c2sc' Capitals to Small Capitals lookup 23 subtable" i.sc
Substitution2: "'aalt' Access All Alternates lookup 0 subtable" i.sc
EndChar

StartChar: J
Encoding: 74 74 49
Width: 378
GlyphClass: 2
Flags: HMW
HStem: 0 160<50 76 76 96 50 124 50 76>
VStem: 148 180<240 244 244 680>
AnchorPoint: "top" 231 740 basechar 0
LayerCount: 2
Fore
SplineSet
124 0 m 2
 50 0 l 1
 50 160 l 1
 76 160 l 2
 116 160 148 176 148 240 c 2
 148 680 l 1
 328 680 l 1
 328 244 l 2
 328 110 296 0 124 0 c 2
EndSplineSet
Substitution2: "'c2sc' Capitals to Small Capitals lookup 23 subtable" j.sc
Substitution2: "'aalt' Access All Alternates lookup 0 subtable" j.sc
EndChar

StartChar: K
Encoding: 75 75 50
Width: 710
GlyphClass: 2
Flags: HMW
HStem: 0 21G<50 230 50 50 480 480 480 700>
VStem: 50 180<0 233 0 380 380 680>
AnchorPoint: "top" 311 740 basechar 0
LayerCount: 2
Fore
SplineSet
230 233 m 1
 230 0 l 1
 50 0 l 1
 50 680 l 1
 230 680 l 1
 230 380 l 1
 290 397 l 1
 460 680 l 1
 660 680 l 1
 460 350 l 1
 700 0 l 1
 480 0 l 1
 308 259 l 1
 230 233 l 1
EndSplineSet
Substitution2: "'c2sc' Capitals to Small Capitals lookup 23 subtable" k.sc
Substitution2: "'aalt' Access All Alternates lookup 0 subtable" k.sc
EndChar

StartChar: L
Encoding: 76 76 51
Width: 510
GlyphClass: 2
Flags: HMW
HStem: 0 160<230 500 230 500>
VStem: 50 180<160 680 160 680 160 680>
AnchorPoint: "top" 141 740 basechar 0
LayerCount: 2
Fore
SplineSet
230 680 m 1
 230 160 l 1
 500 160 l 5
 500 0 l 1
 50 0 l 1
 50 680 l 1
 230 680 l 1
EndSplineSet
Substitution2: "'c2sc' Capitals to Small Capitals lookup 23 subtable" l.sc
Substitution2: "'aalt' Access All Alternates lookup 0 subtable" l.sc
EndChar

StartChar: M
Encoding: 77 77 52
Width: 890
GlyphClass: 2
Flags: HMW
HStem: 0 21G<50 230 50 50 338 550 338 338 660 840 660 660> 0 195
VStem: 50 180<0 274 0 680> 660 180<0 277 277 277>
AnchorPoint: "top" 457 740 basechar 0
LayerCount: 2
Fore
SplineSet
840 680 m 1xb0
 840 0 l 1
 660 0 l 1
 660 277 l 1
 550 0 l 1
 338 0 l 1
 230 274 l 1
 230 0 l 1
 50 0 l 1
 50 680 l 1
 250 680 l 1
 396 335 l 2
 411 299 429 247 445 195 c 1x70
 461 247 479 299 494 335 c 2
 640 680 l 1
 840 680 l 1xb0
EndSplineSet
Substitution2: "'c2sc' Capitals to Small Capitals lookup 23 subtable" m.sc
Substitution2: "'aalt' Access All Alternates lookup 0 subtable" m.sc
EndChar

StartChar: N
Encoding: 78 78 53
Width: 714
GlyphClass: 2
Flags: HMW
HStem: 0 21G<50 230 50 50 464 464 464 664>
VStem: 50 180<0 320 0 680> 484 180<360 680 0 680>
AnchorPoint: "top" 353 740 basechar 0
LayerCount: 2
Fore
SplineSet
230 320 m 2
 230 0 l 1
 50 0 l 1
 50 680 l 1
 250 680 l 1
 487 292 l 1
 484 318 484 342 484 360 c 2
 484 680 l 1
 664 680 l 1
 664 0 l 1
 464 0 l 1
 227 388 l 1
 230 362 230 338 230 320 c 2
EndSplineSet
Substitution2: "'c2sc' Capitals to Small Capitals lookup 23 subtable" n.sc
Substitution2: "'aalt' Access All Alternates lookup 0 subtable" n.sc
EndChar

StartChar: O
Encoding: 79 79 54
Width: 696
GlyphClass: 2
Flags: HMW
HStem: -10 160<306 390 306 450.5> 530 160<306 390>
VStem: 30 180<282.5 397.5 282.5 453> 486 180<282.5 397.5>
AnchorPoint: "top" 342 740 basechar 0
LayerCount: 2
Fore
SplineSet
348 530 m 0
 264 530 210 455 210 340 c 0
 210 225 264 150 348 150 c 0
 432 150 486 225 486 340 c 0
 486 455 432 530 348 530 c 0
348 -10 m 0
 143 -10 30 114 30 340 c 0
 30 566 143 690 348 690 c 0
 553 690 666 566 666 340 c 0
 666 114 553 -10 348 -10 c 0
EndSplineSet
Substitution2: "Single Substitution lookup 28 subtable" ordmasculine
Substitution2: "'c2sc' Capitals to Small Capitals lookup 23 subtable" o.sc
Substitution2: "'aalt' Access All Alternates lookup 0 subtable" o.sc
EndChar

StartChar: P
Encoding: 80 80 55
Width: 580
GlyphClass: 2
Flags: HMW
HStem: 0 21G<50 230 50 50> 220 160<230 290 230 290> 520 160<230 290 230 230>
VStem: 50 180<0 220 380 520> 370 160<427 479>
AnchorPoint: "top" 262 740 basechar 0
LayerCount: 2
Fore
SplineSet
290 520 m 2
 230 520 l 1
 230 380 l 1
 290 380 l 2
 330 380 370 397 370 457 c 0
 370 501 330 520 290 520 c 2
290 220 m 2
 230 220 l 1
 230 0 l 1
 50 0 l 1
 50 680 l 1
 290 680 l 2
 430 680 530 617 530 457 c 0
 530 297 430 220 290 220 c 2
EndSplineSet
Substitution2: "'c2sc' Capitals to Small Capitals lookup 23 subtable" p.sc
Substitution2: "'aalt' Access All Alternates lookup 0 subtable" p.sc
EndChar

StartChar: Q
Encoding: 81 81 56
Width: 696
GlyphClass: 2
Flags: HMW
HStem: -10 160<306 370> 530 160<306 390>
VStem: 30 180<282.5 397.5 282.5 453> 486 180<287 397.5>
AnchorPoint: "top" 342 740 basechar 0
LayerCount: 2
Fore
SplineSet
672 11 m 1
 576 -69 l 1
 322 202 l 1
 418 282 l 1
 672 11 l 1
EndSplineSet
Refer: 54 79 N 1 0 0 1 0 0 2
Substitution2: "'c2sc' Capitals to Small Capitals lookup 23 subtable" q.sc
Substitution2: "'aalt' Access All Alternates lookup 0 subtable" q.sc
EndChar

StartChar: R
Encoding: 82 82 57
Width: 540
GlyphClass: 2
Flags: HMW
HStem: 0 21G<50 230 50 50 340 340 340 530> 220 160<230 253 230 290> 520 160<230 290 230 230>
VStem: 50 180<0 220 380 520> 370 160<427 479>
AnchorPoint: "top" 262 740 basechar 0
LayerCount: 2
Fore
SplineSet
290 520 m 2
 230 520 l 1
 230 380 l 1
 290 380 l 2
 330 380 370 397 370 457 c 0
 370 501 330 520 290 520 c 2
253 220 m 1
 230 220 l 1
 230 0 l 1
 50 0 l 1
 50 680 l 1
 290 680 l 2
 430 680 530 617 530 457 c 0
 530 358 492 291 430 254 c 1
 530 0 l 1
 340 0 l 1
 253 220 l 1
EndSplineSet
Substitution2: "'c2sc' Capitals to Small Capitals lookup 23 subtable" r.sc
Substitution2: "'aalt' Access All Alternates lookup 0 subtable" r.sc
EndChar

StartChar: S
Encoding: 83 83 58
Width: 581
GlyphClass: 2
Flags: HMW
HStem: -10 160<266.5 315 266.5 370.5> -10 233<209 220 30 370.5> 481 209<359 370 218.5 549 359 359> 530 160<271 315>
VStem: 30 190<203 223 203 223> 48 190<486 507.5 486 552> 361 190<182 208>
AnchorPoint: "top" 272 740 basechar 0
LayerCount: 2
Fore
SplineSet
30 223 m 1x6a
 220 223 l 1xaa
 220 183 243 150 290 150 c 0
 340 150 361 170 361 194 c 0
 361 222 347 243 325 255 c 2
 138 358 l 2
 84 388 48 430 48 492 c 0
 48 612 139 690 298 690 c 0
 442 690 549 590 549 481 c 1
 359 481 l 1xa6
 359 506 341 530 289 530 c 0
 253 530 238 522 238 493 c 0
 238 479 245 470 273 455 c 2x96
 448 360 l 2
 515 324 551 274 551 191 c 0
 551 69 458 -10 283 -10 c 0xaa
 135 -10 30 91 30 223 c 1x6a
EndSplineSet
Substitution2: "'c2sc' Capitals to Small Capitals lookup 23 subtable" s.sc
Substitution2: "'aalt' Access All Alternates lookup 0 subtable" s.sc
EndChar

StartChar: T
Encoding: 84 84 59
Width: 480
GlyphClass: 2
Flags: HMW
HStem: 0 21G<150 330 150 150> 520 160<10 150 10 470 330 470 330 330>
VStem: 150 180<0 520 0 520>
AnchorPoint: "top" 232 740 basechar 0
LayerCount: 2
Fore
SplineSet
330 520 m 1
 330 0 l 1
 150 0 l 1
 150 520 l 1
 10 520 l 1
 10 680 l 1
 470 680 l 1
 470 520 l 1
 330 520 l 1
EndSplineSet
Substitution2: "'c2sc' Capitals to Small Capitals lookup 23 subtable" t.sc
Substitution2: "'aalt' Access All Alternates lookup 0 subtable" t.sc
EndChar

StartChar: U
Encoding: 85 85 60
Width: 640
GlyphClass: 2
Flags: HMW
HStem: -10 170<285 355 285 405>
VStem: 50 180<270 310 310 680> 410 180<310 680>
AnchorPoint: "top" 323 740 basechar 0
LayerCount: 2
Fore
SplineSet
50 270 m 2
 50 680 l 1
 230 680 l 1
 230 310 l 2
 230 211 250 160 320 160 c 0
 390 160 410 211 410 310 c 2
 410 680 l 1
 590 680 l 1
 590 270 l 2
 590 86 490 -10 320 -10 c 0
 150 -10 50 86 50 270 c 2
EndSplineSet
Substitution2: "'c2sc' Capitals to Small Capitals lookup 23 subtable" u.sc
Substitution2: "'aalt' Access All Alternates lookup 0 subtable" u.sc
EndChar

StartChar: V
Encoding: 86 86 61
Width: 650
GlyphClass: 2
Flags: HMW
HStem: 0 21G<218 430 218 218>
VStem: 10 630<680 680>
AnchorPoint: "top" 333 740 basechar 0
LayerCount: 2
Fore
SplineSet
354 335 m 2
 460 680 l 1
 640 680 l 1
 430 0 l 1
 218 0 l 1
 10 680 l 1
 190 680 l 1
 296 335 l 2
 306 301 316 256 325 209 c 1
 334 256 344 301 354 335 c 2
EndSplineSet
Substitution2: "'c2sc' Capitals to Small Capitals lookup 23 subtable" v.sc
Substitution2: "'aalt' Access All Alternates lookup 0 subtable" v.sc
EndChar

StartChar: W
Encoding: 87 87 62
Width: 1100
GlyphClass: 2
Flags: HMW
HStem: 0 21G<218 430 218 218 668 880 668 668> 0 209
VStem: 10 1080<680 680>
AnchorPoint: "top" 553 740 basechar 0
LayerCount: 2
Fore
SplineSet
804 335 m 2xa0
 910 680 l 1
 1090 680 l 1
 880 0 l 1
 668 0 l 1
 550 387 l 1
 430 0 l 1
 218 0 l 1
 10 680 l 1
 190 680 l 1
 296 335 l 2
 306 301 316 256 325 209 c 1
 334 256 344 301 354 335 c 2
 460 680 l 1
 640 680 l 1
 746 335 l 2
 756 301 766 256 775 209 c 1x60
 784 256 794 301 804 335 c 2xa0
EndSplineSet
Substitution2: "'c2sc' Capitals to Small Capitals lookup 23 subtable" w.sc
Substitution2: "'aalt' Access All Alternates lookup 0 subtable" w.sc
EndChar

StartChar: X
Encoding: 88 88 63
Width: 662
GlyphClass: 2
Flags: HMW
HStem: 0 21G<30 244 30 30 417 634 417 417>
VStem: 20 622<680 680>
AnchorPoint: "top" 335 740 basechar 0
LayerCount: 2
Fore
SplineSet
642 680 m 1
 439 332 l 1
 634 0 l 1
 417 0 l 1
 331 148 l 1
 244 0 l 1
 30 0 l 1
 224 331 l 1
 20 680 l 1
 235 680 l 1
 332 514 l 1
 430 680 l 1
 642 680 l 1
EndSplineSet
Substitution2: "'c2sc' Capitals to Small Capitals lookup 23 subtable" x.sc
Substitution2: "'aalt' Access All Alternates lookup 0 subtable" x.sc
EndChar

StartChar: Y
Encoding: 89 89 64
Width: 594
GlyphClass: 2
Flags: HMW
HStem: 0 21G<207 387 207 207>
VStem: 207 180<0 210 0 210>
AnchorPoint: "top" 297 740 basechar 0
LayerCount: 2
Fore
SplineSet
207 210 m 1
 -5 680 l 1
 180 680 l 1
 296 418 l 1
 298 418 l 1
 419 680 l 1
 599 680 l 1
 387 210 l 1
 387 0 l 1
 207 0 l 1
 207 210 l 1
EndSplineSet
Substitution2: "'c2sc' Capitals to Small Capitals lookup 23 subtable" y.sc
Substitution2: "'aalt' Access All Alternates lookup 0 subtable" y.sc
EndChar

StartChar: Z
Encoding: 90 90 65
Width: 615
GlyphClass: 2
Flags: HMW
HStem: 0 160<315 590 315 590> 520 160<70 321 70 586>
VStem: 50 540<0 80 80 80>
AnchorPoint: "top" 313 740 basechar 0
LayerCount: 2
Fore
SplineSet
590 160 m 1
 590 0 l 1
 50 0 l 1
 50 80 l 1
 321 520 l 1
 70 520 l 1
 70 680 l 1
 586 680 l 1
 586 600 l 1
 315 160 l 1
 590 160 l 1
EndSplineSet
Substitution2: "'c2sc' Capitals to Small Capitals lookup 23 subtable" z.sc
Substitution2: "'aalt' Access All Alternates lookup 0 subtable" z.sc
EndChar

StartChar: bracketleft
Encoding: 91 91 66
Width: 460
GlyphClass: 2
Flags: HMW
HStem: -81 60<150 290 70 70> 720 60<150 290 150 150>
VStem: 70 80<-81 720 -21 720 -21 780 -21 780>
LayerCount: 2
Fore
SplineSet
70 880 m 1
 390 880 l 1
 390 720 l 1
 250 720 l 1
 250 -21 l 1
 390 -21 l 1
 390 -181 l 1
 70 -181 l 1
 70 880 l 1
EndSplineSet
EndChar

StartChar: backslash
Encoding: 92 92 67
Width: 598
GlyphClass: 2
Flags: HMW
HStem: 0 21G<457 457 457 548> 680 20G<50 137 137 137>
VStem: 50 498
LayerCount: 2
Fore
SplineSet
367 0 m 5
 20 700 l 1
 227 700 l 1
 578 0 l 1
 367 0 l 5
EndSplineSet
EndChar

StartChar: bracketright
Encoding: 93 93 68
Width: 460
GlyphClass: 2
Flags: HMW
HStem: -81 60<170 310 170 310 170 390> 720 60<170 310 170 390>
VStem: 310 80<-21 720 720 720>
LayerCount: 2
Fore
SplineSet
70 -181 m 5
 70 -21 l 1
 210 -21 l 1
 210 720 l 1
 70 720 l 1
 70 880 l 1
 390 880 l 1
 390 -181 l 5
 70 -181 l 5
EndSplineSet
EndChar

StartChar: asciicircum
Encoding: 94 94 69
Width: 654
GlyphClass: 2
Flags: HMW
HStem: 617 63<332 332>
VStem: 172 320<400 400>
LayerCount: 2
Fore
SplineSet
40 520 m 5
 210 800 l 1
 444 800 l 1
 614 520 l 1
 418 520 l 1
 306 687 l 1
 358 687 l 1
 246 520 l 1
 40 520 l 5
EndSplineSet
EndChar

StartChar: underscore
Encoding: 95 95 70
Width: 545
GlyphClass: 2
Flags: HMW
HStem: -111 65<20 525 20 525>
VStem: 20 505<-111 -46 -111 -46>
LayerCount: 2
Fore
SplineSet
20 -210 m 5
 20 -50 l 1
 525 -50 l 1
 525 -210 l 5
 20 -210 l 5
EndSplineSet
EndChar

StartChar: grave
Encoding: 96 96 71
Width: 324
GlyphClass: 2
Flags: HMW
HStem: 490 180<120 120 120 134 54 184>
VStem: 54 130
LayerCount: 2
Fore
SplineSet
130 520 m 1
 30 720 l 5
 244 720 l 5
 294 520 l 1
 130 520 l 1
EndSplineSet
EndChar

StartChar: a
Encoding: 97 97 72
Width: 570
GlyphClass: 2
Flags: HMW
HStem: -10 70<179.5 214.5> 0 21G<362 422 362 362> 405 65<214.5 270>
VStem: 45 80<102 147 102 166.5> 342 80<117 239 239 239 288 319 0 330 0 351>
AnchorPoint: "top" 304 520 basechar 0
LayerCount: 2
Fore
SplineSet
55 123 m 0
 55 210 136.032603774 267.669886792 271 281 c 2
 352 289 l 1
 352 220 l 1
 305 208 l 2
 257.632090765 195.906065727 245 177 245 145 c 0
 245 127 258 110 280 110 c 0
 299 110 324.291015625 121.760742188 342 142 c 2xb8
 363 166 l 1
 363 54 l 1
 338 54 l 1
 299 13 257 -14 192 -14 c 0
 111 -14 55 44 55 123 c 0
362 0 m 1x78
 342 54 l 1
 342 310 l 2
 342 342 326 365 297 365 c 0
 277 365 264 348 260 330 c 1
 76 330 l 1
 83 412 158 474 303 474 c 0
 458 474 522 396 522 299 c 2
 522 0 l 1
 362 0 l 1x78
EndSplineSet
Substitution2: "Single Substitution lookup 28 subtable" ordfeminine
Substitution2: "'smcp' Lowercase to Small Capitals lookup 22 subtable" a.sc
Substitution2: "'aalt' Access All Alternates lookup 0 subtable" a.sc
EndChar

StartChar: b
Encoding: 98 98 73
Width: 616
GlyphClass: 2
Flags: HMW
HStem: -10 65<229.5 291.5 210.5 329> 0 21G<45 105 45 45> 405 65<232.5 301> 680 20G<45 125 125 125>
VStem: 45 80<72 74 174.5 226 226 232 381 700> 376 80<177 268.5>
LayerCount: 2
Fore
SplineSet
225 232 m 2xbc
 225 206 l 2
 225 134.184570312 252.18359375 110 290 110 c 0
 335.947265625 110 356 142.904296875 356 231 c 0
 356 327.68359375 330.874023438 350 285 350 c 0
 237.841796875 350 225 308.109375 225 232 c 2xbc
215 74 m 1
 212 393 l 1
 225 410 l 2
 255.40604957 449.76175713 289.43359375 474 356 474 c 0
 467 474 546 402 546 231 c 0
 546 89.1162109375 462.032226562 -14 352 -14 c 0
 288.145507812 -14 261.7109375 11.2353515625 225 74 c 1
 215 74 l 1
45 0 m 1x7c
 45 700 l 1
 225 700 l 1
 225 74 l 1
 223 74 l 1xbc
 205 0 l 1
 45 0 l 1x7c
EndSplineSet
Substitution2: "'smcp' Lowercase to Small Capitals lookup 22 subtable" b.sc
Substitution2: "'aalt' Access All Alternates lookup 0 subtable" b.sc
EndChar

StartChar: c
Encoding: 99 99 74
Width: 510
GlyphClass: 2
Flags: MW
HStem: -10 68<209.5 297.5 209.5 323> 402 68<213.5 298.5>
VStem: 50 84<188.5 282.5 188.5 289>
LayerCount: 2
Fore
SplineSet
50 230 m 0
 50 348 95 470 259 470 c 0
 378 470 437 405 459 320 c 1
 370 320 l 1
 367 335 338 402 259 402 c 0
 168 402 134 335 134 230 c 0
 134 147 160 58 259 58 c 0
 336 58 365 118 372 150 c 1
 460 150 l 1
 440 79 387 -10 259 -10 c 0
 94 -10 50 122 50 230 c 0
EndSplineSet
Substitution2: "'smcp' Lowercase to Small Capitals lookup 22 subtable" c.sc
Substitution2: "'aalt' Access All Alternates lookup 0 subtable" c.sc
EndChar

StartChar: d
Encoding: 100 100 75
Width: 491
GlyphClass: 2
Flags: MW
HStem: -10 65<200.5 254> 0 21G<386 446 386 386> 405 66<195.5 256 159 287.5> 680 20G<366 446 446 446>
VStem: 36 79<178 275 176.5 288> 366 80<72 72 381 700 0 700>
LayerCount: 2
Fore
SplineSet
115 230 m 0xbc
 115 123 156 55 245 55 c 0
 324 55 365 123 365 230 c 0
 365 321 330 405 245 405 c 0
 146 405 115 320 115 230 c 0xbc
36 231 m 0
 36 345 92 471 226 471 c 0
 286 471 338 437 366 381 c 1
 366 700 l 1
 446 700 l 1
 446 0 l 1
 386 0 l 1x7c
 366 72 l 1
 343 21 283 -10 225 -10 c 0
 92 -10 36 125 36 231 c 0
EndSplineSet
Substitution2: "'smcp' Lowercase to Small Capitals lookup 22 subtable" d.sc
Substitution2: "'aalt' Access All Alternates lookup 0 subtable" d.sc
EndChar

StartChar: e
Encoding: 101 101 76
Width: 518
GlyphClass: 2
Flags: MW
HStem: -10 68<219 294 219 334> 210 68<139 379 139 468 134 379> 402 68<203 315>
VStem: 50 84<180 210 175 300> 379 89<210 278>
LayerCount: 2
Fore
SplineSet
139 278 m 1
 379 278 l 1
 379 278 371 402 259 402 c 0
 147 402 139 278 139 278 c 1
50 240 m 0
 50 360 119 470 259 470 c 0
 399 470 468 360 468 240 c 2
 468 210 l 1
 134 210 l 1
 134 140 179 58 259 58 c 0
 329 58 365 98 375 142 c 1
 458 142 l 1
 443 73 409 -10 259 -10 c 0
 109 -10 50 120 50 240 c 0
EndSplineSet
Substitution2: "'smcp' Lowercase to Small Capitals lookup 22 subtable" e.sc
Substitution2: "'aalt' Access All Alternates lookup 0 subtable" e.sc
EndChar

StartChar: f
Encoding: 102 102 77
Width: 341
GlyphClass: 2
Flags: MW
HStem: 0 21G<110 190 110 110> 400 60<35 110 35 110 190 274> 635 65<272 306 272 306>
VStem: 110 80<0 400 0 400 460 500>
LayerCount: 2
Fore
SplineSet
110 400 m 1
 35 400 l 1
 35 460 l 1
 110 460 l 1
 110 500 l 2
 110 642 121 692 272 700 c 1
 306 700 l 1
 306 635 l 1
 272 635 l 2
 203 634 190 606 190 500 c 2
 190 460 l 1
 274 460 l 1
 274 400 l 1
 190 400 l 1
 190 0 l 1
 110 0 l 1
 110 400 l 1
EndSplineSet
Substitution2: "'smcp' Lowercase to Small Capitals lookup 22 subtable" f.sc
Substitution2: "'aalt' Access All Alternates lookup 0 subtable" f.sc
EndChar

StartChar: g
Encoding: 103 103 78
Width: 492
GlyphClass: 2
Flags: MW
HStem: -200 66<225 280 225 303> -1 66<193.5 256.5> 405 65<201 255 161 278.5>
VStem: 35 80<194.5 283.5 194.5 292.5> 367 80<27 89 89 89 210 245 245 296 388 388>
LayerCount: 2
Fore
SplineSet
115 230 m 0
 115 159 141 65 246 65 c 0
 331 65 367 143 367 210 c 2
 367 245 l 2
 367 347 311 405 246 405 c 0
 156 405 115 337 115 230 c 0
35 230 m 0
 35 355 96 470 226 470 c 0
 284 470 344 439 367 388 c 1
 387 459 l 1
 447 459 l 1
 447 27 l 2
 447 -146 362 -200 244 -200 c 0
 114 -200 62 -106 52 -54 c 1
 135 -54 l 1
 153 -113 206 -134 244 -134 c 0
 316 -134 367 -91 367 27 c 2
 367 89 l 1
 339 33 286 -1 227 -1 c 0
 56 -1 35 144 35 230 c 0
EndSplineSet
Substitution2: "'smcp' Lowercase to Small Capitals lookup 22 subtable" g.sc
Substitution2: "'aalt' Access All Alternates lookup 0 subtable" g.sc
EndChar

StartChar: h
Encoding: 104 104 79
Width: 588
GlyphClass: 2
Flags: HMW
HStem: 0 21G<50 230 50 50 369 549 369 369> 365 105<284 468.5> 680 20G<50 230 230 230>
VStem: 50 180<0 210 0 368 368 700> 369 180<0 255 255 277>
LayerCount: 2
Fore
SplineSet
208 271 m 1
 208 382 l 1
 230 382 l 1
 272.596679688 444.564453125 321.549804688 474 383 474 c 0
 492.112304688 474 538 422.19140625 538 299 c 2
 538 0 l 1
 358 0 l 1
 358 242 l 2
 358 309.27734375 337.416015625 334 301 334 c 0
 266.395507812 334 242.139648438 312.4765625 230 271 c 1
 208 271 l 1
50 0 m 1
 50 700 l 1
 230 700 l 1
 230 0 l 1
 50 0 l 1
EndSplineSet
Substitution2: "'smcp' Lowercase to Small Capitals lookup 22 subtable" h.sc
Substitution2: "'aalt' Access All Alternates lookup 0 subtable" h.sc
EndChar

StartChar: i
Encoding: 105 105 80
Width: 300
GlyphClass: 2
Flags: HMW
HStem: 0 21G<60 240 60 60> 520 140<60 240 60 240>
VStem: 60 180<0 460 520 660>
LayerCount: 2
Fore
SplineSet
240 0 m 1
 60 0 l 1
 60 460 l 1
 240 460 l 1
 240 0 l 1
240 520 m 1
 60 520 l 1
 60 690 l 1
 240 690 l 1
 240 520 l 1
EndSplineSet
Substitution2: "'smcp' Lowercase to Small Capitals lookup 22 subtable" i.sc
Substitution2: "'aalt' Access All Alternates lookup 0 subtable" i.sc
EndChar

StartChar: j
Encoding: 106 106 81
Width: 230
GlyphClass: 2
Flags: MW
HStem: -200 60<28.5 48 28.5 72> 560 80<80 160 80 160>
VStem: -68 65<-100 -100> 80 80<-80 -60 -60 460 560 640>
LayerCount: 2
Fore
SplineSet
160 560 m 1
 80 560 l 1
 80 640 l 1
 160 640 l 1
 160 560 l 1
-68 -100 m 1
 -3 -100 l 1
 0 -132 21 -140 36 -140 c 0
 60 -140 80 -136 80 -80 c 2
 80 460 l 1
 160 460 l 1
 160 -60 l 2
 160 -181 104 -200 40 -200 c 0
 -16 -200 -64 -162 -68 -100 c 1
EndSplineSet
Substitution2: "'smcp' Lowercase to Small Capitals lookup 22 subtable" j.sc
Substitution2: "'aalt' Access All Alternates lookup 0 subtable" j.sc
EndChar

StartChar: k
Encoding: 107 107 82
Width: 666
GlyphClass: 2
Flags: HMW
HStem: 0 21G<45 125 45 45 302 302 302 402> 680 20G<45 125 125 125>
VStem: 45 80<0 210 290 700 583.5 700>
LayerCount: 2
Fore
SplineSet
225 140 m 5
 225 322 l 1
 245.52606931 328.38588823 l 1
 334 460 l 1
 559 460 l 1
 414.245499182 262.070376432 l 1
 564 0 l 1
 344 0 l 1
 263.057994514 151.380086595 l 1
 225 140 l 5
45 0 m 1
 45 700 l 1
 225 700 l 1
 225 0 l 1
 45 0 l 1
EndSplineSet
Substitution2: "'smcp' Lowercase to Small Capitals lookup 22 subtable" k.sc
Substitution2: "'aalt' Access All Alternates lookup 0 subtable" k.sc
EndChar

StartChar: l
Encoding: 108 108 83
Width: 280
GlyphClass: 2
Flags: MW
HStem: 0 21G<50 230 50 50> 680 20G<50 230 230 230>
VStem: 50 180<0 700>
LayerCount: 2
Fore
SplineSet
230 0 m 1
 50 0 l 1
 50 700 l 1
 230 700 l 1
 230 0 l 1
EndSplineSet
Substitution2: "'smcp' Lowercase to Small Capitals lookup 22 subtable" l.sc
Substitution2: "'aalt' Access All Alternates lookup 0 subtable" l.sc
EndChar

StartChar: m
Encoding: 109 109 84
Width: 776
GlyphClass: 2
Flags: MW
HStem: 0 21G<50 130 50 50 348 348 348 428 646 646 646 726> 405 65<242 297.5 538.5 595.5>
VStem: 50 80<0 310 0 460> 348 80<0 295 295 309 0 317> 646 80<0 295 0 317>
CounterMasks: 1 38
LayerCount: 2
Fore
SplineSet
130 310 m 1
 130 0 l 1
 50 0 l 1
 50 460 l 1
 110 460 l 1
 126 379 l 1
 160 425 206 470 278 470 c 0
 372 470 407 424 420 374 c 1
 454 422 501 470 576 470 c 0
 720 470 726 362 726 295 c 2
 726 0 l 1
 646 0 l 1
 646 295 l 2
 646 339 637 405 554 405 c 0
 512 405 452 372 428 309 c 0
 428 304 428 300 428 295 c 2
 428 0 l 1
 348 0 l 1
 348 295 l 2
 348 339 339 405 256 405 c 0
 214 405 154 372 130 310 c 1
EndSplineSet
Substitution2: "'smcp' Lowercase to Small Capitals lookup 22 subtable" m.sc
Substitution2: "'aalt' Access All Alternates lookup 0 subtable" m.sc
EndChar

StartChar: n
Encoding: 110 110 85
Width: 588
GlyphClass: 2
Flags: HMW
HStem: 0 21G<50 230 50 50 358 538 358 358> 365 105<283.5 457.5>
VStem: 50 180<0 302 0 460 0 460> 358 180<0 255 255 277>
LayerCount: 2
Fore
SplineSet
208 271 m 5
 208 382 l 5
 230 382 l 5
 272.596679688 444.564453125 321.549804688 474 383 474 c 4
 492.112304688 474 538 422.19140625 538 299 c 6
 538 0 l 5
 358 0 l 5
 358 242 l 6
 358 309.27734375 337.416015625 334 301 334 c 4
 266.395507812 334 242.139648438 312.4765625 230 271 c 5
 208 271 l 5
50 0 m 1
 50 460 l 1
 210 460 l 1
 226 382 l 1
 230 382 l 1
 230 0 l 1
 50 0 l 1
EndSplineSet
Substitution2: "'smcp' Lowercase to Small Capitals lookup 22 subtable" n.sc
Substitution2: "'aalt' Access All Alternates lookup 0 subtable" n.sc
EndChar

StartChar: o
Encoding: 111 111 86
Width: 590
GlyphClass: 2
Flags: HMW
HStem: -10 65<260 330.5 260 355> 405 65<259.5 330>
VStem: 90 80<169.5 293.5 169.5 300.5> 420 80<166.5 290.5>
AnchorPoint: "top" 295 520 basechar 0
LayerCount: 2
Fore
SplineSet
220 230 m 0
 220 129 255 90 295 90 c 0
 336 90 370 123 370 230 c 0
 370 331 335 370 295 370 c 0
 254 370 220 337 220 230 c 0
30 230 m 0
 30 371 115 474 295 474 c 0
 477 474 560 372 560 230 c 0
 560 89 475 -14 295 -14 c 0
 113 -14 30 88 30 230 c 0
EndSplineSet
Substitution2: "Single Substitution lookup 28 subtable" ordmasculine
Substitution2: "'smcp' Lowercase to Small Capitals lookup 22 subtable" o.sc
Substitution2: "'aalt' Access All Alternates lookup 0 subtable" o.sc
EndChar

StartChar: p
Encoding: 112 112 87
Width: 491
GlyphClass: 2
Flags: HW
HStem: -10 65<229.5 291.5 210.5 329> 0 21G<45 105 45 45> 405 65<232.5 301> 680 20G<45 125 125 125>
VStem: 45 80<72 74 174.5 226 226 232 381 700> 376 80<177 268.5>
LayerCount: 2
Fore
SplineSet
125 232 m 2xbc
 125 226 l 2
 125 123 176 55 245 55 c 0
 338 55 376 123 376 231 c 0
 376 306 357 405 245 405 c 0
 162 405 125 316 125 232 c 2xbc
45 -200 m 1x7c
 45 460 l 1
 105 460 l 1
 125 381 l 1
 157 436 195 470 270 470 c 0
 395 470 456 350 456 231 c 0
 456 111 392 -10 266 -10 c 0
 193 -10 156 21 125 74 c 5
 125 -200 l 5
 45 -200 l 1x7c
EndSplineSet
Substitution2: "'smcp' Lowercase to Small Capitals lookup 22 subtable" p.sc
Substitution2: "'aalt' Access All Alternates lookup 0 subtable" p.sc
EndChar

StartChar: q
Encoding: 113 113 88
Width: 491
GlyphClass: 2
Flags: MW
HStem: -11 66<193 256> 404 66<200 259 157 278>
VStem: 35 80<187.5 283.5 187.5 289.5> 366 80<-200 79 79 79 220 253 253 299.5 370 370>
LayerCount: 2
Fore
SplineSet
115 230 m 0
 115 145 151 55 235 55 c 0
 327 55 366 133 366 220 c 2
 366 253 l 2
 366 346 311 404 245 404 c 0
 155 404 115 337 115 230 c 0
35 230 m 0
 35 349 95 470 219 470 c 0
 299 470 343 421 366 370 c 1
 386 459 l 1
 446 459 l 1
 446 -200 l 1
 366 -200 l 1
 366 79 l 1
 338 23 286 -11 226 -11 c 0
 93 -11 35 100 35 230 c 0
EndSplineSet
Substitution2: "'smcp' Lowercase to Small Capitals lookup 22 subtable" q.sc
Substitution2: "'aalt' Access All Alternates lookup 0 subtable" q.sc
EndChar

StartChar: r
Encoding: 114 114 89
Width: 370
GlyphClass: 2
Flags: MW
HStem: 0 21G<45 125 45 45> 390 80<242 262>
VStem: 45 80<0 233 370 460>
LayerCount: 2
Fore
SplineSet
125 0 m 1
 45 0 l 1
 45 460 l 1
 125 460 l 1
 125 370 l 1
 148 421 212 470 272 470 c 0
 295 470 317 466 335 460 c 1
 335 359 l 1
 312 379 278 390 246 390 c 0
 172 390 134 293 125 233 c 1
 125 0 l 1
EndSplineSet
Substitution2: "'smcp' Lowercase to Small Capitals lookup 22 subtable" r.sc
Substitution2: "'aalt' Access All Alternates lookup 0 subtable" r.sc
EndChar

StartChar: s
Encoding: 115 115 90
Width: 452
GlyphClass: 2
Flags: MW
HStem: -10 65<214.5 249 214.5 275.5> 405 65<192.5 240>
VStem: 35 79<99 136 99 136> 55 80<301.5 362.5 301.5 373.5> 335 82<98.5 183>
LayerCount: 2
Fore
SplineSet
35 136 m 1xe8
 114 136 l 1xe8
 114 62 192 55 237 55 c 0
 261 55 335 67 335 130 c 0
 335 236 55 185 55 340 c 0
 55 407 105 470 215 470 c 0
 307 470 397 414 397 336 c 1
 316 336 l 1
 304 378 265 405 215 405 c 0
 170 405 135 385 135 340 c 0xd8
 135 263 417 288 417 130 c 0
 417 10 314 -10 237 -10 c 0
 133 -10 35 52 35 136 c 1xe8
EndSplineSet
Substitution2: "'hist' Historical Forms lookup 25 subtable" longs
Substitution2: "'smcp' Lowercase to Small Capitals lookup 22 subtable" s.sc
AlternateSubs2: "'aalt' Access All Alternates lookup 1 subtable" s.sc longs
EndChar

StartChar: t
Encoding: 116 116 91
Width: 331
GlyphClass: 2
Flags: MW
HStem: -9 65<267 300 267 267> 400 60<30 105 185 269>
VStem: 105 80<180 181 181 400 460 480 480 480>
LayerCount: 2
Fore
SplineSet
105 400 m 1
 30 400 l 1
 30 440 l 1
 105 460 l 1
 105 480 l 1
 125 610 l 1
 185 610 l 1
 185 460 l 1
 269 460 l 1
 269 400 l 1
 185 400 l 1
 185 181 l 2
 185 83 197 56 266 56 c 2
 300 56 l 1
 300 -9 l 1
 267 -9 l 1
 117 0 105 44 105 180 c 2
 105 400 l 1
EndSplineSet
Substitution2: "'smcp' Lowercase to Small Capitals lookup 22 subtable" t.sc
Substitution2: "'aalt' Access All Alternates lookup 0 subtable" t.sc
EndChar

StartChar: u
Encoding: 117 117 92
Width: 478
GlyphClass: 2
Flags: MW
HStem: -10 65<178 237.5> 0 21G<374 433 374 374>
VStem: 45 80<165 460> 354 79<154 460 0 460>
LayerCount: 2
Fore
SplineSet
354 154 m 1xb0
 354 460 l 1
 433 460 l 1
 433 0 l 1
 374 0 l 1x70
 357 83 l 1
 323 36 275 -10 200 -10 c 0
 51 -10 45 98 45 165 c 2
 45 460 l 1
 125 460 l 1
 125 165 l 2
 125 121 134 55 222 55 c 0
 266 55 330 90 354 154 c 1xb0
EndSplineSet
Substitution2: "'smcp' Lowercase to Small Capitals lookup 22 subtable" u.sc
Substitution2: "'aalt' Access All Alternates lookup 0 subtable" u.sc
EndChar

StartChar: v
Encoding: 118 118 93
Width: 437
GlyphClass: 2
Flags: MW
HStem: 0 65<156 215 215 215 215 266>
VStem: 15 407<460 460>
LayerCount: 2
Fore
SplineSet
156 0 m 1
 15 460 l 1
 95 460 l 1
 215 65 l 1
 342 460 l 1
 422 460 l 1
 266 0 l 1
 156 0 l 1
EndSplineSet
Substitution2: "'smcp' Lowercase to Small Capitals lookup 22 subtable" v.sc
Substitution2: "'aalt' Access All Alternates lookup 0 subtable" v.sc
EndChar

StartChar: w
Encoding: 119 119 94
Width: 724
GlyphClass: 2
Flags: MW
HStem: 0 65<156 215 215 215 215 266>
VStem: 35 654<460 460>
LayerCount: 2
Fore
SplineSet
156 0 m 1
 35 460 l 1
 115 460 l 1
 215 65 l 1
 322 460 l 1
 402 460 l 1
 502 65 l 1
 609 460 l 1
 689 460 l 1
 553 0 l 1
 443 0 l 1
 360 317 l 1
 266 0 l 1
 156 0 l 1
EndSplineSet
Substitution2: "'smcp' Lowercase to Small Capitals lookup 22 subtable" w.sc
Substitution2: "'aalt' Access All Alternates lookup 0 subtable" w.sc
EndChar

StartChar: x
Encoding: 120 120 95
Width: 416
GlyphClass: 2
Flags: MW
HStem: 0 21G<20 100 20 20 316 396 316 316>
VStem: 20 376<0 0>
LayerCount: 2
Fore
SplineSet
248 238 m 1
 396 0 l 1
 316 0 l 1
 208 174 l 1
 100 0 l 1
 20 0 l 1
 168 238 l 1
 30 460 l 1
 110 460 l 1
 208 302 l 1
 306 460 l 1
 386 460 l 5
 248 238 l 1
EndSplineSet
Substitution2: "'smcp' Lowercase to Small Capitals lookup 22 subtable" x.sc
Substitution2: "'aalt' Access All Alternates lookup 0 subtable" x.sc
EndChar

StartChar: y
Encoding: 121 121 96
Width: 460
GlyphClass: 2
Flags: MW
HStem: -200 65<129 142.5 116 187.5>
VStem: 30 400<460 460>
LayerCount: 2
Fore
SplineSet
198 -12 m 1
 30 460 l 1
 110 460 l 1
 239 98 l 1
 354 460 l 1
 430 460 l 1
 258 -49 l 2
 252 -67 225 -200 150 -200 c 0
 108 -200 89 -198 58 -190 c 1
 58 -120 l 1
 78 -129 94 -135 116 -135 c 2
 122 -135 l 2
 163 -135 187 -54 198 -12 c 1
EndSplineSet
Substitution2: "'smcp' Lowercase to Small Capitals lookup 22 subtable" y.sc
Substitution2: "'aalt' Access All Alternates lookup 0 subtable" y.sc
EndChar

StartChar: z
Encoding: 122 122 97
Width: 450
GlyphClass: 2
Flags: MW
HStem: 0 65<150 410 40 40> 395 65<40 310 40 410 40 410>
VStem: 40 370<0 65 0 65 395 460>
LayerCount: 2
Fore
SplineSet
410 0 m 1
 40 0 l 1
 40 65 l 1
 310 395 l 1
 40 395 l 1
 40 460 l 1
 410 460 l 1
 410 395 l 1
 150 65 l 1
 410 65 l 1
 410 0 l 1
EndSplineSet
Substitution2: "'smcp' Lowercase to Small Capitals lookup 22 subtable" z.sc
Substitution2: "'aalt' Access All Alternates lookup 0 subtable" z.sc
EndChar

StartChar: braceleft
Encoding: 123 123 98
Width: 324
GlyphClass: 2
Flags: MW
HStem: -80 54<249 284 249 284> 722 58<248 284>
VStem: 110 80<97 230 230 234 468 615 615 628>
LayerCount: 2
Fore
SplineSet
40 326 m 1
 40 374 l 1
 91 389 110 409 110 468 c 2
 110 615 l 2
 110 774 186 780 284 780 c 1
 284 722 l 1
 212 722 190 701 190 628 c 2
 190 460 l 2
 190 404 164 371 126 348 c 1
 162 330 190 287 190 234 c 2
 190 74 l 2
 190 4 214 -26 284 -26 c 1
 284 -80 l 1
 132 -80 110 -42 110 97 c 2
 110 230 l 2
 110 287 92 312 40 326 c 1
EndSplineSet
EndChar

StartChar: bar
Encoding: 124 124 99
Width: 220
GlyphClass: 2
Flags: MW
HStem: -80 860<70 150 70 150>
VStem: 70 80<-80 780>
LayerCount: 2
Fore
SplineSet
150 -80 m 1
 70 -80 l 1
 70 780 l 1
 150 780 l 1
 150 -80 l 1
EndSplineSet
EndChar

StartChar: braceright
Encoding: 125 125 100
Width: 324
GlyphClass: 2
Flags: MW
HStem: -80 54<40 82 40 110> 722 58<40 61.5 40 76>
VStem: 134 80<101 230 460 468 468 615>
LayerCount: 2
Fore
SplineSet
40 -80 m 1
 40 -26 l 1
 124 -26 134 12 134 101 c 2
 134 234 l 2
 134 287 162 330 198 348 c 1
 155 374 134 409 134 460 c 2
 134 628 l 2
 134 701 112 722 40 722 c 1
 40 780 l 1
 83 780 146 774 179 749 c 0
 210 725 214 682 214 615 c 2
 214 468 l 2
 214 408 235 389 284 374 c 1
 284 326 l 1
 232 312 214 287 214 230 c 2
 214 97 l 2
 214 -55 180 -80 40 -80 c 1
EndSplineSet
EndChar

StartChar: asciitilde
Encoding: 126 126 101
Width: 510
GlyphClass: 2
Flags: MW
HStem: 183 80<319.5 354.5 319.5 363.5> 223 80<166.5 184 156.5 206.5>
VStem: 50 410<183 303>
LayerCount: 2
Fore
SplineSet
100 183 m 1xa0
 50 183 l 1
 74 270 133 303 180 303 c 0x60
 188 303 196 302 204 301 c 0
 252 293 299 263 340 263 c 0xa0
 369 263 400 271 410 303 c 1x60
 460 303 l 1xa0
 436 207 387 183 340 183 c 0
 286 183 233 223 180 223 c 0x60
 153 223 110 211 100 183 c 1xa0
EndSplineSet
EndChar

StartChar: exclamdown
Encoding: 258 161 103
Width: 190
GlyphClass: 2
Flags: MW
HStem: 380 80<55 135 55 135>
VStem: 50 90<-240 50 -240 50> 55 80<380 460>
LayerCount: 2
Fore
SplineSet
50 -240 m 1xc0
 50 50 l 1
 70 310 l 1
 120 310 l 1
 140 50 l 1
 140 -240 l 1
 50 -240 l 1xc0
135 380 m 1xa0
 55 380 l 1
 55 460 l 1
 135 460 l 1
 135 380 l 1xa0
EndSplineSet
EndChar

StartChar: cent
Encoding: 259 162 104
Width: 495
GlyphClass: 2
Flags: MW
HStem: -12 64<249 282.5 249 309.5> -6 21G<212 212> 409 64<227.5 279>
VStem: 49 80<221 265 221 338>
LayerCount: 2
Fore
SplineSet
129 232 m 0x70
 129 210 128 116 182 77 c 1
 279 409 l 1
 145 420 129 298 129 232 c 0x70
49 228 m 0
 49 448 202 473 253 473 c 0
 258 473 269 473 296 469 c 1
 346 637 l 1
 393 623 l 1
 345 455 l 1
 405 429 426 385 436 353 c 2
 443 326 l 1
 367 314 l 1
 363 333 355 363 326 388 c 1
 229 55 l 1
 237 53 243 52 255 52 c 0
 310 52 362 88 374 169 c 1
 451 160 l 1
 431 61 363 -12 256 -12 c 0xb0
 236 -12 223 -9 212 -6 c 1
 161 -178 l 1
 112 -164 l 1
 162 9 l 1
 95 41 49 116 49 228 c 0
EndSplineSet
EndChar

StartChar: sterling
Encoding: 260 163 105
Width: 495
GlyphClass: 2
Flags: MW
HStem: -11 75<356.5 378 346.5 386> 28 65<167 179> 287 65<21 88 21 106 21 88 192 192 192 311> 584 64<226.5 290.5>
VStem: 66 84<455 503.5 455 528.5> 113 84<217.5 246.5>
LayerCount: 2
Fore
SplineSet
44 -12 m 1x78
 13 63 l 1
 75 94 113 166 113 233 c 0
 113 260 109 273 106 287 c 1
 21 287 l 1
 21 352 l 1x74
 88 352 l 1
 72 404 66 433 66 466 c 0
 66 591 166 648 263 648 c 0
 355 648 429 599 452 500 c 2
 456 483 l 1
 377 472 l 1
 366 547 319 584 262 584 c 0
 191 584 150 530 150 477 c 0
 150 433 163 386 174 352 c 1x78
 311 352 l 1
 311 287 l 1
 192 287 l 1
 195 277 197 262 197 249 c 0
 197 186 162 129 118 85 c 1
 120 83 l 1
 132 87 153 93 181 93 c 0x74
 197 93 225 91 263 82 c 0
 294 73 330 64 363 64 c 0
 393 64 429 79 447 88 c 1
 473 16 l 1
 435 1 405 -11 367 -11 c 0
 346 -11 326 -8 306 -2 c 2
 263 11 l 2xb4
 241 17 223 24 199 27 c 0
 191 28 183 28 175 28 c 0
 133 28 80 12 44 -12 c 1x78
EndSplineSet
EndChar

StartChar: currency
Encoding: 261 164 106
Width: 495
GlyphClass: 2
Flags: MW
HStem: 132 71<232 262> 429 71<232 262 232 277>
VStem: 63 71<300 330> 360 72<300 330 300 346>
LayerCount: 2
Fore
SplineSet
134 316 m 0
 134 256 187 203 247 203 c 0
 307 203 360 256 360 316 c 0
 360 376 307 429 247 429 c 0
 187 429 134 376 134 316 c 0
144 163 m 1
 84 102 l 1
 34 154 l 1
 94 213 l 1
 68 255 63 285 63 315 c 0
 63 345 68 376 94 417 c 1
 34 477 l 1
 84 529 l 1
 144 468 l 1
 177 490 217 500 247 500 c 0
 277 500 318 490 351 468 c 1
 411 529 l 1
 461 477 l 1
 400 417 l 1
 427 376 432 345 432 315 c 0
 432 285 427 255 400 213 c 1
 461 154 l 1
 411 102 l 1
 351 163 l 1
 318 141 277 132 247 132 c 0
 217 132 177 141 144 163 c 1
EndSplineSet
EndChar

StartChar: yen
Encoding: 262 165 107
Width: 495
GlyphClass: 2
Flags: MW
HStem: 0 207<28 287 28 209> 147 60<28 209 28 209 287 466> 286 60<28 167 28 209 28 167 328 466>
VStem: 209 78<0 147 0 147 207 286>
LayerCount: 2
Fore
SplineSet
167 346 m 1x70
 1 637 l 1
 88 637 l 1
 214 413 l 2
 226 392 238 369 247 346 c 1
 256 369 266 386 282 417 c 2
 401 637 l 1
 494 637 l 1
 328 346 l 1
 466 346 l 1
 466 286 l 1
 287 286 l 1
 287 207 l 1
 466 207 l 1
 466 147 l 1
 287 147 l 1x70
 287 0 l 1
 209 0 l 1xb0
 209 147 l 1
 28 147 l 1
 28 207 l 1
 209 207 l 1
 209 286 l 1
 28 286 l 1
 28 346 l 1
 167 346 l 1x70
EndSplineSet
EndChar

StartChar: brokenbar
Encoding: 263 166 108
Width: 180
GlyphClass: 2
Flags: MW
HStem: -156 312<50 130 50 130> -156 757<50 130 50 130> 289 312<50 130 50 130>
VStem: 50 80<-156 156 289 601>
LayerCount: 2
Fore
SplineSet
130 -156 m 1xb0
 50 -156 l 1
 50 156 l 1
 130 156 l 1
 130 -156 l 1xb0
130 289 m 1
 50 289 l 1
 50 601 l 1
 130 601 l 1
 130 289 l 1
EndSplineSet
EndChar

StartChar: section
Encoding: 253 167 109
Width: 465
GlyphClass: 2
Flags: MW
HStem: -10 65<229 264 229 276.5> 645 65<214.5 253.5>
VStem: 40 80<381 418 381 428.5> 75 80<113 148 113 148> 85 80<599 602 602 602> 295 80<568 593> 319 68<93.5 127.5> 345 80<303.5 329>
LayerCount: 2
Fore
SplineSet
120 402 m 0xe1
 120 360 145 342 173 322 c 2
 271 263 l 2
 279 258 287 256 294 256 c 0
 325 256 345 293 345 314 c 0
 345 344 337 371 280 413 c 1
 173 476 l 1
 140 469 120 434 120 402 c 0xe1
40 400 m 0
 40 457 77 498 123 515 c 1
 99 537 85 571 85 599 c 2
 85 602 l 2
 86 669 153 710 229 710 c 0
 320 710 375 661 375 568 c 1
 295 568 l 1xcc
 295 618 278 645 229 645 c 0
 200 645 165 627 165 591 c 0
 165 560 204 534 239 511 c 2
 360 432 l 2
 399 408 425 378 425 319 c 0xc9
 425 264 382 234 341 215 c 1
 366 199 387 157 387 116 c 0
 387 48 320 -10 233 -10 c 0
 142 -10 75 59 75 148 c 1
 155 148 l 1
 155 78 215 55 243 55 c 0
 285 55 319 75 319 112 c 0xd2
 319 143 296 173 247 202 c 0
 211 223 176 244 140 265 c 0
 73 302 40 349 40 400 c 0
EndSplineSet
EndChar

StartChar: dieresis
Encoding: 264 168 110
Width: 338
GlyphClass: 2
Flags: MW
HStem: 520 80<50 130 50 130 50 208 208 288>
VStem: 50 80<520 600> 208 80<520 600>
LayerCount: 2
Fore
SplineSet
130 520 m 1
 50 520 l 1
 50 600 l 1
 130 600 l 1
 130 520 l 1
288 520 m 1
 208 520 l 1
 208 600 l 1
 288 600 l 1
 288 520 l 1
EndSplineSet
EndChar

StartChar: copyright
Encoding: 265 169 111
Width: 572
GlyphClass: 2
Flags: MW
HStem: -10 58<237 335 237 351> 89 50<271.5 297 271.5 315> 303 49<272.5 297.5> 406 58<237 335>
VStem: 50 58<178.5 277 178.5 293> 178 51<193.5 248.5 193.5 258.5> 464 58<177 275.5>
LayerCount: 2
Fore
SplineSet
108 228 m 0
 108 129 188 48 286 48 c 0
 384 48 464 128 464 226 c 0
 464 325 384 406 286 406 c 0
 188 406 108 326 108 228 c 0
178 220 m 0
 178 297 223 352 289 352 c 0
 343 352 375 317 386 266 c 1
 334 266 l 1
 326 296 307 303 288 303 c 0
 257 303 229 276 229 221 c 0
 229 166 256 139 287 139 c 0
 307 139 324 147 334 170 c 1
 386 170 l 1
 372 127 339 89 291 89 c 0
 221 89 178 143 178 220 c 0
50 228 m 0
 50 358 156 464 286 464 c 0
 416 464 522 357 522 226 c 0
 522 96 416 -10 286 -10 c 0
 156 -10 50 97 50 228 c 0
EndSplineSet
EndChar

StartChar: ordfeminine
Encoding: 266 170 112
Width: 329
GlyphClass: 2
Flags: MW
HStem: 324 52<125 148.5> 597 51<147.5 193.5 112 196>
VStem: 19 65<404.5 435.5 404.5 458.5> 30 60<543 558> 231 62<530 543>
LayerCount: 2
Fore
SplineSet
84 418 m 0xe8
 84 391 110 376 140 376 c 0
 176 376 214 398 226 433 c 0
 230 442 230 446 230 480 c 1
 214 475 188 470 160 466 c 0
 107 458 84 453 84 418 c 0xe8
19 419 m 0
 19 498 91 507 138 514 c 0
 171 519 197 522 231 530 c 1
 231 560 230 597 162 597 c 0
 133 597 97 590 90 543 c 1
 30 558 l 1xd8
 35 593 61 648 163 648 c 0
 224 648 293 635 293 543 c 2
 293 438 l 2
 293 390 293 352 310 332 c 1
 246 332 l 1
 240 344 237 353 237 370 c 1
 211 348 172 324 125 324 c 0
 85 324 19 344 19 419 c 0
EndSplineSet
EndChar

StartChar: guillemotleft
Encoding: 267 171 113
Width: 495
GlyphClass: 2
Flags: MW
HStem: 31 397<199 263 199 263 369 433 199 369>
VStem: 61 372<31 230>
LayerCount: 2
Fore
SplineSet
199 31 m 1
 61 230 l 1
 199 428 l 1
 263 428 l 1
 150 230 l 1
 263 31 l 1
 199 31 l 1
369 31 m 1
 231 230 l 1
 369 428 l 1
 433 428 l 1
 320 230 l 1
 433 31 l 1
 369 31 l 1
EndSplineSet
EndChar

StartChar: logicalnot
Encoding: 268 172 114
Width: 520
GlyphClass: 2
Flags: MW
HStem: 375 65<49 397 49 471>
VStem: 397 74<181 375 375 375>
LayerCount: 2
Fore
SplineSet
397 375 m 1
 49 375 l 1
 49 440 l 1
 471 440 l 1
 471 181 l 1
 397 181 l 1
 397 375 l 1
EndSplineSet
EndChar

StartChar: uni00AD
Encoding: 173 173 115
Width: 320
GlyphClass: 2
Flags: MW
HStem: 210 65<50 270 50 270>
VStem: 50 220<210 275 210 275>
LayerCount: 2
Fore
SplineSet
270 210 m 1
 50 210 l 1
 50 275 l 1
 270 275 l 1
 270 210 l 1
EndSplineSet
EndChar

StartChar: registered
Encoding: 269 174 116
Width: 572
GlyphClass: 2
Flags: MW
HStem: -10 58<237 335 237 351> 203 50<249 302 249 270> 307 50<249 302 249 249> 406 58<237 335>
VStem: 50 58<178.5 277 178.5 293> 199 50<95 203 253 307> 339 50<269 289> 464 58<177 275.5>
LayerCount: 2
Fore
SplineSet
108 228 m 0
 108 129 188 48 286 48 c 0
 384 48 464 128 464 226 c 0
 464 325 384 406 286 406 c 0
 188 406 108 326 108 228 c 0
302 307 m 2
 249 307 l 1
 249 253 l 1
 302 253 l 2
 334 253 339 259 339 279 c 0
 339 299 330 307 302 307 c 2
50 228 m 0
 50 358 156 464 286 464 c 0
 416 464 522 357 522 226 c 0
 522 96 416 -10 286 -10 c 0
 156 -10 50 97 50 228 c 0
249 203 m 1
 249 95 l 1
 199 95 l 1
 199 357 l 1
 302 357 l 2
 351 356 389 331 389 277 c 0
 389 245 376 209 325 204 c 1
 390 95 l 1
 332 95 l 1
 270 203 l 1
 249 203 l 1
EndSplineSet
EndChar

StartChar: macron
Encoding: 270 175 117
Width: 370
GlyphClass: 2
Flags: MW
HStem: 520 70<50 320 50 320>
VStem: 50 270<520 590 520 590>
LayerCount: 2
Fore
SplineSet
320 520 m 1
 50 520 l 1
 50 590 l 1
 320 590 l 1
 320 520 l 1
EndSplineSet
EndChar

StartChar: degree
Encoding: 271 176 118
Width: 356
GlyphClass: 2
Flags: MW
HStem: 404 55<160 195.5 160 211> 590 55<160 196>
VStem: 58 55<504.5 545 504.5 558.5> 243 55<504.5 545>
LayerCount: 2
Fore
SplineSet
58 525 m 0
 58 592 111 645 178 645 c 0
 245 645 298 591 298 525 c 0
 298 457 244 404 178 404 c 0
 112 404 58 457 58 525 c 0
113 525 m 0
 113 484 142 459 178 459 c 0
 213 459 243 484 243 525 c 0
 243 565 214 590 178 590 c 0
 142 590 113 565 113 525 c 0
EndSplineSet
EndChar

StartChar: plusminus
Encoding: 272 177 119
Width: 445
GlyphClass: 2
Flags: MW
HStem: 0 65<50 395 50 395> 264 65<50 190 50 190 255 395>
VStem: 190 65<119 264 119 264 329 469>
LayerCount: 2
Fore
SplineSet
190 264 m 1
 50 264 l 1
 50 329 l 1
 190 329 l 1
 190 469 l 1
 255 469 l 1
 255 329 l 1
 395 329 l 1
 395 264 l 1
 255 264 l 1
 255 119 l 1
 190 119 l 1
 190 264 l 1
395 0 m 1
 50 0 l 1
 50 65 l 1
 395 65 l 1
 395 0 l 1
EndSplineSet
EndChar

StartChar: twosuperior
Encoding: 273 178 120
Width: 296
GlyphClass: 2
Flags: MW
HStem: 319 52<113 281 113 281> 594 51<127 162 107 169.5>
VStem: 211 68<531 561.5>
LayerCount: 2
Fore
SplineSet
281 319 m 1
 11 319 l 1
 18 376 80 421 123 452 c 0
 190 501 211 516 211 546 c 0
 211 577 188 594 151 594 c 0
 103 594 96 574 85 545 c 1
 20 551 l 1
 25 568 l 2
 36 600 62 645 152 645 c 0
 172 645 279 643 279 557 c 0
 279 478 167 425 113 371 c 1
 281 371 l 1
 281 319 l 1
EndSplineSet
EndChar

StartChar: threesuperior
Encoding: 274 179 121
Width: 296
GlyphClass: 2
Flags: MW
HStem: 311 50<119.5 163 119.5 193.5> 467 47<129 146.5> 596 49<125 154.5 107 164>
VStem: 198 67<549 567.5> 213 67<401.5 435.5 385.5 436.5>
LayerCount: 2
Fore
SplineSet
14 404 m 1xe8
 77 410 l 1
 84 392 95 361 144 361 c 0
 182 361 213 384 213 419 c 0
 213 454 186 464 160 466 c 0
 154 467 149 467 144 467 c 0
 136 467 132 467 120 466 c 1xe8
 129 514 l 1
 151 514 198 520 198 558 c 0
 198 577 183 596 145 596 c 0
 105 596 92 577 84 553 c 1
 21 562 l 1
 38 612 68 645 146 645 c 0
 163 645 265 645 265 564 c 0xf0
 265 534 248 506 206 495 c 1
 206 485 280 460 280 411 c 0
 280 360 238 311 149 311 c 0
 63 311 22 351 14 404 c 1xe8
EndSplineSet
EndChar

StartChar: acute
Encoding: 275 180 122
Width: 346
GlyphClass: 2
Flags: MW
HStem: 490 210<110 220 40 306>
VStem: 40 266<490 700>
LayerCount: 2
Fore
SplineSet
220 490 m 1
 40 490 l 1
 110 700 l 1
 306 700 l 1
 220 490 l 1
EndSplineSet
EndChar

StartChar: uni00B5
Encoding: 276 181 123
Width: 495
GlyphClass: 2
Flags: MW
HStem: -11 71<215 258 201.5 285.5> 0 21G<365 434 365 365>
VStem: 60 78<196 266 266 461> 356 78<265 461 0 461>
LayerCount: 2
Fore
SplineSet
139 -177 m 1xb0
 60 -177 l 1
 60 461 l 1
 138 461 l 1
 138 266 l 2
 138 126 157 60 246 60 c 0
 270 60 311 69 338 112 c 0xb0
 356 142 356 186 356 265 c 2
 356 461 l 1
 434 461 l 1
 434 0 l 1
 365 0 l 1x70
 365 54 l 1
 364 54 364 54 363 54 c 0
 349 30 322 -11 249 -11 c 0
 181 -11 156 46 139 46 c 1
 139 -177 l 1xb0
EndSplineSet
EndChar

StartChar: paragraph
Encoding: 277 182 124
Width: 478
GlyphClass: 2
Flags: MW
HStem: 562 75<247 344 247 247 417 480 417 417>
VStem: 174 73<-177 277 277 277> 344 73<-177 562 -177 562>
LayerCount: 2
Fore
SplineSet
-1 454 m 0
 -1 572 84 637 191 637 c 2
 480 637 l 1
 480 562 l 1
 417 562 l 1
 417 -177 l 1
 344 -177 l 1
 344 562 l 1
 247 562 l 1
 247 -177 l 1
 174 -177 l 1
 174 277 l 1
 54 284 -1 365 -1 454 c 0
EndSplineSet
EndChar

StartChar: periodcentered
Encoding: 278 183 125
Width: 180
GlyphClass: 2
Flags: MW
HStem: 230 80<50 130 50 130>
VStem: 50 80<230 310>
LayerCount: 2
Fore
SplineSet
130 230 m 1
 50 230 l 1
 50 310 l 1
 130 310 l 1
 130 230 l 1
EndSplineSet
EndChar

StartChar: cedilla
Encoding: 279 184 126
Width: 452
GlyphClass: 2
Flags: MW
HStem: -209 39<194.5 215.5 185 238.5> -46 46<244 244>
VStem: 254 57<-133 -100>
LayerCount: 2
Fore
SplineSet
141 -193 m 1
 141 -164 l 1
 154 -167 175 -170 195 -170 c 0
 236 -170 254 -148 254 -118 c 0
 254 -82 205 -70 175 -67 c 1
 206 0 l 1
 267 0 l 1
 244 -46 l 1
 267 -54 311 -70 311 -123 c 0
 311 -177 266 -209 211 -209 c 0
 178 -209 155 -200 141 -193 c 1
EndSplineSet
EndChar

StartChar: onesuperior
Encoding: 280 185 127
Width: 296
GlyphClass: 2
Flags: MW
HStem: 319 326<159 206 159 206 143 206>
VStem: 143 63<319 560 560 560>
LayerCount: 2
Fore
SplineSet
46 510 m 1
 46 564 l 1
 87 578 133 610 159 645 c 1
 206 645 l 1
 206 319 l 1
 143 319 l 1
 143 560 l 1
 118 539 79 518 46 510 c 1
EndSplineSet
EndChar

StartChar: ordmasculine
Encoding: 281 186 128
Width: 325
GlyphClass: 2
Flags: MW
HStem: 321 58<123.5 201 123.5 217.5> 590 58<125 201>
VStem: 20 65<475.5 499 475.5 518.5> 240 65<474 494.5>
LayerCount: 2
Fore
SplineSet
20 482 m 0
 20 555 53 648 162 648 c 0
 273 648 305 550 305 485 c 0
 305 418 272 321 163 321 c 0
 68 321 20 395 20 482 c 0
85 484 m 0
 85 467 85 379 162 379 c 0
 240 379 240 461 240 487 c 0
 240 502 240 590 162 590 c 0
 88 590 85 514 85 484 c 0
EndSplineSet
EndChar

StartChar: guillemotright
Encoding: 282 187 129
Width: 495
GlyphClass: 2
Flags: MW
HStem: 31 397<61 125 61 125 61 231 231 295>
VStem: 61 372<31 230 230 428>
LayerCount: 2
Fore
SplineSet
125 31 m 1
 61 31 l 1
 174 230 l 1
 61 428 l 1
 125 428 l 1
 263 230 l 1
 125 31 l 1
295 31 m 1
 231 31 l 1
 344 230 l 1
 231 428 l 1
 295 428 l 1
 433 230 l 1
 295 31 l 1
EndSplineSet
EndChar

StartChar: onequarter
Encoding: 283 188 130
Width: 742
GlyphClass: 2
Flags: MW
HStem: 53 48<495 595 495 595 657 702>
VStem: 152 63<319 560 560 560> 595 62<-13 53 -13 53 101 214 214 214>
LayerCount: 2
Fore
SplineSet
595 101 m 1
 595 214 l 1
 495 101 l 1
 595 101 l 1
55 510 m 1
 55 564 l 1
 93 573 143 614 168 645 c 1
 215 645 l 1
 215 319 l 1
 152 319 l 1
 152 560 l 1
 125 538 89 519 55 510 c 1
657 651 m 1
 178 -22 l 1
 109 -22 l 1
 589 651 l 1
 657 651 l 1
595 -13 m 1
 595 53 l 1
 428 53 l 1
 428 107 l 1
 603 312 l 1
 657 312 l 1
 657 101 l 1
 702 101 l 1
 702 53 l 1
 657 53 l 1
 657 -13 l 1
 595 -13 l 1
EndSplineSet
EndChar

StartChar: onehalf
Encoding: 284 189 131
Width: 742
GlyphClass: 2
Flags: MW
HStem: -13 52<549 717 549 717> 262 51<563 599.5 545 605.5>
VStem: 152 63<319 560 560 560> 647 69<199 229.5>
LayerCount: 2
Fore
SplineSet
717 39 m 1
 717 -13 l 1
 447 -13 l 1
 452 41 519 91 559 120 c 0
 626 168 647 184 647 214 c 0
 647 245 624 262 587 262 c 0
 539 262 533 242 522 213 c 1
 456 219 l 1
 463 240 l 2
 475 272 502 313 588 313 c 0
 611 313 716 310 716 225 c 0
 716 146 602 92 549 39 c 1
 717 39 l 1
55 510 m 1
 55 564 l 1
 93 573 143 614 168 645 c 1
 215 645 l 1
 215 319 l 1
 152 319 l 1
 152 560 l 1
 125 538 89 519 55 510 c 1
645 651 m 1
 167 -22 l 1
 99 -22 l 1
 578 651 l 1
 645 651 l 1
EndSplineSet
EndChar

StartChar: threequarters
Encoding: 285 190 132
Width: 742
GlyphClass: 2
Flags: MW
HStem: 53 48<495 595 495 595 657 702> 311 50<128.5 172 128.5 188.5> 467 47<149 151.5 138 155.5> 596 49<134 166>
VStem: 206 68<549 572> 222 67<401.5 435.5 375.5 436.5> 595 62<-13 53 -13 53 101 214 214 214>
LayerCount: 2
Fore
SplineSet
595 101 m 1xf6
 595 214 l 1
 495 101 l 1
 595 101 l 1xf6
595 -13 m 1
 595 53 l 1
 428 53 l 1
 428 107 l 1
 603 312 l 1
 657 312 l 1
 657 101 l 1
 702 101 l 1
 702 53 l 1
 657 53 l 1
 657 -13 l 1
 595 -13 l 1
23 404 m 1
 86 410 l 1
 93 392 104 361 153 361 c 0
 191 361 222 384 222 419 c 0xf6
 222 454 195 464 169 466 c 0
 163 467 158 467 153 467 c 0
 145 467 141 467 129 466 c 1
 138 514 l 1
 165 514 206 523 206 558 c 0
 206 586 178 596 154 596 c 0
 114 596 101 577 93 553 c 1
 30 562 l 1
 47 612 77 645 155 645 c 0
 208 645 274 630 274 564 c 0xfa
 274 534 256 506 214 495 c 1
 214 485 289 460 289 411 c 0
 289 340 219 311 158 311 c 0
 71 311 31 351 23 404 c 1
657 651 m 1
 178 -22 l 1
 109 -22 l 1
 589 651 l 1
 657 651 l 1
EndSplineSet
EndChar

StartChar: questiondown
Encoding: 286 191 133
Width: 502
GlyphClass: 2
Flags: MW
HStem: -250 80<192.5 294 192.5 312.5> 380 80<232 312 232 312>
VStem: 40 80<-71.5 11.5 -71.5 41> 232 80<290 330 203 330 380 460> 382 80<-20 -20>
LayerCount: 2
Fore
SplineSet
312 380 m 1
 232 380 l 1
 232 460 l 1
 312 460 l 1
 312 380 l 1
40 -49 m 0
 40 131 232 145 232 290 c 2
 232 330 l 1
 312 330 l 1
 312 290 l 2
 312 116 120 61 120 -38 c 0
 120 -105 133 -170 252 -170 c 0
 336 -170 378 -101 382 -20 c 1
 462 -20 l 1
 461 -160 373 -250 252 -250 c 0
 106 -250 40 -170 40 -49 c 0
EndSplineSet
EndChar

StartChar: Aring
Encoding: 292 197 139
Width: 650
GlyphClass: 2
Flags: MW
HStem: 0 21G<10 190 10 10 460 640 460 460> 115 180<280 370 280 425 225 370> 781 47<316.5 333.5 316.5 346.5> 890 47<316.5 333.5>
VStem: 247 47<850.5 867.5 850.5 880.5> 356 47<850.5 867.5>
LayerCount: 2
Fore
SplineSet
370 295 m 1
 325 441 l 1
 280 295 l 1
 370 295 l 1
294 859 m 0
 294 842 308 828 325 828 c 0
 342 828 356 842 356 859 c 0
 356 876 342 890 325 890 c 0
 308 890 294 876 294 859 c 0
460 0 m 1
 425 115 l 1
 225 115 l 1
 190 0 l 1
 10 0 l 1
 218 680 l 1
 430 680 l 1
 640 0 l 1
 460 0 l 1
247 859 m 0
 247 902 282 937 325 937 c 0
 368 937 403 902 403 859 c 0
 403 816 368 781 325 781 c 0
 282 781 247 816 247 859 c 0
EndSplineSet
EndChar

StartChar: AE
Encoding: 293 198 140
Width: 830
GlyphClass: 3
Flags: MW
HStem: 0 80<480 800 480 800> 282 90<200 390 220 390 220 390> 317 80<480 760 480 760> 610 90<290 390 290 290> 620 80<480 800 480 480>
VStem: 390 90<80 282 282 282 397 610 610 610>
LayerCount: 2
Fore
SplineSet
390 610 m 1xd4
 290 610 l 1
 220 372 l 1
 390 372 l 1
 390 610 l 1xd4
200 282 m 1xcc
 120 0 l 1
 30 0 l 1
 240 700 l 1
 800 700 l 1
 800 620 l 1
 480 620 l 1
 480 397 l 1
 760 397 l 1
 760 317 l 1
 480 317 l 1xac
 480 80 l 1
 800 80 l 1
 800 0 l 1
 390 0 l 1
 390 282 l 1
 200 282 l 1xcc
EndSplineSet
EndChar

StartChar: Ccedilla
Encoding: 294 199 141
Width: 645
GlyphClass: 2
Flags: MW
HStem: -209 39<291.5 312.5 282 335.5> -8 21G<300 300> 530 160<306 375.5>
VStem: 30 180<282.5 397.5 282.5 453> 351 57<-133 -100>
LayerCount: 2
Fore
SplineSet
238 -193 m 1
 238 -164 l 1
 251 -167 272 -170 292 -170 c 0
 333 -170 351 -148 351 -118 c 0
 351 -82 302 -70 272 -67 c 1
 300 -8 l 1
 125 11 30 132 30 340 c 0
 30 566 143 690 348 690 c 0
 494 690 594 594 615 444 c 1
 455 444 l 1
 444 502 403 530 348 530 c 0
 264 530 210 455 210 340 c 0
 210 225 264 150 348 150 c 0
 399 150 445 181 455 224 c 1
 615 224 l 1
 595 85 494 -5 359 -10 c 1
 341 -46 l 1
 364 -54 408 -70 408 -123 c 0
 408 -177 363 -209 308 -209 c 0
 275 -209 252 -200 238 -193 c 1
EndSplineSet
EndChar

StartChar: Eth
Encoding: 303 208 150
Width: 660
GlyphClass: 2
Flags: MW
HStem: 0 80<140 328 140 328> 320 80<10 50 10 50 140 290> 620 80<140 328 140 140>
VStem: 50 90<80 320 80 320 80 320 400 620> 520 90<295.5 424>
LayerCount: 2
Fore
SplineSet
290 320 m 1
 140 320 l 1
 140 80 l 1
 328 80 l 2
 478 80 520 241 520 350 c 0
 520 498 477 620 328 620 c 2
 140 620 l 1
 140 400 l 1
 290 400 l 1
 290 320 l 1
50 0 m 1
 50 320 l 1
 10 320 l 1
 10 400 l 1
 50 400 l 1
 50 700 l 1
 328 700 l 2
 528 700 610 534 610 350 c 0
 610 147 519 0 328 0 c 2
 50 0 l 1
EndSplineSet
EndChar

StartChar: Ntilde
Encoding: 304 209 151
Width: 714
GlyphClass: 2
Flags: MW
HStem: 0 21G<50 230 50 50 464 464 464 664> 760 80<462 482 462 492> 800 80<336 356>
VStem: 50 180<0 320 0 680> 484 180<360 680 0 680>
LayerCount: 2
Fore
SplineSet
230 320 m 2xb8
 230 0 l 1
 50 0 l 1
 50 680 l 1
 250 680 l 1
 487 292 l 1
 484 318 484 342 484 360 c 2
 484 680 l 1
 664 680 l 1
 664 0 l 1
 464 0 l 1
 227 388 l 1
 230 362 230 338 230 320 c 2xb8
306 760 m 1xd8
 256 760 l 1
 270 847 306 880 346 880 c 0xb8
 371 880 393 870 415 859 c 0
 431 850 452 840 472 840 c 0xd8
 492 840 507 852 512 880 c 1xb8
 562 880 l 1
 548 793 512 760 472 760 c 0xd8
 447 760 426 769 405 780 c 0
 388 789 366 800 346 800 c 0xb8
 326 800 311 788 306 760 c 1xd8
EndSplineSet
EndChar

StartChar: multiply
Encoding: 310 215 157
Width: 520
GlyphClass: 2
Flags: MW
HStem: 125 380<123 124 124 397>
VStem: 70 379<178 179>
LayerCount: 2
Fore
SplineSet
123 125 m 1
 70 178 l 1
 207 314 l 1
 71 451 l 1
 124 505 l 1
 261 368 l 1
 397 504 l 1
 449 451 l 1
 313 315 l 1
 449 179 l 1
 397 125 l 1
 260 263 l 1
 123 125 l 1
EndSplineSet
EndChar

StartChar: Oslash
Encoding: 311 216 158
Width: 660
GlyphClass: 2
Flags: MW
HStem: -11 80<306 412> -6 21G<84 84> 629 80<266.5 365.5>
VStem: 61 87<325 425 325 454> 529 90<292.5 349 244.5 377>
LayerCount: 2
Fore
SplineSet
148 349 m 0xb8
 148 301 153 255 164 215 c 1
 467 576 l 1
 437 609 395 629 336 629 c 0
 197 629 148 501 148 349 c 0xb8
509 501 m 1
 201 135 l 1
 231 94 275 69 337 69 c 0
 487 69 529 236 529 349 c 0
 529 405 523 457 509 501 c 1
147 69 m 1
 84 -6 l 1x78
 23 45 l 1
 101 138 l 1
 74 196 61 268 61 349 c 0
 61 559 157 709 339 709 c 0
 416 709 477 684 522 640 c 1
 576 705 l 1
 637 654 l 1
 571 575 l 1
 604 514 620 436 620 350 c 1
 619 349 l 1
 619 140 530 -11 343 -11 c 0
 258 -11 193 18 147 69 c 1
EndSplineSet
EndChar

StartChar: germandbls
Encoding: 317 223 164
Width: 536
GlyphClass: 3
Flags: MW
HStem: -10 65<225 274.5 223 310.5> -4 21G<186 186> 327 70<214 230 214 251.5> 635 65<198.5 290.5>
VStem: 45 80<-30 480> 378 80<469.5 546.5> 411 80<135.5 222.5 119 241>
LayerCount: 2
Fore
SplineSet
125 -30 m 1xba
 45 -30 l 1
 45 492 l 2
 45 604 116 700 248 700 c 0
 378 700 458 628 458 518 c 0xbc
 458 421 391 387 365 370 c 1
 445 347 491 255 491 190 c 0
 491 48 382 -10 239 -10 c 0xba
 211 -10 200 -8 186 -4 c 1x7a
 186 63 l 1
 201 58 216 55 230 55 c 0
 319 55 411 81 411 190 c 0xba
 411 292 338 327 230 327 c 2
 214 327 l 1
 214 397 l 1
 289 397 378 416 378 510 c 0xbc
 378 583 334 635 247 635 c 0
 150 635 125 573 125 480 c 2
 125 -30 l 1xba
EndSplineSet
EndChar

StartChar: ae
Encoding: 324 230 171
Width: 757
GlyphClass: 3
Flags: MW
HStem: -10 65<176 211.5 176 217> -10 80<494.5 554 491 583> 210 80<411 650 411 726 410 650> 390 80<502.5 567> 395 65<199 249>
VStem: 30 80<102.5 183.5 102.5 199> 326 83
LayerCount: 2
Fore
SplineSet
110 136 m 0xb6
 110 69 163 55 189 55 c 0
 234 55 307 97 327 141 c 1
 327 176 326 211 326 246 c 1
 292 238 110 231 110 136 c 0xb6
411 290 m 1
 650 290 l 1
 637 358 602 390 532 390 c 0
 473 390 421 353 411 290 c 1
30 128 m 0
 30 270 206 274 327 294 c 1
 327 320 l 2
 327 371 271 395 227 395 c 0
 171 395 124 369 120 320 c 1
 55 320 l 1
 65 413 137 460 228 460 c 0x6e
 284 460 342 446 376 398 c 1
 409 441 460 470 531 470 c 0
 669 470 726 350 726 210 c 1
 410 210 l 1
 417 137 450 70 532 70 c 0x76
 576 70 623 88 646 114 c 1
 708 98 l 1
 693 58 634 -10 532 -10 c 0
 457 -10 410 8 367 74 c 1
 308 21 257 -10 177 -10 c 0
 93 -10 30 43 30 128 c 0
EndSplineSet
EndChar

StartChar: ccedilla
Encoding: 325 231 172
Width: 452
GlyphClass: 2
Flags: MW
HStem: -212 39<192.5 193 193 214.5 187 236.5> -8 21G<202 202 262 262> -8 78<202 202 190.5 262> 390 80<198.5 256>
VStem: 34 79<193 279 193 289> 252 57<-135.5 -103>
LayerCount: 2
Fore
SplineSet
34 230 m 0xdc
 34 348 96 470 234 470 c 0
 328 470 399 420 415 334 c 1
 338 333 l 1
 315 369 279 390 233 390 c 0
 164 390 113 328 113 230 c 0
 113 156 148 70 233 70 c 0
 273 70 303 88 324 114 c 1
 416 114 l 1
 381 55 340 2 262 -8 c 1xbc
 242 -49 l 1
 265 -57 309 -73 309 -126 c 0
 309 -180 264 -212 209 -212 c 0
 176 -212 147 -202 139 -196 c 1
 139 -167 l 1
 150 -170 169 -173 187 -173 c 2
 193 -173 l 2
 236 -173 252 -150 252 -121 c 0
 252 -85 201 -73 173 -70 c 1
 202 -8 l 1
 78 10 34 130 34 230 c 0xdc
EndSplineSet
EndChar

StartChar: divide
Encoding: 340 247 187
Width: 520
GlyphClass: 2
Flags: MW
HStem: 139 80<220 300 220 300> 282 65<49 471 49 471> 409 80<220 300 220 300>
VStem: 220 80<139 219 409 489>
LayerCount: 2
Fore
SplineSet
471 282 m 1
 49 282 l 1
 49 347 l 1
 471 347 l 1
 471 282 l 1
300 139 m 1
 220 139 l 1
 220 219 l 1
 300 219 l 1
 300 139 l 1
300 409 m 1
 220 409 l 1
 220 489 l 1
 300 489 l 1
 300 409 l 1
EndSplineSet
EndChar

StartChar: oslash
Encoding: 341 248 188
Width: 480
GlyphClass: 2
Flags: MW
HStem: -11 65<226.5 275.5 226.5 306> 403 66<204.5 252.5>
VStem: 35 80<211.5 291.5 211.5 298> 364 80<166.5 229 162 242>
LayerCount: 2
Fore
SplineSet
115 228 m 0
 115 195 119 167 126 144 c 1
 319 374 l 1
 298 391 265 403 240 403 c 0
 169 403 115 355 115 228 c 0
358 296 m 1
 172 75 l 1
 191 61 214 54 239 54 c 0
 312 54 364 104 364 229 c 0
 364 255 362 277 358 296 c 1
125 19 m 1
 55 -64 l 1
 -6 -13 l 1
 70 77 l 1
 45 119 35 172 35 229 c 0
 35 367 99 469 240 469 c 0
 292 469 334 455 366 430 c 1
 444 523 l 1
 505 472 l 1
 417 367 l 1
 436 329 445 282 445 230 c 1
 444 229 l 1
 444 95 373 -11 239 -11 c 0
 192 -11 154 0 125 19 c 1
EndSplineSet
EndChar

StartChar: ugrave
Encoding: 342 249 189
Width: 478
GlyphClass: 2
Flags: MW
HStem: -10 65<178 237.5> 0 21G<374 433 374 374> 520 160<207 221 141 271 207 207>
VStem: 45 80<165 460> 354 79<154 460 0 460>
LayerCount: 2
Fore
SplineSet
354 154 m 1xb8
 354 460 l 1
 433 460 l 1
 433 0 l 1
 374 0 l 1x78
 357 83 l 1
 323 36 275 -10 200 -10 c 0
 51 -10 45 98 45 165 c 2
 45 460 l 1
 125 460 l 1
 125 165 l 2
 125 121 134 55 222 55 c 0
 266 55 330 90 354 154 c 1xb8
271 520 m 1
 207 520 l 1
 141 680 l 1
 221 680 l 1
 271 520 l 1
EndSplineSet
EndChar

StartChar: uacute
Encoding: 343 250 190
Width: 478
GlyphClass: 2
Flags: MW
HStem: -10 65<178 237.5> 0 21G<374 433 374 374> 520 160<257 271 207 337>
VStem: 45 80<165 460> 354 79<154 460 0 460>
LayerCount: 2
Fore
SplineSet
354 154 m 1xb8
 354 460 l 1
 433 460 l 1
 433 0 l 1
 374 0 l 1x78
 357 83 l 1
 323 36 275 -10 200 -10 c 0
 51 -10 45 98 45 165 c 2
 45 460 l 1
 125 460 l 1
 125 165 l 2
 125 121 134 55 222 55 c 0
 266 55 330 90 354 154 c 1xb8
337 680 m 1
 271 520 l 1
 207 520 l 1
 257 680 l 1
 337 680 l 1
EndSplineSet
EndChar

StartChar: ucircumflex
Encoding: 344 251 191
Width: 478
GlyphClass: 2
Flags: MW
HStem: -10 65<178 237.5> 0 21G<374 433 374 374> 520 180<69 309 69 309 169 315 169 409> 610 90<239 239>
VStem: 45 80<165 460> 354 79<154 460 0 460>
LayerCount: 2
Fore
SplineSet
354 154 m 1xac
 354 460 l 1
 433 460 l 1
 433 0 l 1
 374 0 l 1x5c
 357 83 l 1
 323 36 275 -10 200 -10 c 0
 51 -10 45 98 45 165 c 2
 45 460 l 1
 125 460 l 1
 125 165 l 2
 125 121 134 55 222 55 c 0
 266 55 330 90 354 154 c 1xac
239 610 m 1
 163 520 l 1
 69 520 l 1
 169 700 l 1
 309 700 l 1
 409 520 l 1
 315 520 l 1xac
 239 610 l 1
EndSplineSet
EndChar

StartChar: udieresis
Encoding: 345 252 192
Width: 478
GlyphClass: 2
Flags: MW
HStem: -10 65<178 237.5> 0 21G<374 433 374 374> 560 80<120 200 120 200 120 278 278 358>
VStem: 45 80<165 460> 120 80<560 640 560 640> 278 80<560 640 560 640> 354 79<154 460 0 460>
LayerCount: 2
Fore
SplineSet
354 154 m 1xb2
 354 460 l 1
 433 460 l 1
 433 0 l 1
 374 0 l 1x6a
 357 83 l 1
 323 36 275 -10 200 -10 c 0
 51 -10 45 98 45 165 c 2
 45 460 l 1
 125 460 l 1
 125 165 l 2
 125 121 134 55 222 55 c 0
 266 55 330 90 354 154 c 1xb2
200 640 m 1
 200 560 l 1
 120 560 l 1
 120 640 l 1
 200 640 l 1
358 640 m 1xb4
 358 560 l 1
 278 560 l 1
 278 640 l 1
 358 640 l 1xb4
EndSplineSet
EndChar

StartChar: yacute
Encoding: 346 253 193
Width: 470
GlyphClass: 2
Flags: MW
HStem: -200 65<134 147.5 121 192.5> 530 180<253 267 203 333>
VStem: 35 400<460 460>
LayerCount: 2
Fore
SplineSet
267 530 m 1
 203 530 l 1
 253 710 l 1
 333 710 l 1
 267 530 l 1
203 -12 m 1
 35 460 l 1
 115 460 l 1
 244 98 l 1
 359 460 l 1
 435 460 l 1
 263 -49 l 2
 257 -67 230 -200 155 -200 c 0
 113 -200 94 -198 63 -190 c 1
 63 -120 l 1
 83 -129 99 -135 121 -135 c 2
 127 -135 l 2
 168 -135 192 -54 203 -12 c 1
EndSplineSet
EndChar

StartChar: ydieresis
Encoding: 347 255 194
Width: 460
GlyphClass: 2
Flags: MW
HStem: -200 65<129 142.5 116 187.5> 520 80<111 191 111 191 111 268 268 348>
VStem: 111 80<520 600> 268 80<520 600>
LayerCount: 2
Fore
SplineSet
30 460 m 1
 110 460 l 1
 137 398 216 219 239 98 c 1
 354 460 l 1
 430 460 l 1
 258 -49 l 2
 252 -67 225 -200 150 -200 c 0
 108 -200 89 -198 58 -190 c 1
 58 -120 l 1
 78 -129 94 -135 116 -135 c 2
 122 -135 l 2
 163 -135 187 -54 198 -12 c 1
 172 145 70 374 30 460 c 1
191 520 m 1
 111 520 l 1
 111 600 l 1
 191 600 l 1
 191 520 l 1
348 520 m 1
 268 520 l 1
 268 600 l 1
 348 600 l 1
 348 520 l 1
EndSplineSet
EndChar

StartChar: Abreve
Encoding: 350 258 197
Width: 570
GlyphClass: 2
Flags: MW
HStem: 0 21G<-30 150 -30 -30 420 600 420 420> 115 180<240 330 240 385 185 330> 750 60<267.5 302.5 267.5 325>
VStem: 130 80<860 890 860 890> 360 80<860 890>
LayerCount: 2
Fore
SplineSet
330 295 m 1
 285 441 l 1
 240 295 l 1
 330 295 l 1
420 0 m 1
 385 115 l 1
 185 115 l 1
 150 0 l 1
 -30 0 l 1
 178 680 l 1
 390 680 l 1
 600 0 l 1
 420 0 l 1
130 890 m 1
 210 890 l 1
 210 830 250 810 285 810 c 0
 320 810 360 830 360 890 c 1
 440 890 l 1
 440 790 365 750 285 750 c 0
 205 750 130 790 130 890 c 1
EndSplineSet
EndChar

StartChar: Aogonek
Encoding: 352 260 199
Width: 560
GlyphClass: 2
Flags: MW
HStem: -209 55<465 471> 0 21G<20 110 20 20 442 450 450 450 500 500 500 540> 282 90<210 350 210 370 190 350> 610 90<280 280> 680 20G<230 330 330 330>
VStem: 371 61<-121.5 -97>
LayerCount: 2
Fore
SplineSet
350 372 m 1
 280 610 l 1
 210 372 l 1
 350 372 l 1
371 -124 m 0
 371 -70 408 -25 442 0 c 1
 450 0 l 1
 370 282 l 1
 190 282 l 1
 110 0 l 1
 20 0 l 1
 230 700 l 1
 330 700 l 1
 540 0 l 1
 500 0 l 1
 459 -31 432 -69 432 -108 c 0
 432 -135 452 -154 478 -154 c 0
 492 -154 507 -149 518 -141 c 1
 540 -182 l 1
 527 -191 l 2
 508 -202 481 -209 461 -209 c 0
 411 -209 371 -180 371 -124 c 0
EndSplineSet
EndChar

StartChar: aogonek
Encoding: 353 261 200
Width: 493
GlyphClass: 2
Flags: MW
HStem: -209 55<388 394> -10 70<184.5 226 184.5 229.5> 0 21G<365 373 373 373 423 423 423 463> 405 65<214.5 263>
VStem: 45 80<101.5 178.5 101.5 203.5> 294 61<-121.5 -97> 342 81<319 330 330 356.5>
LayerCount: 2
Fore
SplineSet
125 126 m 0xda
 125 77 165 60 204 60 c 0
 248 60 326 116 342 141 c 1
 342 245 l 1
 289 219 125 231 125 126 c 0xda
294 -124 m 0xbc
 294 -70 331 -25 365 0 c 1
 373 0 l 1xbc
 354 26 349 34 342 74 c 1
 310 37 267 -10 192 -10 c 0xda
 108 -10 45 43 45 128 c 0
 45 279 252 269 342 294 c 1
 342 330 l 2
 342 383 284 405 242 405 c 0
 187 405 139 378 135 330 c 1
 70 330 l 1
 77 417 154 470 243 470 c 0
 340 470 423 432 423 319 c 2
 422 86 l 2
 422 54 439 26 463 0 c 1
 423 0 l 1xba
 382 -31 355 -69 355 -108 c 0
 355 -135 375 -154 401 -154 c 0
 415 -154 430 -149 441 -141 c 1
 463 -182 l 1
 450 -191 l 2
 431 -202 404 -209 384 -209 c 0
 334 -209 294 -180 294 -124 c 0xbc
EndSplineSet
EndChar

StartChar: Cacute
Encoding: 354 262 201
Width: 645
GlyphClass: 2
Flags: MW
HStem: -10 160<306 373.5 306 418> 530 160<306 375.5> 710 210<321 431 251 517>
VStem: 30 180<282.5 397.5 282.5 453>
LayerCount: 2
Fore
SplineSet
348 530 m 0
 264 530 210 455 210 340 c 0
 210 225 264 150 348 150 c 0
 399 150 445 181 455 224 c 1
 615 224 l 1
 594 81 488 -10 348 -10 c 0
 143 -10 30 114 30 340 c 0
 30 566 143 690 348 690 c 0
 494 690 594 594 615 444 c 1
 455 444 l 1
 444 502 403 530 348 530 c 0
517 920 m 1xf0
 431 710 l 1
 251 710 l 1
 321 920 l 1
 517 920 l 1xf0
EndSplineSet
EndChar

StartChar: cacute
Encoding: 355 263 202
Width: 510
GlyphClass: 2
Flags: MW
HStem: -10 68<209.5 297.5 209.5 323> 402 68<213.5 298.5> 520 160<273 287 223 353>
VStem: 50 84<188.5 282.5 188.5 289>
LayerCount: 2
Fore
SplineSet
287 520 m 1
 223 520 l 1
 273 680 l 1
 353 680 l 1
 287 520 l 1
50 230 m 0
 50 348 95 470 259 470 c 0
 378 470 437 405 459 320 c 1
 370 320 l 1
 367 335 338 402 259 402 c 0
 168 402 134 335 134 230 c 0
 134 147 160 58 259 58 c 0
 336 58 365 118 372 150 c 1
 460 150 l 1
 440 79 387 -10 259 -10 c 0
 94 -10 50 122 50 230 c 0
EndSplineSet
EndChar

StartChar: Ccircumflex
Encoding: 356 264 203
Width: 645
GlyphClass: 2
Flags: MW
HStem: -10 160<306 373.5 306 418> 530 160<306 375.5> 740 180<170 410 170 410 270 416 270 510>
VStem: 30 180<282.5 397.5 282.5 453>
LayerCount: 2
Fore
SplineSet
348 530 m 0
 264 530 210 455 210 340 c 0
 210 225 264 150 348 150 c 0
 399 150 445 181 455 224 c 1
 615 224 l 1
 594 81 488 -10 348 -10 c 0
 143 -10 30 114 30 340 c 0
 30 566 143 690 348 690 c 0
 494 690 594 594 615 444 c 1
 455 444 l 1
 444 502 403 530 348 530 c 0
340 830 m 1
 264 740 l 1
 170 740 l 1
 270 920 l 1
 410 920 l 1
 510 740 l 1
 416 740 l 1
 340 830 l 1
EndSplineSet
EndChar

StartChar: ccircumflex
Encoding: 357 265 204
Width: 510
GlyphClass: 2
Flags: MW
HStem: -10 68<209.5 297.5 209.5 323> 402 68<213.5 298.5> 520 180<85 325 85 325 185 331 185 425> 610 90<255 255>
VStem: 50 84<188.5 282.5 188.5 289>
LayerCount: 2
Fore
SplineSet
50 230 m 0xe8
 50 348 95 470 259 470 c 0
 378 470 437 405 459 320 c 1
 370 320 l 1
 367 335 338 402 259 402 c 0
 168 402 134 335 134 230 c 0
 134 147 160 58 259 58 c 0
 336 58 365 118 372 150 c 1
 460 150 l 1
 440 79 387 -10 259 -10 c 0
 94 -10 50 122 50 230 c 0xe8
255 610 m 1xd8
 179 520 l 1
 85 520 l 1
 185 700 l 1
 325 700 l 1
 425 520 l 1
 331 520 l 1xe8
 255 610 l 1xd8
EndSplineSet
EndChar

StartChar: Cdotaccent
Encoding: 358 266 205
Width: 645
GlyphClass: 2
Flags: MW
HStem: -10 160<306 373.5 306 418> 530 160<306 375.5> 740 140<250 430 250 430>
VStem: 30 180<282.5 397.5 282.5 453> 250 180<740 880 740 880>
LayerCount: 2
Fore
SplineSet
348 530 m 0
 264 530 210 455 210 340 c 0
 210 225 264 150 348 150 c 0
 399 150 445 181 455 224 c 1
 615 224 l 1
 594 81 488 -10 348 -10 c 0
 143 -10 30 114 30 340 c 0
 30 566 143 690 348 690 c 0
 494 690 594 594 615 444 c 1
 455 444 l 1
 444 502 403 530 348 530 c 0
430 880 m 1
 430 740 l 1
 250 740 l 1
 250 880 l 1
 430 880 l 1
EndSplineSet
EndChar

StartChar: cdotaccent
Encoding: 359 267 206
Width: 510
GlyphClass: 2
Flags: MW
HStem: -10 68<209.5 297.5 209.5 323> 402 68<213.5 298.5> 560 140<215 395 215 395>
VStem: 50 84<188.5 282.5 188.5 289> 215 180<560 700 560 700>
LayerCount: 2
Fore
SplineSet
395 560 m 1
 215 560 l 1
 215 700 l 1
 395 700 l 1
 395 560 l 1
50 230 m 0
 50 348 95 470 259 470 c 0
 378 470 437 405 459 320 c 1
 370 320 l 1
 367 335 338 402 259 402 c 0
 168 402 134 335 134 230 c 0
 134 147 160 58 259 58 c 0
 336 58 365 118 372 150 c 1
 460 150 l 1
 440 79 387 -10 259 -10 c 0
 94 -10 50 122 50 230 c 0
EndSplineSet
EndChar

StartChar: Ccaron
Encoding: 360 268 207
Width: 645
GlyphClass: 2
Flags: MW
HStem: -10 160<306 373.5 306 418> 530 160<306 375.5> 740 160<200 380 200 300>
VStem: 30 180<282.5 397.5 282.5 453>
LayerCount: 2
Fore
SplineSet
348 530 m 0
 264 530 210 455 210 340 c 0
 210 225 264 150 348 150 c 0
 399 150 445 181 455 224 c 1
 615 224 l 1
 594 81 488 -10 348 -10 c 0
 143 -10 30 114 30 340 c 0
 30 566 143 690 348 690 c 0
 494 690 594 594 615 444 c 1
 455 444 l 1
 444 502 403 530 348 530 c 0
380 740 m 1
 300 740 l 1
 200 900 l 1
 264 900 l 1
 340 815 l 1
 416 900 l 1
 480 900 l 1
 380 740 l 1
EndSplineSet
EndChar

StartChar: ccaron
Encoding: 361 269 208
Width: 510
GlyphClass: 2
Flags: MW
HStem: -10 68<209.5 297.5 209.5 323> 402 68<213.5 298.5> 520 160<115 295 115 215>
VStem: 50 84<188.5 282.5 188.5 289>
LayerCount: 2
Fore
SplineSet
50 230 m 0
 50 348 95 470 259 470 c 0
 378 470 437 405 459 320 c 1
 370 320 l 1
 367 335 338 402 259 402 c 0
 168 402 134 335 134 230 c 0
 134 147 160 58 259 58 c 0
 336 58 365 118 372 150 c 1
 460 150 l 1
 440 79 387 -10 259 -10 c 0
 94 -10 50 122 50 230 c 0
295 520 m 1
 215 520 l 1
 115 680 l 1
 179 680 l 1
 255 595 l 1
 331 680 l 1
 395 680 l 1
 295 520 l 1
EndSplineSet
EndChar

StartChar: Dcaron
Encoding: 362 270 209
Width: 640
GlyphClass: 2
Flags: MW
HStem: 0 160<230 308 230 308> 520 160<230 230 230 308> 760 160<180 360 180 280>
VStem: 50 180<160 520 160 680 160 680> 430 180<286.5 411.5>
LayerCount: 2
Fore
SplineSet
230 520 m 1
 230 160 l 1
 308 160 l 2
 375 160 430 233 430 340 c 0
 430 483 377 520 308 520 c 2
 230 520 l 1
50 680 m 1
 308 680 l 2
 498 680 610 564 610 340 c 0
 610 113 499 0 308 0 c 2
 50 0 l 1
 50 680 l 1
360 760 m 1
 280 760 l 1
 180 920 l 1
 244 920 l 1
 320 835 l 1
 396 920 l 1
 460 920 l 1
 360 760 l 1
EndSplineSet
EndChar

StartChar: dcaron
Encoding: 363 271 210
Width: 491
GlyphClass: 2
Flags: MW
HStem: -10 65<200.5 254> 0 21G<366 446 366 366> 405 66<190 256 159 287.5> 620 80<536 558>
VStem: 35 80<176.5 230> 366 80<0 72 72 72 381 700 0 700> 536 80<620 700>
LayerCount: 2
Fore
SplineSet
115 230 m 0xbe
 115 123 156 55 245 55 c 0
 324 55 365 123 365 230 c 0
 365 321 330 405 245 405 c 0
 135 405 115 305 115 230 c 0xbe
35 230 m 1
 36 231 l 1
 36 345 92 471 226 471 c 0
 286 471 338 437 366 381 c 1
 366 700 l 1
 446 700 l 1
 446 0 l 1
 366 0 l 1x7e
 366 72 l 1
 343 21 283 -10 225 -10 c 0
 96 -10 35 100 35 230 c 1
616 620 m 1
 570 490 l 1
 536 490 l 1
 558 620 l 1
 536 620 l 1
 536 700 l 1
 616 700 l 1
 616 620 l 1
EndSplineSet
EndChar

StartChar: Dcroat
Encoding: 364 272 211
Width: 705
GlyphClass: 2
Flags: MW
HStem: 0 80<190 378 190 378> 320 80<20 100 20 100 190 240> 620 80<190 378 190 190>
VStem: 100 90<80 320 80 320 80 320 400 620> 570 90<295.5 424>
LayerCount: 2
Fore
SplineSet
240 320 m 1
 190 320 l 1
 190 80 l 1
 378 80 l 2
 528 80 570 241 570 350 c 0
 570 498 527 620 378 620 c 2
 190 620 l 1
 190 400 l 1
 240 400 l 1
 240 320 l 1
100 0 m 1
 100 320 l 1
 20 320 l 1
 20 400 l 1
 100 400 l 1
 100 700 l 1
 378 700 l 2
 568 700 660 550 660 350 c 0
 660 147 569 0 378 0 c 2
 100 0 l 1
EndSplineSet
EndChar

StartChar: dcroat
Encoding: 365 273 212
Width: 491
GlyphClass: 2
Flags: MW
HStem: -10 80<205.5 254> 0 21G<366 446 366 366> 390 81<202 256 164 287.5> 530 80<250 366 250 366 446 490> 530 170<250 446 250 446 366 446 366 490>
VStem: 35 80<181 230> 366 80<0 72 72 72 381 530 0 530 610 700>
LayerCount: 2
Fore
SplineSet
115 230 m 0xb6
 115 132 166 70 245 70 c 0
 314 70 365 132 365 230 c 0
 365 304 330 390 245 390 c 0
 159 390 115 309 115 230 c 0xb6
35 230 m 1
 36 231 l 1
 36 345 102 471 226 471 c 0
 286 471 338 437 366 381 c 1
 366 530 l 1
 250 530 l 1
 250 610 l 1
 366 610 l 1xb6
 366 700 l 1
 446 700 l 1xae
 446 610 l 1
 490 610 l 1
 490 530 l 1
 446 530 l 1
 446 0 l 1
 366 0 l 1x76
 366 72 l 1
 343 21 283 -10 225 -10 c 0
 95 -10 35 111 35 230 c 1
EndSplineSet
EndChar

StartChar: Emacron
Encoding: 366 274 213
Width: 510
GlyphClass: 2
Flags: MW
HStem: 0 150<230 460 230 460> 270 150<230 420 230 420> 530 150<230 460 230 230> 790 70<120 390 120 390>
VStem: 50 180<150 270 150 420 420 530> 120 270<790 860 790 860>
LayerCount: 2
Fore
SplineSet
420 270 m 1xf8
 230 270 l 1
 230 150 l 1
 460 150 l 1
 460 0 l 1
 50 0 l 1
 50 680 l 1
 460 680 l 1
 460 530 l 1
 230 530 l 1
 230 420 l 1
 420 420 l 1
 420 270 l 1xf8
390 860 m 1xf4
 390 790 l 1
 120 790 l 1
 120 860 l 1
 390 860 l 1xf4
EndSplineSet
EndChar

StartChar: emacron
Encoding: 367 275 214
Width: 518
GlyphClass: 2
Flags: MW
HStem: -10 68<219 294 219 334> 210 68<139 379 139 468 134 379> 402 68<203 315> 570 70<125 395 125 395>
VStem: 50 84<180 210 175 300> 379 89<210 278>
LayerCount: 2
Fore
SplineSet
139 278 m 1
 379 278 l 1
 379 278 371 402 259 402 c 0
 147 402 139 278 139 278 c 1
50 240 m 0
 50 360 119 470 259 470 c 0
 399 470 468 360 468 240 c 2
 468 210 l 1
 134 210 l 1
 134 140 179 58 259 58 c 0
 329 58 365 98 375 142 c 1
 458 142 l 1
 443 73 409 -10 259 -10 c 0
 109 -10 50 120 50 240 c 0
395 640 m 1
 395 570 l 1
 125 570 l 1
 125 640 l 1
 395 640 l 1
EndSplineSet
EndChar

StartChar: Ebreve
Encoding: 368 276 215
Width: 510
GlyphClass: 2
Flags: MW
HStem: 0 150<230 460 230 460> 270 150<230 420 230 420> 530 150<230 460 230 230> 740 60<237.5 272.5 237.5 295>
VStem: 50 180<150 270 150 420 420 530> 100 80<850 880 850 880> 330 80<850 880>
LayerCount: 2
Fore
SplineSet
420 270 m 1xf6
 230 270 l 1
 230 150 l 1
 460 150 l 1
 460 0 l 1
 50 0 l 1
 50 680 l 1
 460 680 l 1
 460 530 l 1
 230 530 l 1
 230 420 l 1xfa
 420 420 l 1
 420 270 l 1xf6
100 880 m 1xf6
 180 880 l 1
 180 820 220 800 255 800 c 0
 290 800 330 820 330 880 c 1
 410 880 l 1
 410 780 335 740 255 740 c 0
 175 740 100 780 100 880 c 1xf6
EndSplineSet
EndChar

StartChar: ebreve
Encoding: 369 277 216
Width: 518
GlyphClass: 2
Flags: MW
HStem: -10 68<219 294 219 334> 210 68<139 379 139 468 134 379> 402 68<203 315> 520 60<242.5 277.5 242.5 300>
VStem: 50 84<180 210 175 300> 105 80<630 660 630 660> 335 80<630 660> 379 89<210 278>
LayerCount: 2
Fore
SplineSet
139 278 m 1xf9
 379 278 l 1
 379 278 371 402 259 402 c 0
 147 402 139 278 139 278 c 1xf9
50 240 m 0
 50 360 119 470 259 470 c 0
 399 470 468 360 468 240 c 2
 468 210 l 1
 134 210 l 1
 134 140 179 58 259 58 c 0
 329 58 365 98 375 142 c 1
 458 142 l 1
 443 73 409 -10 259 -10 c 0
 109 -10 50 120 50 240 c 0
105 660 m 1xf6
 185 660 l 1
 185 600 225 580 260 580 c 0
 295 580 335 600 335 660 c 1
 415 660 l 1
 415 560 340 520 260 520 c 0
 180 520 105 560 105 660 c 1xf6
EndSplineSet
EndChar

StartChar: Edotaccent
Encoding: 370 278 217
Width: 510
GlyphClass: 2
Flags: MW
HStem: 0 150<230 460 230 460> 270 150<230 420 230 420> 530 150<230 460 230 230> 740 140<165 345 165 345>
VStem: 50 180<150 270 150 420 420 530> 165 180<740 880 740 880>
LayerCount: 2
Fore
SplineSet
420 270 m 1xf8
 230 270 l 1
 230 150 l 1
 460 150 l 1
 460 0 l 1
 50 0 l 1
 50 680 l 1
 460 680 l 1
 460 530 l 1
 230 530 l 1
 230 420 l 1
 420 420 l 1
 420 270 l 1xf8
345 880 m 1xf4
 345 740 l 1
 165 740 l 1
 165 880 l 1
 345 880 l 1xf4
EndSplineSet
EndChar

StartChar: edotaccent
Encoding: 371 279 218
Width: 518
GlyphClass: 2
Flags: MW
HStem: -10 68<219 294 219 334> 210 68<139 379 139 468 134 379> 402 68<203 315> 560 140<220 400 220 400>
VStem: 50 84<180 210 175 300> 220 180<560 700 560 700> 379 89<210 278>
LayerCount: 2
Fore
SplineSet
139 278 m 1xfa
 379 278 l 1
 379 278 371 402 259 402 c 0
 147 402 139 278 139 278 c 1xfa
50 240 m 0
 50 360 119 470 259 470 c 0
 399 470 468 360 468 240 c 2
 468 210 l 1
 134 210 l 1
 134 140 179 58 259 58 c 0
 329 58 365 98 375 142 c 1
 458 142 l 1
 443 73 409 -10 259 -10 c 0
 109 -10 50 120 50 240 c 0
400 700 m 1xfc
 400 560 l 1
 220 560 l 1
 220 700 l 1
 400 700 l 1xfc
EndSplineSet
EndChar

StartChar: Eogonek
Encoding: 372 280 219
Width: 510
GlyphClass: 2
Flags: MW
HStem: -205 55<279 286.5> 0 80<140 250 308 460 308 308> 317 80<140 420 140 420> 620 80<140 460 140 140>
VStem: 50 90<80 317 397 620> 184 61<-119.5 -94.5>
LayerCount: 2
Fore
SplineSet
460 80 m 1
 460 0 l 1
 308 0 l 1
 268 -31 245 -67 245 -104 c 0
 245 -135 267 -150 291 -150 c 0
 307 -150 320 -145 331 -137 c 1
 353 -178 l 1
 334 -193 299 -205 274 -205 c 0
 224 -205 184 -176 184 -120 c 0
 184 -69 218 -26 250 0 c 1
 50 0 l 1
 50 700 l 1
 460 700 l 1
 460 620 l 1
 140 620 l 1
 140 397 l 1
 420 397 l 1
 420 317 l 1
 140 317 l 1
 140 80 l 1
 460 80 l 1
EndSplineSet
EndChar

StartChar: eogonek
Encoding: 373 281 220
Width: 471
GlyphClass: 2
Flags: MW
HStem: -215 55<236 243.5> -8 21G -8 78 210 80<119 358 119 435 119 358> 390 80<210.5 275>
VStem: 34 85<210 210 210 290 210 294> 141 61<-129.5 -104>
LayerCount: 2
Fore
SplineSet
119 290 m 1xde
 358 290 l 1
 345 358 310 390 240 390 c 0
 181 390 129 353 119 290 c 1xde
34 240 m 0
 34 348 95 470 240 470 c 0
 379 470 435 350 435 210 c 1
 119 210 l 1
 126 141 157 70 241 70 c 0xbe
 285 70 332 88 355 114 c 1
 416 98 l 1
 401 62 352 2 267 -8 c 1
 226 -40 202 -76 202 -114 c 0
 202 -145 224 -160 248 -160 c 0
 264 -160 277 -155 288 -147 c 1
 310 -188 l 1
 291 -203 256 -215 231 -215 c 0
 181 -215 141 -186 141 -130 c 0
 141 -78 177 -34 209 -8 c 1
 77 8 34 130 34 240 c 0
EndSplineSet
EndChar

StartChar: Ecaron
Encoding: 374 282 221
Width: 510
GlyphClass: 2
Flags: MW
HStem: 0 150<230 460 230 460> 270 150<230 420 230 420> 530 150<230 460 230 230> 740 160<115 295 115 215>
VStem: 50 180<150 270 150 420 420 530>
LayerCount: 2
Fore
SplineSet
420 270 m 1
 230 270 l 1
 230 150 l 1
 460 150 l 1
 460 0 l 1
 50 0 l 1
 50 680 l 1
 460 680 l 1
 460 530 l 1
 230 530 l 1
 230 420 l 1
 420 420 l 1
 420 270 l 1
295 740 m 1
 215 740 l 1
 115 900 l 1
 179 900 l 1
 255 815 l 1
 331 900 l 1
 395 900 l 1
 295 740 l 1
EndSplineSet
EndChar

StartChar: ecaron
Encoding: 375 283 222
Width: 518
GlyphClass: 2
Flags: MW
HStem: -10 68<219 294 219 334> 210 68<139 379 139 468 134 379> 402 68<203 315> 520 160<120 300 120 220>
VStem: 50 84<180 210 175 300> 379 89<210 278>
LayerCount: 2
Fore
SplineSet
139 278 m 1
 379 278 l 1
 379 278 371 402 259 402 c 0
 147 402 139 278 139 278 c 1
50 240 m 0
 50 360 119 470 259 470 c 0
 399 470 468 360 468 240 c 2
 468 210 l 1
 134 210 l 1
 134 140 179 58 259 58 c 0
 329 58 365 98 375 142 c 1
 458 142 l 1
 443 73 409 -10 259 -10 c 0
 109 -10 50 120 50 240 c 0
300 520 m 1
 220 520 l 1
 120 680 l 1
 184 680 l 1
 260 595 l 1
 336 680 l 1
 400 680 l 1
 300 520 l 1
EndSplineSet
EndChar

StartChar: Gcircumflex
Encoding: 376 284 223
Width: 647
GlyphClass: 2
Flags: MW
HStem: -10 160<306 366.5> 0 150<306 607 306 457> 230 120<347 457 347 607> 530 160<306 375.5> 740 180<150 390 150 390 250 396 250 490>
VStem: 30 180<282.5 397.5 282.5 453> 457 150<0 23 23 23 212 230 230 230>
LayerCount: 2
Fore
SplineSet
348 530 m 0xbe
 264 530 210 455 210 340 c 0
 210 225 264 150 348 150 c 0
 397 150 437 172 457 212 c 1xbe
 457 230 l 1
 347 230 l 1
 347 350 l 1
 607 350 l 1
 607 0 l 1
 457 0 l 1x7e
 457 23 l 1
 432 4 385 -10 348 -10 c 0
 143 -10 30 114 30 340 c 0
 30 566 143 690 348 690 c 0
 494 690 594 594 615 444 c 1
 455 444 l 1
 444 502 403 530 348 530 c 0xbe
320 830 m 1
 244 740 l 1
 150 740 l 1
 250 920 l 1
 390 920 l 1
 490 740 l 1
 396 740 l 1
 320 830 l 1
EndSplineSet
EndChar

StartChar: gcircumflex
Encoding: 377 285 224
Width: 492
GlyphClass: 2
Flags: MW
HStem: -200 66<225 280 225 303> -1 66<193.5 256.5> 405 65<201 255 161 278.5> 520 180<71 311 71 311 171 317 171 411> 610 90<241 241>
VStem: 35 80<194.5 283.5 194.5 292.5> 367 80<27 89 89 89 210 245 245 296 388 388>
LayerCount: 2
Fore
SplineSet
115 230 m 0xee
 115 159 141 65 246 65 c 0
 331 65 367 143 367 210 c 2
 367 245 l 2
 367 347 311 405 246 405 c 0
 156 405 115 337 115 230 c 0xee
35 230 m 0
 35 355 96 470 226 470 c 0
 284 470 344 439 367 388 c 1
 387 459 l 1
 447 459 l 1
 447 27 l 2
 447 -146 362 -200 244 -200 c 0
 114 -200 62 -106 52 -54 c 1
 135 -54 l 1
 153 -113 206 -134 244 -134 c 0
 316 -134 367 -91 367 27 c 2
 367 89 l 1
 339 33 286 -1 227 -1 c 0
 56 -1 35 144 35 230 c 0
241 610 m 1
 165 520 l 1
 71 520 l 1
 171 700 l 1
 311 700 l 1
 411 520 l 1
 317 520 l 1xf6
 241 610 l 1
EndSplineSet
EndChar

StartChar: Gbreve
Encoding: 378 286 225
Width: 647
GlyphClass: 2
Flags: MW
HStem: -10 160<306 366.5> 0 150<306 607 306 457> 230 120<347 457 347 607> 530 160<306 375.5> 740 60<302.5 337.5 302.5 360>
VStem: 30 180<282.5 397.5 282.5 453> 165 80<850 880 850 880> 395 80<850 880> 457 150<0 23 23 23 212 230 230 230>
LayerCount: 2
Fore
SplineSet
348 530 m 0xbc80
 264 530 210 455 210 340 c 0
 210 225 264 150 348 150 c 0
 397 150 437 172 457 212 c 1xbc80
 457 230 l 1
 347 230 l 1
 347 350 l 1
 607 350 l 1
 607 0 l 1
 457 0 l 1x7a80
 457 23 l 1
 432 4 385 -10 348 -10 c 0
 143 -10 30 114 30 340 c 0
 30 566 143 690 348 690 c 0
 494 690 594 594 615 444 c 1
 455 444 l 1
 444 502 403 530 348 530 c 0xbc80
165 880 m 1xbb
 245 880 l 1
 245 820 285 800 320 800 c 0
 355 800 395 820 395 880 c 1
 475 880 l 1
 475 780 400 740 320 740 c 0
 240 740 165 780 165 880 c 1xbb
EndSplineSet
EndChar

StartChar: gbreve
Encoding: 379 287 226
Width: 492
GlyphClass: 2
Flags: MW
HStem: -200 66<225 280 225 303> -1 66<193.5 256.5> 405 65<201 255 161 278.5> 520 60<223.5 258.5 223.5 281>
VStem: 35 80<194.5 283.5 194.5 292.5> 86 80<630 660 630 660> 316 80<630 660> 367 80<27 89 89 89 210 245 245 296 388 388>
LayerCount: 2
Fore
SplineSet
115 230 m 0xf9
 115 159 141 65 246 65 c 0
 331 65 367 143 367 210 c 2
 367 245 l 2
 367 347 311 405 246 405 c 0
 156 405 115 337 115 230 c 0xf9
35 230 m 0
 35 355 96 470 226 470 c 0
 284 470 344 439 367 388 c 1
 387 459 l 1
 447 459 l 1
 447 27 l 2xf9
 447 -146 362 -200 244 -200 c 0
 114 -200 62 -106 52 -54 c 1
 135 -54 l 1
 153 -113 206 -134 244 -134 c 0xfa
 316 -134 367 -91 367 27 c 2
 367 89 l 1
 339 33 286 -1 227 -1 c 0
 56 -1 35 144 35 230 c 0
86 660 m 1xf6
 166 660 l 1
 166 600 206 580 241 580 c 0
 276 580 316 600 316 660 c 1
 396 660 l 1
 396 560 321 520 241 520 c 0
 161 520 86 560 86 660 c 1xf6
EndSplineSet
EndChar

StartChar: Gdotaccent
Encoding: 380 288 227
Width: 647
GlyphClass: 2
Flags: MW
HStem: -10 160<306 366.5> 0 150<306 607 306 457> 230 120<347 457 347 607> 530 160<306 375.5> 740 140<230 410 230 410>
VStem: 30 180<282.5 397.5 282.5 453> 230 180<740 880 740 880> 457 150<0 23 23 23 212 230 230 230>
LayerCount: 2
Fore
SplineSet
348 530 m 0xbf
 264 530 210 455 210 340 c 0
 210 225 264 150 348 150 c 0
 397 150 437 172 457 212 c 1xbf
 457 230 l 1
 347 230 l 1
 347 350 l 1
 607 350 l 1
 607 0 l 1
 457 0 l 1x7b
 457 23 l 1
 432 4 385 -10 348 -10 c 0
 143 -10 30 114 30 340 c 0
 30 566 143 690 348 690 c 0
 494 690 594 594 615 444 c 1
 455 444 l 1
 444 502 403 530 348 530 c 0xbf
410 880 m 1xbb
 410 740 l 1
 230 740 l 1
 230 880 l 1
 410 880 l 1xbb
EndSplineSet
EndChar

StartChar: gdotaccent
Encoding: 381 289 228
Width: 492
GlyphClass: 2
Flags: MW
HStem: -200 66<225 280 225 303> -1 66<193.5 256.5> 405 65<201 255 161 278.5> 560 140<201 381 201 381>
VStem: 35 80<194.5 283.5 194.5 292.5> 201 180<560 700 560 700> 367 80<27 89 89 89 210 245 245 296 388 388>
LayerCount: 2
Fore
SplineSet
115 230 m 0xfa
 115 159 141 65 246 65 c 0
 331 65 367 143 367 210 c 2
 367 245 l 2
 367 347 311 405 246 405 c 0
 156 405 115 337 115 230 c 0xfa
35 230 m 0
 35 355 96 470 226 470 c 0
 284 470 344 439 367 388 c 1
 387 459 l 1
 447 459 l 1
 447 27 l 2
 447 -146 362 -200 244 -200 c 0
 114 -200 62 -106 52 -54 c 1
 135 -54 l 1
 153 -113 206 -134 244 -134 c 0
 316 -134 367 -91 367 27 c 2
 367 89 l 1
 339 33 286 -1 227 -1 c 0
 56 -1 35 144 35 230 c 0
381 700 m 1xfc
 381 560 l 1
 201 560 l 1
 201 700 l 1
 381 700 l 1xfc
EndSplineSet
EndChar

StartChar: uni0122
Encoding: 382 290 229
Width: 647
GlyphClass: 2
Flags: MW
HStem: -140 80<284 306 284 364 284 364> -10 160<306 366.5> 0 150<306 607 306 457> 230 120<347 457 347 607> 530 160<306 375.5>
VStem: 30 180<282.5 397.5 282.5 453> 284 80<-140 -60 -140 -60> 457 150<0 23 23 23 212 230 230 230>
LayerCount: 2
Fore
SplineSet
348 530 m 0xdf
 264 530 210 455 210 340 c 0
 210 225 264 150 348 150 c 0
 397 150 437 172 457 212 c 1xdf
 457 230 l 1
 347 230 l 1
 347 350 l 1
 607 350 l 1
 607 0 l 1
 457 0 l 1xbf
 457 23 l 1
 432 4 385 -10 348 -10 c 0
 143 -10 30 114 30 340 c 0
 30 566 143 690 348 690 c 0
 494 690 594 594 615 444 c 1
 455 444 l 1
 444 502 403 530 348 530 c 0xdf
306 -140 m 1
 284 -140 l 1
 284 -60 l 1
 364 -60 l 1
 364 -140 l 1
 318 -270 l 1
 284 -270 l 1
 306 -140 l 1
EndSplineSet
EndChar

StartChar: uni0123
Encoding: 383 291 230
Width: 491
GlyphClass: 2
Flags: MW
HStem: -200 78<254 263 254 312.5> -11 66<193 255.5> 405 65<200.5 254 160.5 277.5> 520 80<243 265 185 185>
VStem: 35 80<230 283.5 192.5 292.5> 185 80<520 600 520 600> 366 80<17 79 79 79 210 245 245 296 388 459>
LayerCount: 2
Fore
SplineSet
115 230 m 0
 115 155 141 55 245 55 c 0
 330 55 366 138 366 210 c 2
 366 245 l 2
 366 347 310 405 245 405 c 0
 156 405 115 337 115 230 c 0
36 229 m 1
 35 230 l 1
 35 355 96 470 225 470 c 0
 283 470 343 439 366 388 c 1
 366 459 l 1
 446 459 l 1
 446 17 l 2
 446 -148 368 -200 257 -200 c 0
 131 -200 83 -119 71 -74 c 1
 154 -60 l 1
 172 -107 220 -122 254 -122 c 2
 263 -122 l 1
 320 -116 366 -85 366 17 c 2
 366 79 l 1
 338 23 285 -11 226 -11 c 0
 97 -11 36 105 36 229 c 1
265 600 m 1
 265 520 l 1
 185 520 l 1
 185 600 l 1
 231 730 l 1
 265 730 l 1
 243 600 l 1
 265 600 l 1
EndSplineSet
EndChar

StartChar: Hcircumflex
Encoding: 384 292 231
Width: 660
GlyphClass: 2
Flags: MW
HStem: 0 21G<50 230 50 50 430 610 430 430> 257 160<230 430 230 430> 760 180<160 400 160 400 260 406 260 500>
VStem: 50 180<0 257 0 417 417 680> 430 180<0 257 257 257 417 680 0 680>
LayerCount: 2
Fore
SplineSet
610 680 m 1
 610 0 l 1
 430 0 l 1
 430 257 l 1
 230 257 l 1
 230 0 l 1
 50 0 l 1
 50 680 l 1
 230 680 l 1
 230 417 l 1
 430 417 l 1
 430 680 l 1
 610 680 l 1
330 850 m 1
 254 760 l 1
 160 760 l 1
 260 940 l 1
 400 940 l 1
 500 760 l 1
 406 760 l 1
 330 850 l 1
EndSplineSet
EndChar

StartChar: hcircumflex
Encoding: 385 293 232
Width: 478
GlyphClass: 2
Flags: MW
HStem: 0 21G<45 125 45 45 353 353 353 433> 390 80<262.5 322.5> 680 20G<45 125 125 125> 760 180<79 279 79 279 199 335 199 399>
VStem: 45 80<0 51.5 380 700> 353 80<0 271 271 304 0 307.5>
LayerCount: 2
Fore
SplineSet
143 760 m 1
 79 760 l 1
 199 940 l 1
 279 940 l 1
 399 760 l 1
 335 760 l 1
 239 887 l 1
 143 760 l 1
125 0 m 1
 45 0 l 1
 45 700 l 1
 125 700 l 1
 125 380 l 1
 163 422 230 470 295 470 c 0
 413 470 433 384 433 304 c 2
 433 0 l 1
 353 0 l 1
 353 271 l 2
 353 344 352 390 293 390 c 0
 226 390 183 364 126 310 c 1
 126 207 125 103 125 0 c 1
EndSplineSet
EndChar

StartChar: hbar
Encoding: 386 295 233
Width: 478
GlyphClass: 2
Flags: MW
HStem: 0 21G<45 125 45 45 353 433 353 353> 390 80<262.5 323> 530 80<15 45 15 45 125 305> 530 170<15 125 15 125 45 125 45 305>
VStem: 45 80<0 51.5 380 530 610 700> 353 80<0 271 271 304 0 306>
LayerCount: 2
Fore
SplineSet
45 530 m 1xec
 15 530 l 1
 15 610 l 1
 45 610 l 1xec
 45 700 l 1
 125 700 l 1xdc
 125 610 l 1
 305 610 l 1
 305 530 l 1
 125 530 l 1
 125 380 l 1
 163 422 230 470 295 470 c 0
 413 470 433 384 433 304 c 2
 433 0 l 1
 353 0 l 1
 353 271 l 2
 353 341 353 390 293 390 c 0
 226 390 183 364 126 310 c 1
 126 207 125 103 125 0 c 1
 45 0 l 1
 45 530 l 1xec
EndSplineSet
EndChar

StartChar: Itilde
Encoding: 387 296 234
Width: 280
GlyphClass: 2
Flags: MW
HStem: 0 21G<50 230 50 50> 760 80<193 213 193 223> 800 80<67 87>
VStem: 50 180<0 680>
LayerCount: 2
Fore
SplineSet
230 0 m 1xb0
 50 0 l 1
 50 680 l 1
 230 680 l 1
 230 0 l 1xb0
37 760 m 1xd0
 -13 760 l 1
 1 847 37 880 77 880 c 0xb0
 102 880 124 870 146 859 c 0
 162 850 183 840 203 840 c 0xd0
 223 840 238 852 243 880 c 1xb0
 293 880 l 1
 279 793 243 760 203 760 c 0xd0
 178 760 157 769 136 780 c 0
 119 789 97 800 77 800 c 0xb0
 57 800 42 788 37 760 c 1xd0
EndSplineSet
EndChar

StartChar: itilde
Encoding: 388 297 235
Width: 280
GlyphClass: 2
Flags: MW
HStem: 0 21G<100 280 100 100> 540 80<193 213 193 223> 580 80<67 87>
VStem: 100 180<0 460>
LayerCount: 2
Fore
SplineSet
37 540 m 1xd0
 -13 540 l 1
 1 627 37 660 77 660 c 0xb0
 102 660 124 650 146 639 c 0
 162 630 183 620 203 620 c 0xd0
 223 620 238 632 243 660 c 1xb0
 293 660 l 1
 279 573 243 540 203 540 c 0xd0
 178 540 157 549 136 560 c 0
 119 569 97 580 77 580 c 0xb0
 57 580 42 568 37 540 c 1xd0
280 0 m 1
 100 0 l 1
 100 460 l 1
 280 460 l 1
 280 0 l 1
EndSplineSet
EndChar

StartChar: Imacron
Encoding: 389 298 236
Width: 190
GlyphClass: 2
Flags: MW
HStem: 0 21G<50 230 50 50> 750 70<-40 230 -40 230>
VStem: 50 180<0 680>
LayerCount: 2
Fore
SplineSet
230 750 m 1
 -40 750 l 1
 -40 820 l 1
 230 820 l 1
 230 750 l 1
230 0 m 1
 50 0 l 1
 50 680 l 1
 230 680 l 1
 230 0 l 1
EndSplineSet
EndChar

StartChar: imacron
Encoding: 390 299 237
Width: 280
GlyphClass: 2
Flags: MW
HStem: 0 21G<100 280 100 100> 570 70<5 275 5 275>
VStem: 100 180<0 460>
LayerCount: 2
Fore
SplineSet
275 570 m 1
 5 570 l 1
 5 640 l 1
 275 640 l 1
 275 570 l 1
280 0 m 1
 100 0 l 1
 100 460 l 1
 280 460 l 1
 280 0 l 1
EndSplineSet
EndChar

StartChar: Ibreve
Encoding: 391 300 238
Width: 280
GlyphClass: 2
Flags: MW
HStem: 0 21G<50 230 50 50> 740 60<122.5 157.5 122.5 180>
VStem: -15 80<850 880 850 880> 50 180<0 680> 215 80<850 880>
LayerCount: 2
Fore
SplineSet
230 0 m 1xd0
 50 0 l 1
 50 680 l 1
 230 680 l 1
 230 0 l 1xd0
-15 880 m 1xe8
 65 880 l 1
 65 820 105 800 140 800 c 0
 175 800 215 820 215 880 c 1
 295 880 l 1
 295 780 220 740 140 740 c 0
 60 740 -15 780 -15 880 c 1xe8
EndSplineSet
EndChar

StartChar: ibreve
Encoding: 392 301 239
Width: 280
GlyphClass: 2
Flags: MW
HStem: 0 21G<100 280 100 100> 520 60<122.5 157.5 122.5 180>
VStem: -15 80<630 660 630 660> 100 180<0 460> 215 80<630 660>
LayerCount: 2
Fore
SplineSet
-15 660 m 1xf0
 65 660 l 1
 65 600 105 580 140 580 c 0
 175 580 215 600 215 660 c 1
 295 660 l 1xe8
 295 560 220 520 140 520 c 0
 60 520 -15 560 -15 660 c 1xf0
280 0 m 1xf0
 100 0 l 1
 100 460 l 1
 280 460 l 1
 280 0 l 1xf0
EndSplineSet
EndChar

StartChar: Iogonek
Encoding: 393 302 240
Width: 280
GlyphClass: 2
Flags: MW
HStem: -210 110<104.5 206> 0 21G<50 105 50 50 225 225 225 230>
VStem: 50 180<0 680 0 680>
LayerCount: 2
Fore
SplineSet
34 -124 m 0
 34 -70 71 -25 105 0 c 1
 50 0 l 1
 50 680 l 1
 230 680 l 1
 230 0 l 1
 225 0 l 1
 184 -31 175 -55 175 -74 c 0
 175 -91 188 -100 202 -100 c 0
 210 -100 220 -94 229 -87 c 1
 245 -182 l 1
 225 -196 182 -210 136 -210 c 0
 73 -210 34 -180 34 -124 c 0
EndSplineSet
EndChar

StartChar: iogonek
Encoding: 394 303 241
Width: 220
GlyphClass: 2
Flags: MW
HStem: -205 55<105 112.5> 0 21G<70 76 70 70 134 150 134 134> 530 80<70 150 70 150>
VStem: 10 61<-119.5 -94.5> 70 80<0 460 0 460 530 610>
LayerCount: 2
Fore
SplineSet
150 460 m 1xe8
 150 0 l 1xe8
 134 0 l 1
 94 -31 71 -67 71 -104 c 0
 71 -135 93 -150 117 -150 c 0
 133 -150 146 -145 157 -137 c 1
 179 -178 l 1
 160 -193 125 -205 100 -205 c 0
 50 -205 10 -176 10 -120 c 0xf0
 10 -69 44 -26 76 0 c 1
 70 0 l 1
 70 460 l 1
 150 460 l 1xe8
150 610 m 1
 150 530 l 1
 70 530 l 1
 70 610 l 1
 150 610 l 1
EndSplineSet
EndChar

StartChar: Idotaccent
Encoding: 395 304 242
Width: 280
GlyphClass: 2
Flags: MW
HStem: 0 21G<50 230 50 50> 740 140<50 230 50 230>
VStem: 50 180<0 680 740 880>
LayerCount: 2
Fore
SplineSet
230 0 m 1
 50 0 l 1
 50 680 l 1
 230 680 l 1
 230 0 l 1
230 740 m 1
 50 740 l 1
 50 880 l 1
 230 880 l 1
 230 740 l 1
EndSplineSet
EndChar

StartChar: dotlessi
Encoding: 396 305 243
Width: 340
GlyphClass: 2
Flags: HMW
HStem: 0 21G<80 260 80 80>
VStem: 80 180<0 460>
AnchorPoint: "top" 170 520 basechar 0
LayerCount: 2
Fore
SplineSet
260 0 m 1
 80 0 l 1
 80 460 l 1
 260 460 l 1
 260 0 l 1
EndSplineSet
EndChar

StartChar: ij
Encoding: 398 307 245
Width: 330
GlyphClass: 3
Flags: MW
HStem: -200 65<132 153.5 132 170.5> 0 21G<20 100 20 20> 530 80<20 100 20 100 180 260>
VStem: 20 80<0 460 530 610> 32 65<-116 -100 -116 -100> 180 80<-15 9 9 460 381 460 530 610>
LayerCount: 2
Fore
SplineSet
260 530 m 1xf4
 180 530 l 1
 180 610 l 1
 260 610 l 1
 260 530 l 1xf4
32 -100 m 1
 97 -100 l 1xec
 97 -132 124 -135 140 -135 c 0
 167 -135 180 -109 180 -15 c 0
 180 143 180 302 180 460 c 1
 260 460 l 1
 260 9 l 2
 260 -171 203 -200 138 -200 c 0
 81 -200 32 -158 32 -100 c 1
100 530 m 1xf4
 20 530 l 1
 20 610 l 1
 100 610 l 1
 100 530 l 1xf4
100 0 m 1
 20 0 l 1
 20 460 l 1
 100 460 l 1
 100 0 l 1
EndSplineSet
EndChar

StartChar: Jcircumflex
Encoding: 399 308 246
Width: 286
GlyphClass: 2
Flags: MW
HStem: 0 160<50 76 76 96 50 124 50 76> 750 180<23 263 23 263 123 269 123 363>
VStem: 148 180<240 244 244 680>
LayerCount: 2
Fore
SplineSet
124 0 m 2
 50 0 l 1
 50 160 l 1
 76 160 l 2
 116 160 148 176 148 240 c 2
 148 680 l 1
 328 680 l 1
 328 244 l 2
 328 110 296 0 124 0 c 2
193 840 m 1
 117 750 l 1
 23 750 l 1
 123 930 l 1
 263 930 l 1
 363 750 l 1
 269 750 l 1
 193 840 l 1
EndSplineSet
EndChar

StartChar: jcircumflex
Encoding: 400 309 247
Width: 220
GlyphClass: 2
Flags: MW
HStem: -200 80<18.5 42.5 18.5 60.5> 520 180<-60 180 -60 180 40 186 40 280> 610 90<110 110>
VStem: 70 80<-55 -31 -31 460>
LayerCount: 2
Fore
SplineSet
-103 -90 m 1xd0
 -24 -90 l 1
 -8 -114 7 -120 30 -120 c 0
 55 -120 70 -103 70 -55 c 2
 70 460 l 1
 150 460 l 1
 150 -31 l 2
 150 -139 93 -200 28 -200 c 0
 -36 -200 -87 -149 -103 -90 c 1xd0
110 610 m 1xb0
 34 520 l 1
 -60 520 l 1
 40 700 l 1
 180 700 l 1
 280 520 l 1
 186 520 l 1xd0
 110 610 l 1xb0
EndSplineSet
EndChar

StartChar: uni0136
Encoding: 401 310 248
Width: 710
GlyphClass: 2
Flags: MW
HStem: -140 80<315 337 315 395 315 395> 0 21G<50 230 50 50 480 480 480 700>
VStem: 50 180<0 233 0 380 380 680> 315 80<-140 -60 -140 -60>
LayerCount: 2
Fore
SplineSet
230 233 m 1
 230 0 l 1
 50 0 l 1
 50 680 l 1
 230 680 l 1
 230 380 l 1
 290 397 l 1
 460 680 l 1
 660 680 l 1
 460 350 l 1
 700 0 l 1
 480 0 l 1
 308 259 l 1
 230 233 l 1
337 -140 m 1
 315 -140 l 1
 315 -60 l 1
 395 -60 l 1
 395 -140 l 1
 349 -270 l 1
 315 -270 l 1
 337 -140 l 1
EndSplineSet
EndChar

StartChar: uni0137
Encoding: 402 311 249
Width: 422
GlyphClass: 2
Flags: MW
HStem: -140 80<183 205 183 263 183 263> 0 21G<44 124 44 44 301 301 301 401> 680 20G<44 124 124 124>
VStem: 44 80<0 210 290 700 583.5 700> 183 80<-140 -60 -73.5 -60>
LayerCount: 2
Fore
SplineSet
183 -60 m 1
 263 -60 l 1
 263 -140 l 1
 217 -270 l 1
 183 -270 l 1
 205 -140 l 1
 183 -140 l 1
 183 -113 183 -87 183 -60 c 1
124 0 m 1
 44 0 l 1
 44 233 44 467 44 700 c 1
 124 700 l 1
 124 290 l 1
 156 300 l 1
 281 460 l 1
 381 460 l 1
 228 266 l 1
 401 0 l 1
 301 0 l 1
 156 220 l 1
 124 210 l 1
 124 0 l 1
EndSplineSet
EndChar

StartChar: kgreenlandic
Encoding: 403 312 250
Width: 422
GlyphClass: 2
Flags: MW
HStem: 0 21G<45 125 45 45 302 302 302 402>
VStem: 45 80<0 210 290 440 366.5 440>
LayerCount: 2
Fore
SplineSet
125 0 m 1
 45 0 l 1
 45 147 45 293 45 440 c 1
 125 460 l 1
 125 290 l 1
 157 300 l 1
 282 460 l 1
 382 460 l 1
 229 266 l 1
 402 0 l 1
 302 0 l 1
 157 220 l 1
 125 210 l 1
 125 0 l 1
EndSplineSet
EndChar

StartChar: Lacute
Encoding: 404 313 251
Width: 510
GlyphClass: 2
Flags: MW
HStem: 0 160<230 500 230 500> 710 210<76 186 6 272>
VStem: 50 180<160 680 160 680 160 680>
LayerCount: 2
Fore
SplineSet
230 680 m 1
 230 160 l 1
 500 160 l 1
 500 0 l 1
 50 0 l 1
 50 680 l 1
 230 680 l 1
272 920 m 1
 186 710 l 1
 6 710 l 1
 76 920 l 1
 272 920 l 1
EndSplineSet
EndChar

StartChar: lacute
Encoding: 405 314 252
Width: 220
GlyphClass: 2
Flags: MW
HStem: 0 21G<70 150 70 70> 680 20G<70 150 150 150> 760 180<98 112 48 178>
VStem: 70 80<0 700>
LayerCount: 2
Fore
SplineSet
112 760 m 1
 48 760 l 1
 98 940 l 1
 178 940 l 1
 112 760 l 1
150 0 m 1
 70 0 l 1
 70 700 l 1
 150 700 l 1
 150 0 l 1
EndSplineSet
EndChar

StartChar: uni013B
Encoding: 406 315 253
Width: 510
GlyphClass: 2
Flags: MW
HStem: -140 80<215 295 215 237 215 295> 0 80<140 460 140 460> 680 20G<50 140 140 140>
VStem: 50 90<80 700 80 700 80 700> 215 80<-140 -60 -140 -60>
LayerCount: 2
Fore
SplineSet
215 -140 m 1
 215 -60 l 1
 295 -60 l 1
 295 -140 l 1
 249 -270 l 1
 215 -270 l 1
 237 -140 l 1
 215 -140 l 1
460 0 m 1
 50 0 l 1
 50 700 l 1
 140 700 l 1
 140 80 l 1
 460 80 l 1
 460 0 l 1
EndSplineSet
EndChar

StartChar: uni013C
Encoding: 407 316 254
Width: 220
GlyphClass: 2
Flags: MW
HStem: -140 80<70 92 70 150 70 150> 0 21G<70 150 70 70> 680 20G<70 150 150 150>
VStem: 70 80<-140 -60 -73.5 -60 0 700>
LayerCount: 2
Fore
SplineSet
70 -60 m 1
 150 -60 l 1
 150 -140 l 1
 104 -270 l 1
 70 -270 l 1
 92 -140 l 1
 70 -140 l 1
 70 -113 70 -87 70 -60 c 1
150 0 m 1
 70 0 l 1
 70 700 l 1
 150 700 l 1
 150 0 l 1
EndSplineSet
EndChar

StartChar: Lcaron
Encoding: 408 317 255
Width: 510
GlyphClass: 2
Flags: MW
HStem: 0 80<140 460 140 460> 620 80<270 292>
VStem: 50 90<80 700 80 700 80 700> 270 80<620 700 620 700>
LayerCount: 2
Fore
SplineSet
304 490 m 1
 270 490 l 1
 292 620 l 1
 270 620 l 1
 270 700 l 1
 350 700 l 1
 350 620 l 1
 304 490 l 1
460 0 m 1
 50 0 l 1
 50 700 l 1
 140 700 l 1
 140 80 l 1
 460 80 l 1
 460 0 l 1
EndSplineSet
EndChar

StartChar: lcaron
Encoding: 409 318 256
Width: 220
GlyphClass: 2
Flags: MW
HStem: 0 21G<70 150 70 70> 620 80<170 192 70 170>
VStem: 70 80<0 700> 170 80<620 700 620 700>
LayerCount: 2
Fore
SplineSet
204 490 m 1
 170 490 l 1
 192 620 l 1
 170 620 l 1
 170 700 l 1
 250 700 l 1
 250 620 l 1
 204 490 l 1
150 0 m 1xe0
 70 0 l 1
 70 700 l 1
 150 700 l 1
 150 0 l 1xe0
EndSplineSet
EndChar

StartChar: Ldot
Encoding: 410 319 257
Width: 510
GlyphClass: 2
Flags: MW
HStem: 0 80<140 460 140 460> 315 80<215 295 215 295> 680 20G<50 140 140 140>
VStem: 50 90<80 700 80 700 80 700> 215 80<315 395 315 395>
LayerCount: 2
Fore
SplineSet
295 395 m 1
 295 315 l 1
 215 315 l 1
 215 395 l 1
 295 395 l 1
460 80 m 1
 460 0 l 1
 50 0 l 1
 50 700 l 1
 140 700 l 1
 140 80 l 1
 460 80 l 1
EndSplineSet
EndChar

StartChar: ldot
Encoding: 411 320 258
Width: 370
GlyphClass: 2
Flags: MW
HStem: 0 21G<70 150 70 70> 230 80<220 300 220 300> 680 20G<70 150 150 150>
VStem: 70 80<0 700> 220 80<230 310>
LayerCount: 2
Fore
SplineSet
300 230 m 1
 220 230 l 1
 220 310 l 1
 300 310 l 1
 300 230 l 1
150 0 m 1
 70 0 l 1
 70 700 l 1
 150 700 l 1
 150 0 l 1
EndSplineSet
EndChar

StartChar: Lslash
Encoding: 412 321 259
Width: 610
GlyphClass: 2
Flags: MW
HStem: 0 80<260 580 260 580> 680 20G<170 260 260 260>
VStem: 170 90<80 271 271 271 425 426 579 700>
LayerCount: 2
Fore
SplineSet
111 170 m 1
 20 170 l 1
 170 425 l 1
 170 700 l 1
 260 700 l 1
 260 579 l 1
 319 679 l 1
 348 679 378 679 407 679 c 1
 260 426 l 1
 260 80 l 1
 580 80 l 1
 580 0 l 1
 170 0 l 1
 170 271 l 1
 111 170 l 1
EndSplineSet
EndChar

StartChar: lslash
Encoding: 413 322 260
Width: 448
GlyphClass: 2
Flags: MW
HStem: 0 21G<172 252 172 172> 680 20G<172 252 252 252>
VStem: 172 80<0 214 214 214 434 700>
LayerCount: 2
Fore
SplineSet
119 151 m 1
 15 151 l 1
 172 338 l 1
 172 700 l 1
 252 700 l 1
 252 434 l 1
 330 527 l 1
 433 527 l 1
 252 309 l 1
 252 0 l 1
 172 0 l 1
 172 214 l 1
 119 151 l 1
EndSplineSet
EndChar

StartChar: uni0145
Encoding: 416 325 263
Width: 600
GlyphClass: 2
Flags: MW
HStem: -140 80<260 282 260 340 260 340> 0 21G<-40 140 -40 -40 374 374 374 574>
VStem: -40 180<0 320 0 680> 260 80<-140 -60 -140 -60> 394 180<360 680 0 680>
LayerCount: 2
Fore
SplineSet
140 320 m 2
 140 0 l 1
 -40 0 l 1
 -40 680 l 1
 160 680 l 1
 397 292 l 1
 394 318 394 342 394 360 c 2
 394 680 l 1
 574 680 l 1
 574 0 l 1
 374 0 l 1
 137 388 l 1
 140 362 140 338 140 320 c 2
282 -140 m 1
 260 -140 l 1
 260 -60 l 1
 340 -60 l 1
 340 -140 l 1
 294 -270 l 1
 260 -270 l 1
 282 -140 l 1
EndSplineSet
EndChar

StartChar: uni0146
Encoding: 417 326 264
Width: 478
GlyphClass: 2
Flags: MW
HStem: -140 80<199 221 199 279 199 279> 0 21G<46 125 46 46 353 353 353 433> 405 65<272 298>
VStem: 46 80<370 460 370 460 370 460> 199 80<-140 -60 -73.5 -60> 353 80<0 270 270 297.5>
LayerCount: 2
Fore
SplineSet
199 -60 m 1
 279 -60 l 1
 279 -140 l 1
 233 -270 l 1
 199 -270 l 1
 221 -140 l 1
 199 -140 l 1
 199 -113 199 -87 199 -60 c 1
125 0 m 1
 46 0 l 1
 46 460 l 1
 126 460 l 1
 126 370 l 1
 167 417 237 470 307 470 c 0
 428 470 433 382 433 300 c 2
 433 0 l 1
 353 0 l 1
 353 270 l 2
 353 325 354 365 333 388 c 0
 323 399 309 405 287 405 c 0
 223 405 125 343 125 230 c 2
 125 0 l 1
EndSplineSet
EndChar

StartChar: Ncaron
Encoding: 418 327 265
Width: 560
GlyphClass: 2
Flags: MW
HStem: 0 21G<50 140 50 50 370 370 370 510> 0 105<370 420 420 420 420 510> 597 103<140 140> 680 20G<50 190 190 190 420 510 510 510> 770 180<120 240 120 320>
VStem: 50 90<0 597> 420 90<105 700 0 700>
LayerCount: 2
Fore
SplineSet
240 770 m 1x9e
 120 950 l 1
 184 950 l 1
 280 823 l 1
 376 950 l 1
 440 950 l 1
 320 770 l 1
 240 770 l 1x9e
140 0 m 1
 50 0 l 1
 50 700 l 1
 190 700 l 1
 420 105 l 1
 420 700 l 1
 510 700 l 1x5e
 510 0 l 1
 370 0 l 1
 140 597 l 1xae
 140 0 l 1
EndSplineSet
EndChar

StartChar: napostrophe
Encoding: 420 329 267
Width: 608
GlyphClass: 2
Flags: MW
HStem: 0 21G<176 255 176 176 483 483 483 563> 390 70 405 65<402 428> 520 80<51 73 51 131 51 131>
VStem: 51 80<520 600 586.5 600> 176 80<370 460 370 460 370 460> 483 80<0 270 270 297.5>
LayerCount: 2
Fore
SplineSet
255 0 m 1xbe
 176 0 l 1
 176 460 l 1
 256 460 l 1xde
 256 370 l 1
 297 417 367 470 437 470 c 0
 558 470 563 382 563 300 c 2
 563 0 l 1
 483 0 l 1
 483 270 l 2
 483 325 484 365 463 388 c 0
 453 399 439 405 417 405 c 0
 353 405 255 343 255 230 c 2
 255 0 l 1xbe
85 390 m 1
 51 390 l 1
 73 520 l 1
 51 520 l 1
 51 547 51 573 51 600 c 1
 131 600 l 1
 131 520 l 1
 113 478 99 433 85 390 c 1
EndSplineSet
EndChar

StartChar: eng
Encoding: 421 331 268
Width: 478
GlyphClass: 2
Flags: MW
HStem: -200 80<283 303 283 325> 0 21G<46 125 46 46> 405 65<272 320>
VStem: 46 80<370 460 370 460 370 460> 353 80<12 270 270 300>
LayerCount: 2
Fore
SplineSet
125 0 m 1
 46 0 l 1
 46 460 l 1
 126 460 l 1
 126 370 l 1
 167 417 237 470 307 470 c 0
 428 470 433 382 433 300 c 2
 433 -62 l 2
 433 -139 366 -200 303 -200 c 2
 283 -200 l 1
 283 -120 l 1
 367 -120 353 -46 353 12 c 2
 353 270 l 2
 353 353 353 405 287 405 c 0
 223 405 125 343 125 230 c 0
 125 153 125 77 125 0 c 1
EndSplineSet
EndChar

StartChar: Omacron
Encoding: 422 332 269
Width: 696
GlyphClass: 2
Flags: MW
HStem: -10 160<306 390 306 450.5> 530 160<306 390> 790 70<215 485 215 485>
VStem: 30 180<282.5 397.5 282.5 453> 215 270<790 860 790 860> 486 180<282.5 397.5>
LayerCount: 2
Fore
SplineSet
348 530 m 0
 264 530 210 455 210 340 c 0
 210 225 264 150 348 150 c 0
 432 150 486 225 486 340 c 0
 486 455 432 530 348 530 c 0
348 -10 m 0
 143 -10 30 114 30 340 c 0
 30 566 143 690 348 690 c 0
 553 690 666 566 666 340 c 0
 666 114 553 -10 348 -10 c 0
485 860 m 1xe8
 485 790 l 1
 215 790 l 1
 215 860 l 1
 485 860 l 1xe8
EndSplineSet
EndChar

StartChar: Obreve
Encoding: 424 334 271
Width: 696
GlyphClass: 2
Flags: MW
HStem: -10 160<306 390 306 450.5> 530 160<306 390> 740 60<332.5 367.5 332.5 390>
VStem: 30 180<282.5 397.5 282.5 453> 195 80<850 880 850 880> 425 80<850 880> 486 180<282.5 397.5>
LayerCount: 2
Fore
SplineSet
348 530 m 0xf2
 264 530 210 455 210 340 c 0
 210 225 264 150 348 150 c 0
 432 150 486 225 486 340 c 0
 486 455 432 530 348 530 c 0xf2
348 -10 m 0
 143 -10 30 114 30 340 c 0
 30 566 143 690 348 690 c 0
 553 690 666 566 666 340 c 0
 666 114 553 -10 348 -10 c 0
195 880 m 1xec
 275 880 l 1
 275 820 315 800 350 800 c 0
 385 800 425 820 425 880 c 1
 505 880 l 1
 505 780 430 740 350 740 c 0
 270 740 195 780 195 880 c 1xec
EndSplineSet
EndChar

StartChar: Ohungarumlaut
Encoding: 426 336 273
Width: 696
GlyphClass: 2
Flags: MW
HStem: -10 160<306 390 306 450.5> 530 160<306 390> 730 180<276 295 231 356 326 326 326 356 386 390>
VStem: 30 180<282.5 397.5 282.5 453> 486 180<282.5 397.5>
LayerCount: 2
Fore
SplineSet
348 530 m 0
 264 530 210 455 210 340 c 0
 210 225 264 150 348 150 c 0
 432 150 486 225 486 340 c 0
 486 455 432 530 348 530 c 0
348 -10 m 0
 143 -10 30 114 30 340 c 0
 30 566 143 690 348 690 c 0
 553 690 666 566 666 340 c 0
 666 114 553 -10 348 -10 c 0
356 910 m 1
 295 730 l 1
 231 730 l 1
 276 910 l 1
 356 910 l 1
466 910 m 1
 390 730 l 1
 326 730 l 1
 386 910 l 1
 466 910 l 1
EndSplineSet
EndChar

StartChar: OE
Encoding: 428 338 275
Width: 980
GlyphClass: 3
Flags: MW
HStem: -10 80<257.5 373.5> 0 80<610 930 610 930> 317 80<610 890 610 890> 620 80<610 930 610 610> 630 80<258.5 369 237 402.5>
VStem: 50 90<275 426 275 455> 520 90<0 317 64 317 293.5 317 397 426.5>
LayerCount: 2
Fore
SplineSet
140 350 m 0xae
 140 200 187 70 328 70 c 0
 478 70 520 237 520 350 c 0
 520 503 477 630 328 630 c 0
 189 630 140 502 140 350 c 0xae
50 350 m 0
 50 560 146 710 328 710 c 0x6e
 410 710 474 681 520 632 c 1
 520 700 l 1
 930 700 l 1
 930 620 l 1
 610 620 l 1
 610 397 l 1
 890 397 l 1
 890 317 l 1
 610 317 l 1
 610 80 l 1
 930 80 l 1
 930 0 l 1
 520 0 l 1x76
 520 64 l 1
 475 17 413 -10 334 -10 c 0
 141 -10 50 138 50 350 c 0
EndSplineSet
EndChar

StartChar: oe
Encoding: 429 339 276
Width: 801
GlyphClass: 3
Flags: MW
HStem: -9 64<205 276 205 276> -8 78<530 593 530 620.5> 210 80<450 689 450 765 449 689> 390 80<541.5 606> 405 66<204.5 275.5>
VStem: 33 82<169.5 293.5 169.5 300> 365 84<210 210 210 293.5>
LayerCount: 2
Fore
SplineSet
115 230 m 0xae
 115 109 170 55 240 55 c 0
 312 55 365 105 365 230 c 0
 365 357 311 405 240 405 c 0
 169 405 115 357 115 230 c 0xae
450 290 m 1
 689 290 l 1
 676 358 641 390 571 390 c 0xb6
 512 390 460 353 450 290 c 1
33 231 m 0
 33 369 97 471 238 471 c 0xae
 317 471 372 439 405 386 c 1
 438 435 492 470 570 470 c 0
 709 470 765 350 765 210 c 1
 449 210 l 1
 456 135 489 70 571 70 c 0
 615 70 662 88 685 114 c 1
 746 100 l 1
 729 58 671 -8 570 -8 c 0x76
 489 -8 436 28 404 79 c 1
 370 25 314 -9 238 -9 c 0
 86 -9 33 103 33 231 c 0
EndSplineSet
EndChar

StartChar: racute
Encoding: 431 341 278
Width: 370
GlyphClass: 2
Flags: MW
HStem: 0 21G<45 125 45 45> 390 80<242 262> 520 180<170 184 120 250>
VStem: 45 80<0 233 370 460>
LayerCount: 2
Fore
SplineSet
125 0 m 1
 45 0 l 1
 45 460 l 1
 125 460 l 1
 125 370 l 1
 148 421 212 470 272 470 c 0
 295 470 317 466 335 460 c 1
 335 359 l 1
 312 379 278 390 246 390 c 0
 172 390 134 293 125 233 c 1
 125 0 l 1
184 520 m 1
 120 520 l 1
 170 700 l 1
 250 700 l 1
 184 520 l 1
EndSplineSet
EndChar

StartChar: uni0157
Encoding: 433 343 280
Width: 370
GlyphClass: 2
Flags: MW
HStem: -140 80<45 67 45 125 45 125> 0 21G<45 125 45 45> 390 80<242 262>
VStem: 45 80<-140 -60 -73.5 -60 0 233 370 460>
LayerCount: 2
Fore
SplineSet
45 -60 m 1
 125 -60 l 1
 125 -140 l 1
 79 -270 l 1
 45 -270 l 1
 67 -140 l 1
 45 -140 l 1
 45 -113 45 -87 45 -60 c 1
125 0 m 1
 45 0 l 1
 45 460 l 1
 125 460 l 1
 125 370 l 1
 148 421 212 470 272 470 c 0
 295 470 317 466 335 460 c 1
 335 359 l 1
 312 379 278 390 246 390 c 0
 172 390 134 293 125 233 c 1
 125 0 l 1
EndSplineSet
EndChar

StartChar: rcaron
Encoding: 435 345 282
Width: 370
GlyphClass: 2
Flags: MW
HStem: 0 21G<45 125 45 45> 390 80<242 262> 530 180<29 149 29 229>
VStem: 45 80<0 233 370 460>
LayerCount: 2
Fore
SplineSet
149 530 m 1
 29 710 l 1
 93 710 l 1
 189 583 l 1
 285 710 l 1
 349 710 l 1
 229 530 l 1
 149 530 l 1
125 0 m 1
 45 0 l 1
 45 460 l 1
 125 460 l 1
 125 370 l 1
 148 421 212 470 272 470 c 0
 295 470 317 466 335 460 c 1
 335 359 l 1
 312 379 278 390 246 390 c 0
 172 390 134 293 125 233 c 1
 125 0 l 1
EndSplineSet
EndChar

StartChar: Sacute
Encoding: 436 346 283
Width: 582
GlyphClass: 2
Flags: MW
HStem: -10 160<267.5 316 267.5 371.5> -10 233<210 221 31 371.5> 481 209<360 371 219.5 550 360 360> 530 160<272 316> 750 160<308 322 258 388>
VStem: 49 190<486 507.5 486 552> 362 190<182 208>
LayerCount: 2
Fore
SplineSet
322 750 m 1xae
 258 750 l 1
 308 910 l 1
 388 910 l 1
 322 750 l 1xae
31 223 m 1x6e
 221 223 l 1
 221 183 244 150 291 150 c 0
 341 150 362 170 362 194 c 0
 362 222 348 243 326 255 c 2
 139 358 l 2
 85 388 49 430 49 492 c 0
 49 612 140 690 299 690 c 0
 443 690 550 590 550 481 c 1
 360 481 l 1xae
 360 506 342 530 290 530 c 0
 254 530 239 522 239 493 c 0
 239 479 246 470 274 455 c 2
 449 360 l 2
 516 324 552 274 552 191 c 0
 552 69 459 -10 284 -10 c 0x9e
 136 -10 31 91 31 223 c 1x6e
EndSplineSet
EndChar

StartChar: sacute
Encoding: 437 347 284
Width: 452
GlyphClass: 2
Flags: MW
HStem: -10 65<214.5 249 214.5 275.5> 405 65<192.5 240> 520 160<228 242 178 308>
VStem: 35 79<99 136 99 136> 55 80<301.5 362.5 301.5 373.5> 335 82<98.5 183>
LayerCount: 2
Fore
SplineSet
242 520 m 1xec
 178 520 l 1
 228 680 l 1
 308 680 l 1
 242 520 l 1xec
35 136 m 1xf4
 114 136 l 1xf4
 114 62 192 55 237 55 c 0
 261 55 335 67 335 130 c 0
 335 236 55 185 55 340 c 0
 55 407 105 470 215 470 c 0
 307 470 397 414 397 336 c 1
 316 336 l 1
 304 378 265 405 215 405 c 0
 170 405 135 385 135 340 c 0xec
 135 263 417 288 417 130 c 0
 417 10 314 -10 237 -10 c 0
 133 -10 35 52 35 136 c 1xf4
EndSplineSet
EndChar

StartChar: Scircumflex
Encoding: 438 348 285
Width: 582
GlyphClass: 2
Flags: MW
HStem: -10 160<267.5 316 267.5 371.5> -10 233<210 221 31 371.5> 481 209<360 371 219.5 550 360 360> 530 160<272 316> 750 180<120 360 120 360 220 366 220 460>
VStem: 31 190<203 223 203 223> 49 190<486 507.5 486 552> 362 190<182 208>
LayerCount: 2
Fore
SplineSet
31 223 m 1x6d
 221 223 l 1xad
 221 183 244 150 291 150 c 0
 341 150 362 170 362 194 c 0
 362 222 348 243 326 255 c 2
 139 358 l 2
 85 388 49 430 49 492 c 0
 49 612 140 690 299 690 c 0
 443 690 550 590 550 481 c 1
 360 481 l 1xab
 360 506 342 530 290 530 c 0
 254 530 239 522 239 493 c 0
 239 479 246 470 274 455 c 2x9b
 449 360 l 2
 516 324 552 274 552 191 c 0
 552 69 459 -10 284 -10 c 0xad
 136 -10 31 91 31 223 c 1x6d
290 840 m 1
 214 750 l 1
 120 750 l 1
 220 930 l 1
 360 930 l 1
 460 750 l 1
 366 750 l 1
 290 840 l 1
EndSplineSet
EndChar

StartChar: scircumflex
Encoding: 439 349 286
Width: 452
GlyphClass: 2
Flags: MW
HStem: -10 65<214.5 249 214.5 275.5> 405 65<192.5 240> 520 180<40 280 40 280 140 286 140 380> 610 90<210 210>
VStem: 35 79<99 136 99 136> 55 80<301.5 362.5 301.5 373.5> 335 82<98.5 183>
LayerCount: 2
Fore
SplineSet
35 136 m 1xea
 114 136 l 1xda
 114 62 192 55 237 55 c 0
 261 55 335 67 335 130 c 0
 335 236 55 185 55 340 c 0
 55 407 105 470 215 470 c 0
 307 470 397 414 397 336 c 1
 316 336 l 1
 304 378 265 405 215 405 c 0
 170 405 135 385 135 340 c 0xe6
 135 263 417 288 417 130 c 0
 417 10 314 -10 237 -10 c 0
 133 -10 35 52 35 136 c 1xea
210 610 m 1
 134 520 l 1
 40 520 l 1
 140 700 l 1
 280 700 l 1
 380 520 l 1
 286 520 l 1xe6
 210 610 l 1
EndSplineSet
EndChar

StartChar: Scedilla
Encoding: 440 350 287
Width: 582
GlyphClass: 2
Flags: MW
HStem: -209 39<259.5 280.5 250 303.5> -67 146<240 318> -9 21G<267 267> -9 88<267 318> 619 90<260 335>
VStem: 51 88<140.5 193 139.5 194> 69 92<468.5 559 468.5 573.5> 319 57<-133 -100> 440 92<152 286.5>
LayerCount: 2
Fore
SplineSet
206 -193 m 1xab80
 206 -164 l 1
 219 -167 240 -170 260 -170 c 0
 301 -170 319 -148 319 -118 c 0
 319 -82 270 -70 240 -67 c 1xcb80
 267 -9 l 1
 152 6 51 87 51 194 c 1
 65 194 80 193 95 193 c 2
 139 193 l 1
 139 86 246 79 303 79 c 0x9d80
 333 79 440 99 440 205 c 0
 440 368 69 290 69 527 c 0
 69 620 140 709 299 709 c 0
 408 709 489 643 518 573 c 0
 525 556 530 538 530 521 c 1
 440 521 l 1
 421 583 370 619 300 619 c 0
 220 619 161 591 161 527 c 0
 161 410 532 448 532 205 c 0
 532 33 420 -5 327 -10 c 1
 309 -46 l 1
 332 -54 376 -70 376 -123 c 0
 376 -177 331 -209 276 -209 c 0
 243 -209 220 -200 206 -193 c 1xab80
EndSplineSet
EndChar

StartChar: scedilla
Encoding: 441 351 288
Width: 452
GlyphClass: 2
Flags: MW
HStem: -209 39<194.5 215.5 185 238.5> -8 21G<202 202> -8 63<202 249> 405 65<192.5 240>
VStem: 35 79<99 136 99 136> 55 80<301.5 362.5 301.5 373.5> 254 57<-133 -100> 335 82<98.5 183>
LayerCount: 2
Fore
SplineSet
141 -193 m 1xd5
 141 -164 l 1
 154 -167 175 -170 195 -170 c 0
 236 -170 254 -148 254 -118 c 0
 254 -82 205 -70 175 -67 c 1
 202 -8 l 1
 112 4 35 61 35 136 c 1
 114 136 l 1xbb
 114 62 192 55 237 55 c 0
 261 55 335 67 335 130 c 0
 335 236 55 185 55 340 c 0
 55 407 105 470 215 470 c 0
 301 470 365 423 388 373 c 0
 394 361 397 348 397 336 c 1
 316 336 l 1
 304 378 265 405 215 405 c 0
 170 405 135 385 135 340 c 0
 135 263 417 288 417 130 c 0xb5
 417 23 335 -5 262 -9 c 1
 244 -46 l 1
 267 -54 311 -70 311 -123 c 0
 311 -177 266 -209 211 -209 c 0xd7
 178 -209 155 -200 141 -193 c 1xd5
EndSplineSet
EndChar

StartChar: Scaron
Encoding: 442 352 289
Width: 582
GlyphClass: 2
Flags: MW
HStem: -10 160<267.5 316 267.5 371.5> -10 233<210 221 31 371.5> 481 209<360 371 219.5 550 360 360> 530 160<272 316> 750 160<150 330 150 250>
VStem: 31 190<203 223 203 223> 49 190<486 507.5 486 552> 362 190<182 208>
LayerCount: 2
Fore
SplineSet
31 223 m 1x6d
 221 223 l 1xad
 221 183 244 150 291 150 c 0
 341 150 362 170 362 194 c 0
 362 222 348 243 326 255 c 2
 139 358 l 2
 85 388 49 430 49 492 c 0
 49 612 140 690 299 690 c 0
 443 690 550 590 550 481 c 1
 360 481 l 1xab
 360 506 342 530 290 530 c 0
 254 530 239 522 239 493 c 0
 239 479 246 470 274 455 c 2x9b
 449 360 l 2
 516 324 552 274 552 191 c 0
 552 69 459 -10 284 -10 c 0xad
 136 -10 31 91 31 223 c 1x6d
330 750 m 1
 250 750 l 1
 150 910 l 1
 214 910 l 1
 290 825 l 1
 366 910 l 1
 430 910 l 1
 330 750 l 1
EndSplineSet
EndChar

StartChar: scaron
Encoding: 443 353 290
Width: 452
GlyphClass: 2
Flags: MW
HStem: -10 65<214.5 249 214.5 275.5> 405 65<192.5 240> 520 160<70 250 70 170>
VStem: 35 79<99 136 99 136> 55 80<301.5 362.5 301.5 373.5> 335 82<98.5 183>
LayerCount: 2
Fore
SplineSet
35 136 m 1xf4
 114 136 l 1xf4
 114 62 192 55 237 55 c 0
 261 55 335 67 335 130 c 0
 335 236 55 185 55 340 c 0
 55 407 105 470 215 470 c 0
 307 470 397 414 397 336 c 1
 316 336 l 1
 304 378 265 405 215 405 c 0
 170 405 135 385 135 340 c 0xec
 135 263 417 288 417 130 c 0
 417 10 314 -10 237 -10 c 0
 133 -10 35 52 35 136 c 1xf4
250 520 m 1
 170 520 l 1
 70 680 l 1
 134 680 l 1
 210 595 l 1
 286 680 l 1
 350 680 l 1
 250 520 l 1
EndSplineSet
EndChar

StartChar: uni0162
Encoding: 444 354 291
Width: 480
GlyphClass: 2
Flags: MW
HStem: -140 80<200 222 200 280 200 280> 0 21G<150 330 150 150> 520 160<10 150 10 470 330 470 330 330>
VStem: 150 180<0 520 0 520> 200 80<-140 -60 -140 -60>
LayerCount: 2
Fore
SplineSet
330 520 m 1xf0
 330 0 l 1
 150 0 l 1
 150 520 l 1
 10 520 l 1
 10 680 l 1
 470 680 l 1
 470 520 l 1
 330 520 l 1xf0
222 -140 m 1xe8
 200 -140 l 1
 200 -60 l 1
 280 -60 l 1
 280 -140 l 1
 234 -270 l 1
 200 -270 l 1
 222 -140 l 1xe8
EndSplineSet
EndChar

StartChar: uni0163
Encoding: 445 355 292
Width: 331
GlyphClass: 2
Flags: MW
HStem: -140 80<126 206 126 148 126 206> -9 65<267 300 267 267> 400 60<30 105 185 269>
VStem: 105 80<180 181 181 400 460 480 480 480> 126 80<-140 -60 -140 -60>
LayerCount: 2
Fore
SplineSet
105 400 m 1xf0
 30 400 l 1
 30 440 l 1
 105 460 l 1
 105 480 l 1
 125 610 l 1
 185 610 l 1
 185 460 l 1
 269 460 l 1
 269 400 l 1
 185 400 l 1
 185 181 l 2
 185 83 197 56 266 56 c 2
 300 56 l 1
 300 -9 l 1
 267 -9 l 1
 117 0 105 44 105 180 c 2
 105 400 l 1xf0
126 -140 m 1xe8
 126 -60 l 1
 206 -60 l 1
 206 -140 l 1
 160 -270 l 1
 126 -270 l 1
 148 -140 l 1
 126 -140 l 1xe8
EndSplineSet
EndChar

StartChar: Tcaron
Encoding: 446 356 293
Width: 480
GlyphClass: 2
Flags: MW
HStem: 0 21G<150 330 150 150> 520 160<10 150 10 470 330 470 330 330> 740 160<100 280 100 200>
VStem: 150 180<0 520 0 520>
LayerCount: 2
Fore
SplineSet
330 520 m 1
 330 0 l 1
 150 0 l 1
 150 520 l 1
 10 520 l 1
 10 680 l 1
 470 680 l 1
 470 520 l 1
 330 520 l 1
280 740 m 1
 200 740 l 1
 100 900 l 1
 164 900 l 1
 240 815 l 1
 316 900 l 1
 380 900 l 1
 280 740 l 1
EndSplineSet
EndChar

StartChar: tcaron
Encoding: 447 357 294
Width: 511
GlyphClass: 2
Flags: MW
HStem: -9 65<267 300 267 267> 400 60<30 105 185 269> 620 80<381 403 381 461 381 461>
VStem: 105 80<180 181 181 400 460 480 480 480> 381 80<620 700 620 700>
LayerCount: 2
Fore
SplineSet
105 400 m 1
 30 400 l 1
 30 440 l 1
 105 460 l 1
 105 480 l 1
 125 610 l 1
 185 610 l 1
 185 460 l 1
 269 460 l 1
 269 400 l 1
 185 400 l 1
 185 181 l 2
 185 83 197 56 266 56 c 2
 300 56 l 1
 300 -9 l 1
 267 -9 l 1
 117 0 105 44 105 180 c 2
 105 400 l 1
415 490 m 1
 381 490 l 1
 403 620 l 1
 381 620 l 1
 381 700 l 1
 461 700 l 1
 461 620 l 1
 415 490 l 1
EndSplineSet
EndChar

StartChar: Tbar
Encoding: 448 358 295
Width: 560
GlyphClass: 2
Flags: MW
HStem: 0 21G<240 330 240 240> 350 80<70 240 70 240 330 490> 620 80<50 240 50 510 330 330 330 510>
VStem: 240 90<0 350 0 350 430 620>
LayerCount: 2
Fore
SplineSet
240 620 m 1
 50 620 l 1
 50 700 l 1
 510 700 l 1
 510 620 l 1
 330 620 l 1
 330 430 l 1
 490 430 l 1
 490 350 l 1
 330 350 l 1
 330 0 l 1
 240 0 l 1
 240 350 l 1
 70 350 l 1
 70 430 l 1
 240 430 l 1
 240 620 l 1
EndSplineSet
EndChar

StartChar: tbar
Encoding: 449 359 296
Width: 331
GlyphClass: 2
Flags: MW
HStem: -9 65<267 300 267 267> 238 74<50 105 50 105 185 270 185 199> 380 80<30 105 30 105 185 290>
VStem: 105 80<228.5 238 228.5 238 228.5 238 312 380 460 580>
LayerCount: 2
Fore
SplineSet
105 380 m 1
 30 380 l 1
 30 460 l 1
 105 460 l 1
 105 580 l 1
 185 580 l 1
 185 460 l 1
 290 460 l 1
 290 380 l 1
 185 380 l 1
 185 312 l 1
 270 312 l 1
 270 238 l 1
 242 238 213 238 185 238 c 1
 185 219 184 200 184 181 c 0
 184 83 197 57 266 56 c 2
 300 56 l 1
 300 -9 l 1
 267 -9 l 1
 116 2 105 41 105 180 c 2
 105 238 l 1
 50 238 l 1
 50 312 l 1
 105 312 l 1
 105 380 l 1
EndSplineSet
EndChar

StartChar: Utilde
Encoding: 450 360 297
Width: 640
GlyphClass: 2
Flags: MW
HStem: -10 170<285 355 285 405> 760 80<373 393 373 403> 800 80<247 267>
VStem: 50 180<270 310 310 680> 410 180<310 680>
LayerCount: 2
Fore
SplineSet
50 270 m 2xb8
 50 680 l 1
 230 680 l 1
 230 310 l 2
 230 211 250 160 320 160 c 0
 390 160 410 211 410 310 c 2
 410 680 l 1
 590 680 l 1
 590 270 l 2
 590 86 490 -10 320 -10 c 0
 150 -10 50 86 50 270 c 2xb8
217 760 m 1xd8
 167 760 l 1
 181 847 217 880 257 880 c 0xb8
 282 880 304 870 326 859 c 0
 342 850 363 840 383 840 c 0xd8
 403 840 418 852 423 880 c 1xb8
 473 880 l 1
 459 793 423 760 383 760 c 0xd8
 358 760 337 769 316 780 c 0
 299 789 277 800 257 800 c 0xb8
 237 800 222 788 217 760 c 1xd8
EndSplineSet
EndChar

StartChar: utilde
Encoding: 451 361 298
Width: 478
GlyphClass: 2
Flags: MW
HStem: -10 65<178 237.5> 0 21G<374 433 374 374> 540 80<292 312 292 322> 580 80<166 186>
VStem: 45 80<165 460> 354 79<154 460 0 460>
LayerCount: 2
Fore
SplineSet
354 154 m 1x9c
 354 460 l 1
 433 460 l 1
 433 0 l 1
 374 0 l 1x6c
 357 83 l 1
 323 36 275 -10 200 -10 c 0
 51 -10 45 98 45 165 c 2
 45 460 l 1
 125 460 l 1
 125 165 l 2
 125 121 134 55 222 55 c 0
 266 55 330 90 354 154 c 1x9c
136 540 m 1
 86 540 l 1
 100 627 136 660 176 660 c 0x9c
 201 660 223 650 245 639 c 0
 261 630 282 620 302 620 c 0xac
 322 620 337 632 342 660 c 1x9c
 392 660 l 1
 378 573 342 540 302 540 c 0xac
 277 540 256 549 235 560 c 0
 218 569 196 580 176 580 c 0x9c
 156 580 141 568 136 540 c 1
EndSplineSet
EndChar

StartChar: Umacron
Encoding: 452 362 299
Width: 560
GlyphClass: 2
Flags: MW
HStem: -10 170<245 315 245 365> 750 70<145 415 145 415>
VStem: 10 180<270 310 310 680> 370 180<310 680>
LayerCount: 2
Fore
SplineSet
415 750 m 1
 145 750 l 1
 145 820 l 1
 415 820 l 1
 415 750 l 1
10 270 m 2
 10 680 l 1
 190 680 l 1
 190 310 l 2
 190 211 210 160 280 160 c 0
 350 160 370 211 370 310 c 2
 370 680 l 1
 550 680 l 1
 550 270 l 2
 550 86 450 -10 280 -10 c 0
 110 -10 10 86 10 270 c 2
EndSplineSet
EndChar

StartChar: umacron
Encoding: 453 363 300
Width: 478
GlyphClass: 2
Flags: MW
HStem: -10 65<178 237.5> 0 21G<374 433 374 374> 570 70<104 374 104 374>
VStem: 45 80<165 460> 104 270<570 640> 354 79<154 460 0 460>
LayerCount: 2
Fore
SplineSet
354 154 m 1xb4
 354 460 l 1
 433 460 l 1
 433 0 l 1
 374 0 l 1x74
 357 83 l 1
 323 36 275 -10 200 -10 c 0
 51 -10 45 98 45 165 c 2
 45 460 l 1
 125 460 l 1
 125 165 l 2
 125 121 134 55 222 55 c 0
 266 55 330 90 354 154 c 1xb4
374 640 m 1xa8
 374 570 l 1
 104 570 l 1
 104 640 l 1
 374 640 l 1xa8
EndSplineSet
EndChar

StartChar: Ubreve
Encoding: 454 364 301
Width: 560
GlyphClass: 2
Flags: MW
HStem: -10 170<245 315 245 365> 750 60<262.5 297.5 262.5 320>
VStem: 10 180<270 310 310 680> 125 80<860 890 860 890> 355 80<860 890> 370 180<310 680>
LayerCount: 2
Fore
SplineSet
125 890 m 1xd8
 205 890 l 1
 205 830 245 810 280 810 c 0
 315 810 355 830 355 890 c 1
 435 890 l 1
 435 790 360 750 280 750 c 0
 200 750 125 790 125 890 c 1xd8
10 270 m 2xe4
 10 680 l 1
 190 680 l 1
 190 310 l 2
 190 211 210 160 280 160 c 0
 350 160 370 211 370 310 c 2
 370 680 l 1
 550 680 l 1
 550 270 l 2
 550 86 450 -10 280 -10 c 0
 110 -10 10 86 10 270 c 2xe4
EndSplineSet
EndChar

StartChar: ubreve
Encoding: 455 365 302
Width: 478
GlyphClass: 2
Flags: MW
HStem: -10 65<178 237.5> 0 21G<374 433 374 374> 520 60<221.5 256.5 221.5 279>
VStem: 45 80<165 460> 84 80<630 660 630 660> 314 80<630 660> 354 79<154 460 0 460>
LayerCount: 2
Fore
SplineSet
354 154 m 1xb2
 354 460 l 1
 433 460 l 1
 433 0 l 1
 374 0 l 1x6a
 357 83 l 1
 323 36 275 -10 200 -10 c 0
 51 -10 45 98 45 165 c 2
 45 460 l 1
 125 460 l 1
 125 165 l 2
 125 121 134 55 222 55 c 0
 266 55 330 90 354 154 c 1xb2
84 660 m 1
 164 660 l 1
 164 600 204 580 239 580 c 0
 274 580 314 600 314 660 c 1
 394 660 l 1xac
 394 560 319 520 239 520 c 0
 159 520 84 560 84 660 c 1
EndSplineSet
EndChar

StartChar: Uring
Encoding: 456 366 303
Width: 560
GlyphClass: 2
Flags: MW
HStem: -10 170<245 315 245 365> 741 47<262.5 279.5 262.5 292.5> 850 47<262.5 279.5>
VStem: 10 180<270 310 310 680> 193 47<810.5 827.5 810.5 840.5> 302 47<810.5 827.5> 370 180<310 680>
LayerCount: 2
Fore
SplineSet
240 819 m 0
 240 802 254 788 271 788 c 0
 288 788 302 802 302 819 c 0
 302 836 288 850 271 850 c 0
 254 850 240 836 240 819 c 0
10 270 m 2
 10 680 l 1
 190 680 l 1
 190 310 l 2
 190 211 210 160 280 160 c 0
 350 160 370 211 370 310 c 2
 370 680 l 1
 550 680 l 1
 550 270 l 2
 550 86 450 -10 280 -10 c 0
 110 -10 10 86 10 270 c 2
193 819 m 0
 193 862 228 897 271 897 c 0
 314 897 349 862 349 819 c 0
 349 776 314 741 271 741 c 0
 228 741 193 776 193 819 c 0
EndSplineSet
EndChar

StartChar: uring
Encoding: 457 367 304
Width: 478
GlyphClass: 2
Flags: MW
HStem: -10 65<178 237.5> 0 21G<374 433 374 374> 541 47<230.5 247.5 230.5 260.5> 650 47<230.5 247.5>
VStem: 45 80<165 460> 161 47<610.5 627.5 610.5 640.5> 270 47<610.5 627.5> 354 79<154 460 0 460>
LayerCount: 2
Fore
SplineSet
208 619 m 0xbf
 208 602 222 588 239 588 c 0
 256 588 270 602 270 619 c 0
 270 636 256 650 239 650 c 0
 222 650 208 636 208 619 c 0xbf
354 154 m 1
 354 460 l 1
 433 460 l 1
 433 0 l 1
 374 0 l 1x7f
 357 83 l 1
 323 36 275 -10 200 -10 c 0
 51 -10 45 98 45 165 c 2
 45 460 l 1
 125 460 l 1
 125 165 l 2
 125 121 134 55 222 55 c 0
 266 55 330 90 354 154 c 1
161 619 m 0
 161 662 196 697 239 697 c 0
 282 697 317 662 317 619 c 0
 317 576 282 541 239 541 c 0
 196 541 161 576 161 619 c 0
EndSplineSet
EndChar

StartChar: Uhungarumlaut
Encoding: 458 368 305
Width: 640
GlyphClass: 2
Flags: MW
HStem: -10 170<285 355 285 405> 730 180<248 267 203 328 298 328 358 362 298 298>
VStem: 50 180<270 310 310 680> 410 180<310 680>
LayerCount: 2
Fore
SplineSet
50 270 m 2
 50 680 l 1
 230 680 l 1
 230 310 l 2
 230 211 250 160 320 160 c 0
 390 160 410 211 410 310 c 2
 410 680 l 1
 590 680 l 1
 590 270 l 2
 590 86 490 -10 320 -10 c 0
 150 -10 50 86 50 270 c 2
362 730 m 1
 298 730 l 1
 358 910 l 1
 438 910 l 1
 362 730 l 1
267 730 m 1
 203 730 l 1
 248 910 l 1
 328 910 l 1
 267 730 l 1
EndSplineSet
EndChar

StartChar: uhungarumlaut
Encoding: 459 369 306
Width: 478
GlyphClass: 2
Flags: MW
HStem: -10 65<178 237.5> 0 21G<374 433 374 374> 490 180<167 186 122 247 217 217 217 247 277 281>
VStem: 45 80<165 460> 354 79<154 460 0 460>
LayerCount: 2
Fore
SplineSet
354 154 m 1xb8
 354 460 l 1
 433 460 l 1
 433 0 l 1
 374 0 l 1x78
 357 83 l 1
 323 36 275 -10 200 -10 c 0
 51 -10 45 98 45 165 c 2
 45 460 l 1
 125 460 l 1
 125 165 l 2
 125 121 134 55 222 55 c 0
 266 55 330 90 354 154 c 1xb8
247 670 m 1
 186 490 l 1
 122 490 l 1
 167 670 l 1
 247 670 l 1
357 670 m 1
 281 490 l 1
 217 490 l 1
 277 670 l 1
 357 670 l 1
EndSplineSet
EndChar

StartChar: Uogonek
Encoding: 460 370 307
Width: 560
GlyphClass: 2
Flags: MW
HStem: -209 55<435 441> -10 10 -10 90<247 334 247 377.5> 680 20G<50 140 140 140 420 510 510 510>
VStem: 50 90<224 274 274 700> 341 61<-121.5 -97> 420 90<274 700>
LayerCount: 2
Fore
SplineSet
50 224 m 2xba
 50 700 l 1
 140 700 l 1
 140 274 l 2
 140 147 204 80 290 80 c 0
 378 80 420 145 420 274 c 2
 420 700 l 1
 510 700 l 1
 510 224 l 2
 510 100 465 -10 290 -10 c 0
 92 -10 50 106 50 224 c 2xba
341 -124 m 0xbe
 341 -70 378 -25 412 0 c 1
 470 0 l 1
 429 -31 402 -69 402 -108 c 0
 402 -135 422 -154 448 -154 c 0
 462 -154 477 -149 488 -141 c 1xde
 510 -182 l 1
 497 -191 l 2xba
 478 -202 451 -209 431 -209 c 0
 381 -209 341 -180 341 -124 c 0xbe
EndSplineSet
EndChar

StartChar: uogonek
Encoding: 461 371 308
Width: 478
GlyphClass: 2
Flags: MW
HStem: -209 55<359 365> -10 65<156 200> 0 21G<336 374 374 374 394 394 394 434>
VStem: 45 80<165 190 190 460> 265 61<-121.5 -97> 353 81<230 460>
LayerCount: 2
Fore
SplineSet
265 -124 m 0xbc
 265 -70 302 -25 336 0 c 1xdc
 374 0 l 1
 354 90 l 1
 315 43 233 -10 167 -10 c 0
 50 -10 45 78 45 160 c 2
 45 460 l 1
 125 460 l 1
 125 190 l 2
 125 140 119 55 193 55 c 0xd4
 257 55 353 116 353 230 c 2
 353 460 l 1
 434 460 l 1
 434 0 l 1xb4
 394 0 l 1
 353 -31 326 -69 326 -108 c 0
 326 -135 346 -154 372 -154 c 0
 386 -154 401 -149 412 -141 c 1
 434 -182 l 1
 421 -191 l 2
 402 -202 375 -209 355 -209 c 0
 305 -209 265 -180 265 -124 c 0xbc
EndSplineSet
EndChar

StartChar: Wcircumflex
Encoding: 462 372 309
Width: 1061
GlyphClass: 2
Flags: MW
HStem: 0 97<257 317 317 317 317 375> 680 20G<50 157 157 157 477 584 584 584 904 1011 1011 1011> 760 180<370 570 370 570 490 626 490 690>
VStem: 50 961<700 700>
LayerCount: 2
Fore
SplineSet
257 0 m 1
 50 700 l 1
 157 700 l 1
 317 97 l 1
 477 700 l 1
 584 700 l 1
 744 97 l 1
 904 700 l 1
 1011 700 l 1
 802 0 l 1
 684 0 l 1
 530 520 l 1
 375 0 l 1
 257 0 l 1
434 760 m 1
 370 760 l 1
 490 940 l 1
 570 940 l 1
 690 760 l 1
 626 760 l 1
 530 887 l 1
 434 760 l 1
EndSplineSet
EndChar

StartChar: wcircumflex
Encoding: 463 373 310
Width: 724
GlyphClass: 2
Flags: MW
HStem: 0 65<156 215 215 215 215 266> 520 180<202 402 202 402 322 458 322 522> 647 53<362 362>
VStem: 35 654<460 460>
LayerCount: 2
Fore
SplineSet
156 0 m 1xd0
 35 460 l 1
 115 460 l 1
 215 65 l 1
 322 460 l 1
 402 460 l 1
 502 65 l 1
 609 460 l 1
 689 460 l 1
 553 0 l 1
 443 0 l 1
 360 317 l 1
 266 0 l 1
 156 0 l 1xd0
266 520 m 1
 202 520 l 1
 322 700 l 1
 402 700 l 1
 522 520 l 1
 458 520 l 1xd0
 362 647 l 1xb0
 266 520 l 1
EndSplineSet
EndChar

StartChar: Ycircumflex
Encoding: 464 374 311
Width: 594
GlyphClass: 2
Flags: MW
HStem: 0 21G<252 342 252 252> 680 20G<40 147 147 147 447 554 554 554> 760 180<137 337 137 337 257 393 257 457>
VStem: 252 90<0 310 0 310>
LayerCount: 2
Fore
SplineSet
252 310 m 1
 40 700 l 1
 147 700 l 1
 297 388 l 1
 447 700 l 1
 554 700 l 1
 342 310 l 1
 342 0 l 1
 252 0 l 1
 252 310 l 1
201 760 m 1
 137 760 l 1
 257 940 l 1
 337 940 l 1
 457 760 l 1
 393 760 l 1
 297 887 l 1
 201 760 l 1
EndSplineSet
EndChar

StartChar: ycircumflex
Encoding: 465 375 312
Width: 460
GlyphClass: 2
Flags: MW
HStem: -200 65<129 142.5 116 187.5> 520 180<70 270 70 270 190 326 190 390> 647 53<230 230>
VStem: 30 400<460 460>
LayerCount: 2
Fore
SplineSet
30 460 m 1xd0
 110 460 l 1
 137 398 216 219 239 98 c 1
 354 460 l 1
 430 460 l 1
 258 -49 l 2
 252 -67 225 -200 150 -200 c 0
 108 -200 89 -198 58 -190 c 1
 58 -120 l 1
 78 -129 94 -135 116 -135 c 2
 122 -135 l 2
 163 -135 187 -54 198 -12 c 1
 172 145 70 374 30 460 c 1xd0
134 520 m 1
 70 520 l 1
 190 700 l 1
 270 700 l 1
 390 520 l 1
 326 520 l 1xd0
 230 647 l 1xb0
 134 520 l 1
EndSplineSet
EndChar

StartChar: Ydieresis
Encoding: 466 376 313
Width: 594
GlyphClass: 2
Flags: MW
HStem: 0 21G<252 342 252 252> 680 20G<40 147 147 147 447 554 554 554> 760 80<178 258 178 258 178 335 335 415>
VStem: 178 80<760 840> 252 90<0 310 0 310> 335 80<760 840>
LayerCount: 2
Fore
SplineSet
252 310 m 1xe8
 40 700 l 1
 147 700 l 1
 297 388 l 1
 447 700 l 1
 554 700 l 1
 342 310 l 1
 342 0 l 1
 252 0 l 1
 252 310 l 1xe8
258 760 m 1xf4
 178 760 l 1
 178 840 l 1
 258 840 l 1
 258 760 l 1xf4
415 760 m 1
 335 760 l 1
 335 840 l 1
 415 840 l 1
 415 760 l 1
EndSplineSet
EndChar

StartChar: Zacute
Encoding: 467 377 314
Width: 510
GlyphClass: 2
Flags: MW
HStem: 0 80<140 460 50 50> 620 80<50 370 50 460 50 460> 760 180<240 254 190 320>
VStem: 50 90<0 80 80 80> 370 90<620 620>
LayerCount: 2
Fore
SplineSet
460 0 m 1
 50 0 l 1
 50 80 l 1
 370 620 l 1
 50 620 l 1
 50 700 l 1
 460 700 l 1
 460 620 l 1
 140 80 l 1
 460 80 l 1
 460 0 l 1
254 760 m 1
 190 760 l 1
 240 940 l 1
 320 940 l 1
 254 760 l 1
EndSplineSet
EndChar

StartChar: zacute
Encoding: 468 378 315
Width: 450
GlyphClass: 2
Flags: MW
HStem: 0 65<150 410 40 40> 395 65<40 310 40 410 40 410> 520 180<210 224 160 290>
VStem: 40 370<0 65 0 65 395 460>
LayerCount: 2
Fore
SplineSet
410 0 m 1
 40 0 l 1
 40 65 l 1
 310 395 l 1
 40 395 l 1
 40 460 l 1
 410 460 l 1
 410 395 l 1
 150 65 l 1
 410 65 l 1
 410 0 l 1
224 520 m 1
 160 520 l 1
 210 700 l 1
 290 700 l 1
 224 520 l 1
EndSplineSet
EndChar

StartChar: Zdotaccent
Encoding: 469 379 316
Width: 510
GlyphClass: 2
Flags: MW
HStem: 0 80<140 460 50 50> 620 80<50 370 50 460 50 460> 760 80<215 295 215 295>
VStem: 50 90<0 80 80 80> 215 80<760 840> 370 90<620 620>
CounterMasks: 1 1c
LayerCount: 2
Fore
SplineSet
460 0 m 1
 50 0 l 1
 50 80 l 1
 370 620 l 1
 50 620 l 1
 50 700 l 1
 460 700 l 1
 460 620 l 1
 140 80 l 1
 460 80 l 1
 460 0 l 1
295 760 m 1
 215 760 l 1
 215 840 l 1
 295 840 l 1
 295 760 l 1
EndSplineSet
EndChar

StartChar: zdotaccent
Encoding: 470 380 317
Width: 450
GlyphClass: 2
Flags: MW
HStem: 0 65<150 410 40 40> 395 65<40 310 40 410 40 410> 520 80<185 265 185 265>
VStem: 185 80<520 600>
LayerCount: 2
Fore
SplineSet
410 0 m 1
 40 0 l 1
 40 65 l 1
 310 395 l 1
 40 395 l 1
 40 460 l 1
 410 460 l 1
 410 395 l 1
 150 65 l 1
 410 65 l 1
 410 0 l 1
265 520 m 1
 185 520 l 1
 185 600 l 1
 265 600 l 1
 265 520 l 1
EndSplineSet
EndChar

StartChar: Zcaron
Encoding: 471 381 318
Width: 510
GlyphClass: 2
Flags: MW
HStem: 0 80<140 460 50 50> 620 80<50 370 50 460 50 460> 760 180<95 215 95 295>
VStem: 50 90<0 80 80 80> 370 90<620 620>
LayerCount: 2
Fore
SplineSet
460 0 m 1
 50 0 l 1
 50 80 l 1
 370 620 l 1
 50 620 l 1
 50 700 l 1
 460 700 l 1
 460 620 l 1
 140 80 l 1
 460 80 l 1
 460 0 l 1
215 760 m 1
 95 940 l 1
 159 940 l 1
 255 813 l 1
 351 940 l 1
 415 940 l 1
 295 760 l 1
 215 760 l 1
EndSplineSet
EndChar

StartChar: zcaron
Encoding: 472 382 319
Width: 450
GlyphClass: 2
Flags: MW
HStem: 0 65<150 410 40 40> 395 65<40 310 40 410 40 410> 520 53<185 225 225 225 225 265> 520 180<65 185 65 265>
VStem: 40 370<0 65 0 65 395 460>
LayerCount: 2
Fore
SplineSet
410 0 m 1xd8
 40 0 l 1
 40 65 l 1
 310 395 l 1
 40 395 l 1
 40 460 l 1
 410 460 l 1
 410 395 l 1
 150 65 l 1
 410 65 l 1
 410 0 l 1xd8
185 520 m 1
 65 700 l 1
 129 700 l 1xd8
 225 573 l 1xe8
 321 700 l 1
 385 700 l 1
 265 520 l 1
 185 520 l 1
EndSplineSet
EndChar

StartChar: longs
Encoding: 473 383 320
Width: 421
GlyphClass: 2
Flags: MW
HStem: 0 21G<145 225 145 145> 380 80<80 145 80 145> 635 65<300 341 307 341>
VStem: 145 80<0 380 380 380 0 500 0 571>
LayerCount: 2
Fore
SplineSet
145 380 m 1
 80 380 l 1
 80 460 l 1
 145 460 l 1
 145 500 l 2
 145 642 156 693 307 700 c 1
 341 700 l 1
 341 635 l 1
 307 635 l 2
 293 635 282 634 272 631 c 0
 226 618 225 574 225 458 c 2
 225 0 l 1
 145 0 l 1
 145 380 l 1
EndSplineSet
EndChar

StartChar: florin
Encoding: 474 402 321
Width: 495
GlyphClass: 2
Flags: MW
HStem: -187 69<116 125> 392 60<158 236 149 247 326 404> 567 73<386.5 397.5 337 402>
VStem: 22 451
LayerCount: 2
Fore
SplineSet
22 -176 m 1
 36 -109 l 1
 65 -114 l 2
 82 -117 94 -118 103 -118 c 0
 159 -118 157 -60 164 -20 c 2
 236 392 l 1
 149 392 l 1
 158 452 l 1
 247 452 l 1
 256 511 l 2
 270 590 294 640 380 640 c 0
 415 640 440 631 465 625 c 2
 473 623 l 1
 458 556 l 1
 427 563 412 567 392 567 c 0
 381 567 374 566 367 563 c 0
 347 554 342 532 335 498 c 2
 326 452 l 1
 415 452 l 1
 404 392 l 1
 315 392 l 1
 238 -43 l 2
 221 -127 210 -172 151 -184 c 0
 141 -186 131 -187 119 -187 c 0
 113 -187 78 -187 22 -176 c 1
EndSplineSet
EndChar

StartChar: uni01C4
Encoding: 475 452 322
Width: 1170
GlyphClass: 2
Flags: MW
HStem: 0 80<140 328 140 328 800 1120> 620 80<140 328 140 140 710 1030> 770 180<755 955 755 875>
VStem: 50 90<80 620 80 700 80 700> 520 90<295.5 424> 710 90<0 80 80 80> 1030 90<620 620>
LayerCount: 2
Fore
SplineSet
328 620 m 2
 140 620 l 1
 140 80 l 1
 328 80 l 2
 478 80 520 241 520 350 c 0
 520 498 477 620 328 620 c 2
328 0 m 2
 50 0 l 1
 50 700 l 1
 328 700 l 2
 518 700 610 550 610 350 c 0
 610 147 519 0 328 0 c 2
1120 80 m 1
 1120 0 l 1
 710 0 l 1
 710 80 l 1
 1030 620 l 1
 710 620 l 1
 710 700 l 1
 1120 700 l 1
 1120 620 l 1
 800 80 l 1
 1120 80 l 1
955 770 m 1
 875 770 l 1
 755 950 l 1
 819 950 l 1
 915 823 l 1
 1011 950 l 1
 1075 950 l 1
 955 770 l 1
EndSplineSet
EndChar

StartChar: uni01C5
Encoding: 476 453 323
Width: 1110
GlyphClass: 2
Flags: MW
HStem: 0 65<700 700 810 1070> 0 80<140 328 140 328> 395 65<700 970 700 1070 700 1070> 530 180<730 930 730 850> 620 80<140 328 140 140>
VStem: 50 90<80 620 80 700 80 700> 520 90<295.5 424>
LayerCount: 2
Fore
SplineSet
328 620 m 2x6e
 140 620 l 1
 140 80 l 1
 328 80 l 2
 478 80 520 241 520 350 c 0
 520 498 477 620 328 620 c 2x6e
328 0 m 2
 50 0 l 1
 50 700 l 1
 328 700 l 2
 518 700 610 550 610 350 c 0
 610 147 519 0 328 0 c 2
1070 65 m 1xb6
 1070 0 l 1
 700 0 l 1
 700 65 l 1
 970 395 l 1
 700 395 l 1
 700 460 l 1
 1070 460 l 1
 1070 395 l 1
 810 65 l 1
 1070 65 l 1xb6
930 530 m 1
 850 530 l 1
 730 710 l 1
 794 710 l 1
 890 583 l 1
 986 710 l 1
 1050 710 l 1
 930 530 l 1
EndSplineSet
EndChar

StartChar: uni01C6
Encoding: 477 454 324
Width: 941
GlyphClass: 2
Flags: MW
HStem: -10 65<200.5 254> 0 65<531 531 641 901> 395 65<531 801 531 901 531 901> 405 66<190 256 159 287.5> 530 180<561 761 561 681> 680 20G<366 446 446 446>
VStem: 35 80<176.5 230> 366 80<0 72 72 72 381 700 0 700>
LayerCount: 2
Fore
SplineSet
115 230 m 0x97
 115 123 156 55 245 55 c 0
 324 55 365 123 365 230 c 0
 365 321 330 405 245 405 c 0
 135 405 115 305 115 230 c 0x97
35 230 m 1
 36 231 l 1
 36 345 92 471 226 471 c 0
 286 471 338 437 366 381 c 1
 366 700 l 1
 446 700 l 1
 446 0 l 1
 366 0 l 1x57
 366 72 l 1
 343 21 283 -10 225 -10 c 0
 96 -10 35 100 35 230 c 1
901 65 m 1
 901 0 l 1
 531 0 l 1
 531 65 l 1
 801 395 l 1
 531 395 l 1
 531 460 l 1
 901 460 l 1
 901 395 l 1x6b
 641 65 l 1
 901 65 l 1
761 530 m 1
 681 530 l 1
 561 710 l 1
 625 710 l 1
 721 583 l 1
 817 710 l 1
 881 710 l 1
 761 530 l 1
EndSplineSet
EndChar

StartChar: uni01C7
Encoding: 478 455 325
Width: 796
GlyphClass: 2
Flags: MW
HStem: 0 160<190 500 190 500 560 586 586 606 190 634 190 560>
VStem: 190 310<0 160 0 160> 658 180<240 244 244 680>
LayerCount: 2
Fore
SplineSet
634 0 m 2
 560 0 l 1
 560 160 l 1
 586 160 l 2
 626 160 658 176 658 240 c 2
 658 680 l 1
 838 680 l 1
 838 244 l 2
 838 110 806 0 634 0 c 2
190 0 m 1
 190 160 l 1
 500 160 l 1
 500 0 l 1
 190 0 l 1
EndSplineSet
EndChar

StartChar: uni01C8
Encoding: 479 456 326
Width: 740
GlyphClass: 2
Flags: MW
HStem: -200 60<538.5 558 538.5 582> 0 160<190 500 190 500> 560 80<590 670 590 670>
VStem: 190 310<0 160 0 160> 442 65<-100 -100> 590 80<-80 -60 -60 460 560 640>
LayerCount: 2
Fore
SplineSet
670 560 m 1xec
 590 560 l 1
 590 640 l 1
 670 640 l 1
 670 560 l 1xec
442 -100 m 1
 507 -100 l 1
 510 -132 531 -140 546 -140 c 0
 570 -140 590 -136 590 -80 c 2
 590 460 l 1
 670 460 l 1
 670 -60 l 2
 670 -181 614 -200 550 -200 c 0
 494 -200 446 -162 442 -100 c 1
190 0 m 1xf4
 190 160 l 1xf4
 500 160 l 1
 500 0 l 1xec
 190 0 l 1xf4
EndSplineSet
EndChar

StartChar: uni01C9
Encoding: 480 457 327
Width: 450
GlyphClass: 2
Flags: MW
HStem: -200 60<248.5 268 248.5 292> 0 21G<70 250 70 70> 560 80<300 380 300 380> 560 140<70 380 70 300>
VStem: 70 180<0 700> 152 65<-100 -100> 300 80<-80 -60 -60 460 560 640>
LayerCount: 2
Fore
SplineSet
380 560 m 1xea
 300 560 l 1
 300 640 l 1
 380 640 l 1
 380 560 l 1xea
152 -100 m 1
 217 -100 l 1xe6
 220 -132 241 -140 256 -140 c 0
 280 -140 300 -136 300 -80 c 2
 300 460 l 1
 380 460 l 1
 380 -60 l 2
 380 -181 324 -200 260 -200 c 0
 204 -200 156 -162 152 -100 c 1
250 0 m 1xda
 70 0 l 1
 70 700 l 1
 250 700 l 1
 250 0 l 1xda
EndSplineSet
EndChar

StartChar: uni01CA
Encoding: 481 458 328
Width: 886
GlyphClass: 2
Flags: MW
HStem: 0 160<374 676 650 676 650 676 676 696 650 724>
VStem: -40 180<0 320 0 680> 394 180<360 680 0 680> 748 180<240 244 244 680>
LayerCount: 2
Fore
SplineSet
140 320 m 2
 140 0 l 1
 -40 0 l 1
 -40 680 l 1
 160 680 l 1
 397 292 l 1
 394 318 394 342 394 360 c 2
 394 680 l 1
 574 680 l 1
 574 0 l 1
 374 0 l 1
 137 388 l 1
 140 362 140 338 140 320 c 2
724 0 m 2
 650 0 l 1
 650 160 l 1
 676 160 l 2
 716 160 748 176 748 240 c 2
 748 680 l 1
 928 680 l 1
 928 244 l 2
 928 110 896 0 724 0 c 2
EndSplineSet
EndChar

StartChar: uni01CB
Encoding: 482 459 329
Width: 830
GlyphClass: 2
Flags: MW
HStem: -200 60<628.5 648 628.5 672> 0 21G<-40 140 -40 -40 374 374 374 574> 560 80<680 760 680 760>
VStem: -40 180<0 320 0 680> 394 180<360 680 0 680> 532 65<-100 -100> 680 80<-80 -60 -60 460 560 640>
LayerCount: 2
Fore
SplineSet
532 -100 m 1xf6
 597 -100 l 1
 600 -132 621 -140 636 -140 c 0
 660 -140 680 -136 680 -80 c 2
 680 460 l 1
 760 460 l 1
 760 -60 l 2
 760 -181 704 -200 640 -200 c 0
 584 -200 536 -162 532 -100 c 1xf6
140 320 m 2
 140 0 l 1
 -40 0 l 1
 -40 680 l 1
 160 680 l 1
 397 292 l 1
 394 318 394 342 394 360 c 2
 394 680 l 1
 574 680 l 1
 574 0 l 1xfa
 374 0 l 1
 137 388 l 1
 140 362 140 338 140 320 c 2
760 640 m 1
 760 560 l 1
 680 560 l 1
 680 640 l 1
 760 640 l 1
EndSplineSet
EndChar

StartChar: uni01CC
Encoding: 483 460 330
Width: 708
GlyphClass: 2
Flags: MW
HStem: -200 60<506.5 526 506.5 550> 0 21G<45 225 45 45> 560 80<558 638 558 638>
VStem: 45 180<0 360> 410 65<-100 -100> 558 80<-80 -60 -60 460 560 640>
LayerCount: 2
Fore
SplineSet
638 560 m 1
 558 560 l 1
 558 640 l 1
 638 640 l 1
 638 560 l 1
410 -100 m 1
 475 -100 l 1
 478 -132 499 -140 514 -140 c 0
 538 -140 558 -136 558 -80 c 2
 558 460 l 1
 638 460 l 1
 638 -60 l 2
 638 -181 582 -200 518 -200 c 0
 462 -200 414 -162 410 -100 c 1
225 0 m 1
 45 0 l 1
 45 460 l 1
 205 460 l 1
 225 360 l 1
 225 0 l 1
EndSplineSet
EndChar

StartChar: uni01CD
Encoding: 484 461 331
Width: 570
GlyphClass: 2
Flags: MW
HStem: 0 21G<-30 150 -30 -30 420 600 420 420> 115 180<240 330 240 385 185 330> 750 160<145 325 145 245>
VStem: -30 630<0 0>
LayerCount: 2
Fore
SplineSet
330 295 m 1
 285 441 l 1
 240 295 l 1
 330 295 l 1
420 0 m 1
 385 115 l 1
 185 115 l 1
 150 0 l 1
 -30 0 l 1
 178 680 l 1
 390 680 l 1
 600 0 l 1
 420 0 l 1
325 750 m 1
 245 750 l 1
 145 910 l 1
 209 910 l 1
 285 825 l 1
 361 910 l 1
 425 910 l 1
 325 750 l 1
EndSplineSet
EndChar

StartChar: uni01CE
Encoding: 485 462 332
Width: 493
GlyphClass: 2
Flags: MW
HStem: -10 70<179.5 214.5> 0 21G<362 422 362 362> 405 65<214.5 270> 520 160<110 290 110 210>
VStem: 45 80<102 147 102 166.5> 342 80<117 239 239 239 288 319 0 330 0 351>
LayerCount: 2
Fore
SplineSet
342 117 m 1xbc
 342 239 l 1
 275 228 l 2
 180 213 125 173 125 121 c 0
 125 83 155 60 204 60 c 0
 257 60 308 81 342 117 c 1xbc
271 281 m 2
 342 288 l 1
 342 330 l 2
 342 372 298 405 242 405 c 0
 187 405 154 378 150 330 c 1
 70 330 l 1
 77 412 148 470 243 470 c 0
 358 470 422 416 422 319 c 2
 422 0 l 1
 362 0 l 1x7c
 344 54 l 1
 305 13 247 -10 182 -10 c 0
 101 -10 45 44 45 123 c 0
 45 210 126 268 271 281 c 2
290 520 m 1
 210 520 l 1
 110 680 l 1
 174 680 l 1
 250 595 l 1
 326 680 l 1
 390 680 l 1
 290 520 l 1
EndSplineSet
EndChar

StartChar: uni01CF
Encoding: 486 463 333
Width: 280
GlyphClass: 2
Flags: MW
HStem: 0 21G<50 230 50 50> 740 160<0 180 0 100>
VStem: 50 180<0 680 0 680>
LayerCount: 2
Fore
SplineSet
230 680 m 1
 230 0 l 1
 50 0 l 1
 50 680 l 1
 230 680 l 1
180 740 m 1
 100 740 l 1
 0 900 l 1
 64 900 l 1
 140 815 l 1
 216 900 l 1
 280 900 l 1
 180 740 l 1
EndSplineSet
EndChar

StartChar: uni01D0
Encoding: 487 464 334
Width: 280
GlyphClass: 2
Flags: MW
HStem: 0 21G<100 280 100 100> 520 160<0 180 0 100>
VStem: 100 180<0 460 0 460 0 520>
LayerCount: 2
Fore
SplineSet
280 460 m 1
 280 0 l 1
 100 0 l 1
 100 460 l 1
 280 460 l 1
180 520 m 1
 100 520 l 1
 0 680 l 1
 64 680 l 1
 140 595 l 1
 216 680 l 1
 280 680 l 1
 180 520 l 1
EndSplineSet
EndChar

StartChar: uni01D1
Encoding: 488 465 335
Width: 696
GlyphClass: 2
Flags: MW
HStem: -10 160<306 390 306 450.5> 530 160<306 390> 740 160<210 390 210 310>
VStem: 30 180<282.5 397.5 282.5 453> 486 180<282.5 397.5>
LayerCount: 2
Fore
SplineSet
348 530 m 0
 264 530 210 455 210 340 c 0
 210 225 264 150 348 150 c 0
 432 150 486 225 486 340 c 0
 486 455 432 530 348 530 c 0
348 -10 m 0
 143 -10 30 114 30 340 c 0
 30 566 143 690 348 690 c 0
 553 690 666 566 666 340 c 0
 666 114 553 -10 348 -10 c 0
390 740 m 1
 310 740 l 1
 210 900 l 1
 274 900 l 1
 350 815 l 1
 426 900 l 1
 490 900 l 1
 390 740 l 1
EndSplineSet
EndChar

StartChar: uni01D3
Encoding: 490 467 337
Width: 560
GlyphClass: 2
Flags: MW
HStem: -10 170<245 315 245 365> 750 160<140 320 140 240>
VStem: 10 180<270 310 310 680> 370 180<310 680>
LayerCount: 2
Fore
SplineSet
10 270 m 2
 10 680 l 1
 190 680 l 1
 190 310 l 2
 190 211 210 160 280 160 c 0
 350 160 370 211 370 310 c 2
 370 680 l 1
 550 680 l 1
 550 270 l 2
 550 86 450 -10 280 -10 c 0
 110 -10 10 86 10 270 c 2
320 750 m 1
 240 750 l 1
 140 910 l 1
 204 910 l 1
 280 825 l 1
 356 910 l 1
 420 910 l 1
 320 750 l 1
EndSplineSet
EndChar

StartChar: uni01D4
Encoding: 491 468 338
Width: 478
GlyphClass: 2
Flags: MW
HStem: -10 65<178 237.5> 0 21G<374 433 374 374> 520 160<99 279 99 199>
VStem: 45 80<165 460> 354 79<154 460 0 460>
LayerCount: 2
Fore
SplineSet
354 154 m 1xb8
 354 460 l 1
 433 460 l 1
 433 0 l 1
 374 0 l 1x78
 357 83 l 1
 323 36 275 -10 200 -10 c 0
 51 -10 45 98 45 165 c 2
 45 460 l 1
 125 460 l 1
 125 165 l 2
 125 121 134 55 222 55 c 0
 266 55 330 90 354 154 c 1xb8
279 520 m 1
 199 520 l 1
 99 680 l 1
 163 680 l 1
 239 595 l 1
 315 680 l 1
 379 680 l 1
 279 520 l 1
EndSplineSet
EndChar

StartChar: uni01D5
Encoding: 492 469 339
Width: 560
GlyphClass: 2
Flags: MW
HStem: -10 90<233.5 333.5 233.5 376.5> 680 20G<49 139 139 139 419 509 509 509> 770 80<161 241 161 241 161 318 318 398> 910 65<145 415 145 415>
VStem: 49 90<227 274 274 700> 161 80<770 850> 318 80<770 850> 419 90<274 700>
LayerCount: 2
Fore
SplineSet
415 910 m 1
 145 910 l 1
 145 975 l 1
 415 975 l 1
 415 910 l 1
241 770 m 1xff
 161 770 l 1
 161 850 l 1
 241 850 l 1
 241 770 l 1xff
398 770 m 1
 318 770 l 1
 318 850 l 1
 398 850 l 1
 398 770 l 1
49 224 m 2xf9
 49 700 l 1
 139 700 l 1
 139 274 l 2
 139 180 178 80 289 80 c 0
 378 80 419 147 419 274 c 2
 419 700 l 1
 509 700 l 1
 509 224 l 2
 509 100 464 -10 289 -10 c 0
 91 -10 49 106 49 224 c 2xf9
EndSplineSet
EndChar

StartChar: uni01D7
Encoding: 494 471 341
Width: 560
GlyphClass: 2
Flags: MW
HStem: -10 90<233.5 333.5 233.5 376.5> 680 20G<49 139 139 139 419 509 509 509> 770 80<161 241 161 241 161 318 318 398> 910 180<298 312 248 378>
VStem: 49 90<227 274 274 700> 161 80<770 850> 318 80<770 850> 419 90<274 700>
LayerCount: 2
Fore
SplineSet
312 910 m 1
 248 910 l 1
 298 1090 l 1
 378 1090 l 1
 312 910 l 1
241 770 m 1xff
 161 770 l 1
 161 850 l 1
 241 850 l 1
 241 770 l 1xff
398 770 m 1
 318 770 l 1
 318 850 l 1
 398 850 l 1
 398 770 l 1
49 224 m 2xf9
 49 700 l 1
 139 700 l 1
 139 274 l 2
 139 180 178 80 289 80 c 0
 378 80 419 147 419 274 c 2
 419 700 l 1
 509 700 l 1
 509 224 l 2
 509 100 464 -10 289 -10 c 0
 91 -10 49 106 49 224 c 2xf9
EndSplineSet
EndChar

StartChar: uni01D9
Encoding: 496 473 343
Width: 560
GlyphClass: 2
Flags: MW
HStem: -10 90<233.5 333.5 233.5 376.5> 680 20G<49 139 139 139 419 509 509 509> 770 80<161 241 161 241 161 318 318 398> 910 180<120 240 120 320>
VStem: 49 90<227 274 274 700> 161 80<770 850> 318 80<770 850> 419 90<274 700>
LayerCount: 2
Fore
SplineSet
240 910 m 1
 120 1090 l 1
 184 1090 l 1
 280 963 l 1
 376 1090 l 1
 440 1090 l 1
 320 910 l 1
 240 910 l 1
241 770 m 1xff
 161 770 l 1
 161 850 l 1
 241 850 l 1
 241 770 l 1xff
398 770 m 1
 318 770 l 1
 318 850 l 1
 398 850 l 1
 398 770 l 1
49 224 m 2xf9
 49 700 l 1
 139 700 l 1
 139 274 l 2
 139 180 178 80 289 80 c 0
 378 80 419 147 419 274 c 2
 419 700 l 1
 509 700 l 1
 509 224 l 2
 509 100 464 -10 289 -10 c 0
 91 -10 49 106 49 224 c 2xf9
EndSplineSet
EndChar

StartChar: uni01DA
Encoding: 497 474 344
Width: 478
GlyphClass: 2
Flags: MW
HStem: -10 65<180.5 199> 0 21G<353 433 353 353> 530 80<120 200 120 200 120 277 277 357> 670 180<79 199 79 279>
VStem: 44 80<163.5 190 190 460> 120 80<530 610> 277 80<530 610> 353 80<0 90 90 90>
LayerCount: 2
Fore
SplineSet
199 670 m 1xb9
 79 850 l 1
 143 850 l 1
 239 723 l 1
 335 850 l 1
 399 850 l 1
 279 670 l 1
 199 670 l 1xb9
200 530 m 1xb6
 120 530 l 1
 120 610 l 1
 200 610 l 1
 200 530 l 1xb6
357 530 m 1
 277 530 l 1
 277 610 l 1
 357 610 l 1
 357 530 l 1
44 160 m 2xb9
 44 460 l 1
 124 460 l 1
 124 190 l 2
 124 137 124 94 144 72 c 0
 154 61 169 55 192 55 c 0xb9
 256 55 352 116 352 230 c 0
 352 307 352 383 352 460 c 1
 433 460 l 1
 433 0 l 1
 353 0 l 1x79
 353 90 l 1
 314 43 232 -10 166 -10 c 0
 49 -10 44 78 44 160 c 2xb9
EndSplineSet
EndChar

StartChar: uni01DB
Encoding: 498 475 345
Width: 560
GlyphClass: 2
Flags: MW
HStem: -10 90<233.5 333.5 233.5 376.5> 680 20G<49 139 139 139 419 509 509 509> 770 80<161 241 161 241 161 318 318 398> 910 180<248 248 248 262 182 312>
VStem: 49 90<227 274 274 700> 161 80<770 850> 318 80<770 850> 419 90<274 700>
LayerCount: 2
Fore
SplineSet
248 910 m 1
 182 1090 l 1
 262 1090 l 1
 312 910 l 1
 248 910 l 1
241 770 m 1xff
 161 770 l 1
 161 850 l 1
 241 850 l 1
 241 770 l 1xff
398 770 m 1
 318 770 l 1
 318 850 l 1
 398 850 l 1
 398 770 l 1
49 224 m 2xf9
 49 700 l 1
 139 700 l 1
 139 274 l 2
 139 180 178 80 289 80 c 0
 378 80 419 147 419 274 c 2
 419 700 l 1
 509 700 l 1
 509 224 l 2
 509 100 464 -10 289 -10 c 0
 91 -10 49 106 49 224 c 2xf9
EndSplineSet
EndChar

StartChar: uni01DC
Encoding: 499 476 346
Width: 478
GlyphClass: 2
Flags: MW
HStem: -10 65<180.5 199> 0 21G<353 433 353 353> 530 80<120 200 120 200 120 277 277 357> 670 180<207 207 207 221 141 271>
VStem: 44 80<163.5 190 190 460> 120 80<530 610> 277 80<530 610> 353 80<0 90 90 90>
LayerCount: 2
Fore
SplineSet
207 670 m 1xb9
 141 850 l 1
 221 850 l 1
 271 670 l 1
 207 670 l 1xb9
200 530 m 1xb6
 120 530 l 1
 120 610 l 1
 200 610 l 1
 200 530 l 1xb6
357 530 m 1
 277 530 l 1
 277 610 l 1
 357 610 l 1
 357 530 l 1
44 160 m 2xb9
 44 460 l 1
 124 460 l 1
 124 190 l 2
 124 137 124 94 144 72 c 0
 154 61 169 55 192 55 c 0xb9
 256 55 352 116 352 230 c 0
 352 307 352 383 352 460 c 1
 433 460 l 1
 433 0 l 1
 353 0 l 1x79
 353 90 l 1
 314 43 232 -10 166 -10 c 0
 49 -10 44 78 44 160 c 2xb9
EndSplineSet
EndChar

StartChar: uni01DD
Encoding: 500 477 347
Width: 471
GlyphClass: 2
Flags: MW
HStem: -10 80<196 260.5 196 303.5> 170 80<113 352 113 113> 390 80<208 272>
VStem: 352 85<170 170 250 250>
LayerCount: 2
Fore
SplineSet
352 170 m 1
 113 170 l 1
 126 102 161 70 231 70 c 0
 290 70 342 107 352 170 c 1
36 250 m 1
 352 250 l 1
 344 322 314 390 230 390 c 0
 186 390 139 372 116 346 c 1
 55 362 l 1
 72 404 130 470 231 470 c 0
 387 470 437 338 437 220 c 0
 437 112 376 -10 231 -10 c 0
 93 -10 36 112 36 250 c 1
EndSplineSet
EndChar

StartChar: uni01DE
Encoding: 501 478 348
Width: 650
GlyphClass: 2
Flags: MW
HStem: 0 21G<10 190 10 10 460 640 460 460> 115 180<280 370 280 425 225 370> 740 180<105 285 105 285 365 545 105 365> 790 70<285 365 285 365>
VStem: 105 180<740 790 860 920 740 920 740 920> 365 180<740 790 790 790 860 920 740 920>
LayerCount: 2
Fore
SplineSet
370 295 m 1xdc
 325 441 l 1
 280 295 l 1
 370 295 l 1xdc
460 0 m 1
 425 115 l 1
 225 115 l 1
 190 0 l 1
 10 0 l 1
 218 680 l 1
 430 680 l 1
 640 0 l 1
 460 0 l 1
285 860 m 1
 365 860 l 1xdc
 365 920 l 1
 545 920 l 1
 545 740 l 1
 365 740 l 1xec
 365 790 l 1
 285 790 l 1xdc
 285 740 l 1
 105 740 l 1
 105 920 l 1
 285 920 l 1xec
 285 860 l 1
EndSplineSet
EndChar

StartChar: uni01E0
Encoding: 503 480 350
Width: 560
GlyphClass: 2
Flags: MW
HStem: 0 21G<20 110 20 20 450 450 450 540> 282 90<190 350 210 350 210 370> 610 90<280 280> 680 20G<230 330 330 330> 770 80<240 320 240 320> 910 80<145 415 145 415>
VStem: 240 80<770 850 770 850>
LayerCount: 2
Fore
SplineSet
350 372 m 1
 280 610 l 1
 210 372 l 1
 350 372 l 1
190 282 m 1
 110 0 l 1
 20 0 l 1
 230 700 l 1
 330 700 l 1
 540 0 l 1
 450 0 l 1
 370 282 l 1
 190 282 l 1
415 990 m 1
 415 910 l 1
 145 910 l 1
 145 990 l 1
 415 990 l 1
320 850 m 1
 320 770 l 1
 240 770 l 1
 240 850 l 1
 320 850 l 1
EndSplineSet
EndChar

StartChar: Gcaron
Encoding: 505 486 352
Width: 647
GlyphClass: 2
Flags: MW
HStem: -10 80<257.5 367.5> 0 21G<498 587 498 498> 240 80<327 498 327 587> 630 80<258.5 381> 770 180<168 288 168 368>
VStem: 50 90<275 426 275 455> 498 89<0 85 85 85 184 240 240 240>
LayerCount: 2
Fore
SplineSet
288 770 m 1xbe
 168 950 l 1
 232 950 l 1
 328 823 l 1
 424 950 l 1
 488 950 l 1
 368 770 l 1
 288 770 l 1xbe
50 350 m 0
 50 560 146 710 328 710 c 0
 477 710 566 615 597 474 c 1
 508 474 l 1
 484 567 434 630 328 630 c 0
 189 630 140 502 140 350 c 0
 140 200 187 70 328 70 c 0xbe
 415 70 468 120 498 184 c 1
 498 240 l 1
 327 240 l 1
 327 320 l 1
 587 320 l 1
 587 0 l 1
 498 0 l 1x7e
 498 85 l 1
 456 24 401 -10 334 -10 c 0
 141 -10 50 138 50 350 c 0
EndSplineSet
EndChar

StartChar: gcaron
Encoding: 506 487 353
Width: 492
GlyphClass: 2
Flags: MW
HStem: -200 66<225 280 225 303> -1 66<193.5 256.5> 405 65<201 255 161 278.5> 520 160<101 281 101 201>
VStem: 35 80<194.5 283.5 194.5 292.5> 367 80<27 89 89 89 210 245 245 296 388 388>
LayerCount: 2
Fore
SplineSet
115 230 m 0
 115 159 141 65 246 65 c 0
 331 65 367 143 367 210 c 2
 367 245 l 2
 367 347 311 405 246 405 c 0
 156 405 115 337 115 230 c 0
35 230 m 0
 35 355 96 470 226 470 c 0
 284 470 344 439 367 388 c 1
 387 459 l 1
 447 459 l 1
 447 27 l 2
 447 -146 362 -200 244 -200 c 0
 114 -200 62 -106 52 -54 c 1
 135 -54 l 1
 153 -113 206 -134 244 -134 c 0
 316 -134 367 -91 367 27 c 2
 367 89 l 1
 339 33 286 -1 227 -1 c 0
 56 -1 35 144 35 230 c 0
281 520 m 1
 201 520 l 1
 101 680 l 1
 165 680 l 1
 241 595 l 1
 317 680 l 1
 381 680 l 1
 281 520 l 1
EndSplineSet
EndChar

StartChar: uni01E8
Encoding: 507 488 354
Width: 710
GlyphClass: 2
Flags: MW
HStem: 0 21G<50 230 50 50 480 480 480 700> 760 160<215 395 215 315>
VStem: 50 180<0 233 0 380 380 680>
LayerCount: 2
Fore
SplineSet
230 233 m 1
 230 0 l 1
 50 0 l 1
 50 680 l 1
 230 680 l 1
 230 380 l 1
 290 397 l 1
 460 680 l 1
 660 680 l 1
 460 350 l 1
 700 0 l 1
 480 0 l 1
 308 259 l 1
 230 233 l 1
395 760 m 1
 315 760 l 1
 215 920 l 1
 279 920 l 1
 355 835 l 1
 431 920 l 1
 495 920 l 1
 395 760 l 1
EndSplineSet
EndChar

StartChar: uni01E9
Encoding: 508 489 355
Width: 422
GlyphClass: 2
Flags: MW
HStem: 0 21G<45 125 45 45 302 302 302 402> 680 20G<45 125 125 125> 760 180<-75 45 -75 125>
VStem: 45 80<0 210 290 700 583.5 700>
LayerCount: 2
Fore
SplineSet
45 760 m 1
 -75 940 l 1
 -11 940 l 1
 85 813 l 1
 181 940 l 1
 245 940 l 1
 125 760 l 1
 45 760 l 1
125 0 m 1
 45 0 l 1
 45 233 45 467 45 700 c 1
 125 700 l 1
 125 290 l 1
 157 300 l 1
 282 460 l 1
 382 460 l 1
 229 266 l 1
 402 0 l 1
 302 0 l 1
 157 220 l 1
 125 210 l 1
 125 0 l 1
EndSplineSet
EndChar

StartChar: uni01EA
Encoding: 509 490 356
Width: 660
GlyphClass: 2
Flags: MW
HStem: -209 55<535 541> -10 80<257.5 402.5 257.5 427.5> 630 80<258.5 402.5>
VStem: 50 90<275 426 275 455> 441 61<-121.5 -97> 520 90<293 426.5>
LayerCount: 2
Fore
SplineSet
140 350 m 0
 140 200 187 70 328 70 c 0
 477 70 520 236 520 350 c 0
 520 503 477 630 328 630 c 0
 189 630 140 502 140 350 c 0
50 350 m 0
 50 560 146 710 328 710 c 0
 519 710 610 555 610 350 c 0
 610 141 521 -10 334 -10 c 0
 141 -10 50 138 50 350 c 0
441 -124 m 0
 441 -70 478 -25 512 0 c 1
 570 0 l 1
 529 -31 502 -69 502 -108 c 0
 502 -135 522 -154 548 -154 c 0
 562 -154 577 -149 588 -141 c 1
 610 -182 l 1
 597 -191 l 2
 578 -202 551 -209 531 -209 c 0
 481 -209 441 -180 441 -124 c 0
EndSplineSet
EndChar

StartChar: uni01EB
Encoding: 510 491 357
Width: 480
GlyphClass: 2
Flags: MW
HStem: -209 55<370 376> -10 10 -10 65<205 276 205 307> 405 65<204.5 275.5>
VStem: 35 80<169.5 293.5 169.5 299> 276 61<-121.5 -97> 365 80<167.5 293.5>
LayerCount: 2
Fore
SplineSet
115 230 m 0xbe
 115 109 170 55 240 55 c 0
 312 55 365 105 365 230 c 0
 365 357 311 405 240 405 c 0
 169 405 115 357 115 230 c 0xbe
35 230 m 0
 35 368 99 470 240 470 c 0
 380 470 445 370 445 230 c 0
 445 96 374 -10 240 -10 c 0
 88 -10 35 102 35 230 c 0
276 -124 m 0
 276 -70 313 -25 347 0 c 1
 405 0 l 1xde
 364 -31 337 -69 337 -108 c 0
 337 -135 357 -154 383 -154 c 0
 397 -154 412 -149 423 -141 c 1
 445 -182 l 1
 432 -191 l 2
 413 -202 386 -209 366 -209 c 0
 316 -209 276 -180 276 -124 c 0
EndSplineSet
EndChar

StartChar: uni01EC
Encoding: 511 492 358
Width: 660
GlyphClass: 2
Flags: MW
HStem: -209 55<535 541> -10 80<257.5 402.5 257.5 427.5> 630 80<258.5 402.5> 785 65<195 465 195 465>
VStem: 50 90<275 426 275 455> 441 61<-121.5 -97> 520 90<293 426.5>
LayerCount: 2
Fore
SplineSet
140 350 m 0
 140 200 187 70 328 70 c 0
 477 70 520 236 520 350 c 0
 520 503 477 630 328 630 c 0
 189 630 140 502 140 350 c 0
50 350 m 0
 50 560 146 710 328 710 c 0
 519 710 610 555 610 350 c 0
 610 141 521 -10 334 -10 c 0
 141 -10 50 138 50 350 c 0
465 850 m 1
 465 785 l 1
 195 785 l 1
 195 850 l 1
 465 850 l 1
441 -124 m 0
 441 -70 478 -25 512 0 c 1
 570 0 l 1
 529 -31 502 -69 502 -108 c 0
 502 -135 522 -154 548 -154 c 0
 562 -154 577 -149 588 -141 c 1
 610 -182 l 1
 597 -191 l 2
 578 -202 551 -209 531 -209 c 0
 481 -209 441 -180 441 -124 c 0
EndSplineSet
EndChar

StartChar: uni01ED
Encoding: 512 493 359
Width: 480
GlyphClass: 2
Flags: MW
HStem: -209 55<370 376> -10 10 -10 65<205 276 205 307> 405 65<204.5 275.5> 545 65<105 375 105 375>
VStem: 35 80<169.5 293.5 169.5 299> 276 61<-121.5 -97> 365 80<167.5 293.5>
LayerCount: 2
Fore
SplineSet
115 230 m 0xbf
 115 109 170 55 240 55 c 0
 312 55 365 105 365 230 c 0
 365 357 311 405 240 405 c 0
 169 405 115 357 115 230 c 0xbf
35 230 m 0
 35 368 99 470 240 470 c 0
 380 470 445 370 445 230 c 0
 445 96 374 -10 240 -10 c 0
 88 -10 35 102 35 230 c 0
375 610 m 1
 375 545 l 1
 105 545 l 1
 105 610 l 1
 375 610 l 1
276 -124 m 0
 276 -70 313 -25 347 0 c 1
 405 0 l 1xdf
 364 -31 337 -69 337 -108 c 0
 337 -135 357 -154 383 -154 c 0
 397 -154 412 -149 423 -141 c 1
 445 -182 l 1
 432 -191 l 2
 413 -202 386 -209 366 -209 c 0
 316 -209 276 -180 276 -124 c 0
EndSplineSet
EndChar

StartChar: uni01F0
Encoding: 513 496 360
Width: 220
GlyphClass: 2
Flags: MW
HStem: -200 80<18.5 42.5 18.5 60.5> 520 160<-30 150 -30 70>
VStem: 70 80<-55 -31 -31 460>
LayerCount: 2
Fore
SplineSet
-103 -90 m 1
 -24 -90 l 1
 -8 -114 7 -120 30 -120 c 0
 55 -120 70 -103 70 -55 c 2
 70 460 l 1
 150 460 l 1
 150 -31 l 2
 150 -139 93 -200 28 -200 c 0
 -36 -200 -87 -149 -103 -90 c 1
150 520 m 1
 70 520 l 1
 -30 680 l 1
 34 680 l 1
 110 595 l 1
 186 680 l 1
 250 680 l 1
 150 520 l 1
EndSplineSet
EndChar

StartChar: uni01F2
Encoding: 515 498 362
Width: 1090
GlyphClass: 2
Flags: MW
HStem: 0 65<680 680 790 1050> 0 160<230 308 230 308> 395 65<680 950 680 1050 680 1050> 520 160<230 230 230 308>
VStem: 50 180<160 520 160 680 160 680> 430 180<286.5 411.5>
LayerCount: 2
Fore
SplineSet
230 520 m 1x7c
 230 160 l 1
 308 160 l 2
 375 160 430 233 430 340 c 0
 430 483 377 520 308 520 c 2
 230 520 l 1x7c
50 680 m 1
 308 680 l 2
 498 680 610 564 610 340 c 0
 610 113 499 0 308 0 c 2
 50 0 l 1
 50 680 l 1
1050 65 m 1xbc
 1050 0 l 1
 680 0 l 1
 680 65 l 1
 950 395 l 1
 680 395 l 1
 680 460 l 1
 1050 460 l 1
 1050 395 l 1
 790 65 l 1
 1050 65 l 1xbc
EndSplineSet
EndChar

StartChar: uni01F3
Encoding: 516 499 363
Width: 941
GlyphClass: 2
Flags: MW
HStem: -10 65<200.5 254> 0 65<531 531 641 901> 395 65<531 801 531 901 531 901> 405 66<195.5 256 159 287.5> 680 20G<366 446 446 446>
VStem: 36 79<178 275 176.5 288> 366 80<72 72 381 700 0 700>
LayerCount: 2
Fore
SplineSet
115 230 m 0x9e
 115 123 156 55 245 55 c 0
 324 55 365 123 365 230 c 0
 365 321 330 405 245 405 c 0
 146 405 115 320 115 230 c 0x9e
36 231 m 0
 36 345 92 471 226 471 c 0
 286 471 338 437 366 381 c 1
 366 700 l 1
 446 700 l 1
 446 0 l 1
 386 0 l 1x5e
 366 72 l 1
 343 21 283 -10 225 -10 c 0
 92 -10 36 125 36 231 c 0
901 65 m 1
 901 0 l 1
 531 0 l 1
 531 65 l 1
 801 395 l 1
 531 395 l 1
 531 460 l 1
 901 460 l 1
 901 395 l 1x6e
 641 65 l 1
 901 65 l 1
EndSplineSet
EndChar

StartChar: uni01F4
Encoding: 517 500 364
Width: 647
GlyphClass: 2
Flags: MW
HStem: -10 21G<348 366.5> 0 21G<457 607 457 457> 0 150<348 607 348 457> 230 120<347 457 347 607> 750 160<346 360 296 426>
VStem: 457 150<0 23 23 23 212 230 230 230>
LayerCount: 2
Fore
SplineSet
457 212 m 1x34
 457 230 l 1
 347 230 l 1
 347 350 l 1
 607 350 l 1
 607 0 l 1
 457 0 l 1x5c
 457 23 l 1
 432 4 385 -10 348 -10 c 1x94
 348 150 l 1
 397 150 437 172 457 212 c 1x34
426 910 m 1
 360 750 l 1
 296 750 l 1
 346 910 l 1
 426 910 l 1
EndSplineSet
EndChar

StartChar: uni01F5
Encoding: 518 501 365
Width: 492
GlyphClass: 2
Flags: MW
HStem: -200 66<225 280 225 303> -1 66<193.5 256.5> 405 65<201 255 161 278.5> 520 160<259 273 209 339>
VStem: 35 80<194.5 283.5 194.5 292.5> 367 80<27 89 89 89 210 245 245 296 388 388>
LayerCount: 2
Fore
SplineSet
115 230 m 0
 115 159 141 65 246 65 c 0
 331 65 367 143 367 210 c 2
 367 245 l 2
 367 347 311 405 246 405 c 0
 156 405 115 337 115 230 c 0
35 230 m 0
 35 355 96 470 226 470 c 0
 284 470 344 439 367 388 c 1
 387 459 l 1
 447 459 l 1
 447 27 l 2
 447 -146 362 -200 244 -200 c 0
 114 -200 62 -106 52 -54 c 1
 135 -54 l 1
 153 -113 206 -134 244 -134 c 0
 316 -134 367 -91 367 27 c 2
 367 89 l 1
 339 33 286 -1 227 -1 c 0
 56 -1 35 144 35 230 c 0
339 680 m 1
 273 520 l 1
 209 520 l 1
 259 680 l 1
 339 680 l 1
EndSplineSet
EndChar

StartChar: Aringacute
Encoding: 521 506 368
Width: 650
GlyphClass: 2
Flags: MW
HStem: 0 21G<10 190 10 10 460 640 460 460> 115 180<280 370 280 425 225 370> 710 210<374 416 236 502>
VStem: 10 630<0 0>
LayerCount: 2
Fore
SplineSet
370 295 m 1
 325 441 l 1
 280 295 l 1
 370 295 l 1
460 0 m 1
 425 115 l 1
 225 115 l 1
 190 0 l 1
 10 0 l 1
 218 680 l 1
 430 680 l 1
 640 0 l 1
 460 0 l 1
502 920 m 1
 416 710 l 1
 236 710 l 1
 268 806 l 1
 255 820 247 838 247 859 c 0
 247 902 282 937 325 937 c 0
 343 937 360 931 374 920 c 1
 502 920 l 1
EndSplineSet
EndChar

StartChar: uni0200
Encoding: 523 512 370
Width: 560
GlyphClass: 2
Flags: MW
HStem: 0 21G<19 109 19 19 449 449 449 539> 282 90<189 349 209 349 209 369> 610 90<279 279> 680 20G<229 329 329 329> 770 180<200 204 234 264 200 200 295 295 295 314 124 359>
VStem: 19 520<0 0>
LayerCount: 2
Fore
SplineSet
349 372 m 1
 279 610 l 1
 209 372 l 1
 349 372 l 1
189 282 m 1
 109 0 l 1
 19 0 l 1
 229 700 l 1
 329 700 l 1
 539 0 l 1
 449 0 l 1
 369 282 l 1
 189 282 l 1
264 770 m 1
 200 770 l 1
 124 950 l 1
 204 950 l 1
 264 770 l 1
359 770 m 1
 295 770 l 1
 234 950 l 1
 314 950 l 1
 359 770 l 1
EndSplineSet
EndChar

StartChar: uni0202
Encoding: 525 514 372
Width: 570
GlyphClass: 2
Flags: MW
HStem: 0 21G<-30 150 -30 -30 420 600 420 420> 115 180<240 330 240 385 185 330> 800 60<262.5 297.5>
VStem: 125 80<720 750 720 770> 355 80<720 750>
LayerCount: 2
Fore
SplineSet
330 295 m 1
 285 441 l 1
 240 295 l 1
 330 295 l 1
420 0 m 1
 385 115 l 1
 185 115 l 1
 150 0 l 1
 -30 0 l 1
 178 680 l 1
 390 680 l 1
 600 0 l 1
 420 0 l 1
205 720 m 1
 125 720 l 1
 125 820 200 860 280 860 c 0
 360 860 435 820 435 720 c 1
 355 720 l 1
 355 780 315 800 280 800 c 0
 245 800 205 780 205 720 c 1
EndSplineSet
EndChar

StartChar: uni0204
Encoding: 527 516 374
Width: 510
GlyphClass: 2
Flags: MW
HStem: 0 150<230 460 230 460> 270 150<230 420 230 420> 530 150<230 460 230 230> 730 180<214 218 248 278 214 214 309 309 309 328 138 373>
VStem: 50 180<150 270 150 420 420 530>
LayerCount: 2
Fore
SplineSet
420 270 m 1
 230 270 l 1
 230 150 l 1
 460 150 l 1
 460 0 l 1
 50 0 l 1
 50 680 l 1
 460 680 l 1
 460 530 l 1
 230 530 l 1
 230 420 l 1
 420 420 l 1
 420 270 l 1
278 730 m 1
 214 730 l 1
 138 910 l 1
 218 910 l 1
 278 730 l 1
373 730 m 1
 309 730 l 1
 248 910 l 1
 328 910 l 1
 373 730 l 1
EndSplineSet
EndChar

StartChar: uni0205
Encoding: 528 517 375
Width: 471
GlyphClass: 2
Flags: MW
HStem: -10 80<198 262 198 290> 210 80<118 357 118 434 118 357> 390 80<209.5 274> 530 180<161 165 195 225 161 161 256 256 256 275 85 320>
VStem: 33 85<210 210 210 290 210 294>
LayerCount: 2
Fore
SplineSet
118 290 m 1
 357 290 l 1
 344 358 309 390 239 390 c 0
 180 390 128 353 118 290 c 1
33 240 m 0
 33 348 94 470 239 470 c 0
 378 470 434 350 434 210 c 1
 118 210 l 1
 125 141 156 70 240 70 c 0
 284 70 331 88 354 114 c 1
 415 98 l 1
 399 58 341 -10 239 -10 c 0
 83 -10 33 122 33 240 c 0
225 530 m 1
 161 530 l 1
 85 710 l 1
 165 710 l 1
 225 530 l 1
320 530 m 1
 256 530 l 1
 195 710 l 1
 275 710 l 1
 320 530 l 1
EndSplineSet
EndChar

StartChar: uni0207
Encoding: 530 519 377
Width: 518
GlyphClass: 2
Flags: MW
HStem: -10 68<219 294 219 334> 210 68<139 379 139 468 134 379> 402 68<203 315> 600 60<242.5 277.5>
VStem: 50 84<180 210 175 300> 105 80<520 550 520 570> 335 80<520 550> 379 89<210 278>
LayerCount: 2
Fore
SplineSet
139 278 m 1xf9
 379 278 l 1
 379 278 371 402 259 402 c 0
 147 402 139 278 139 278 c 1xf9
50 240 m 0
 50 360 119 470 259 470 c 0
 399 470 468 360 468 240 c 2
 468 210 l 1
 134 210 l 1
 134 140 179 58 259 58 c 0
 329 58 365 98 375 142 c 1
 458 142 l 1
 443 73 409 -10 259 -10 c 0
 109 -10 50 120 50 240 c 0
185 520 m 1xf6
 105 520 l 1
 105 620 180 660 260 660 c 0
 340 660 415 620 415 520 c 1
 335 520 l 1
 335 580 295 600 260 600 c 0
 225 600 185 580 185 520 c 1xf6
EndSplineSet
EndChar

StartChar: uni0208
Encoding: 531 520 378
Width: 280
GlyphClass: 2
Flags: MW
HStem: 0 21G<50 230 50 50> 730 180<99 99 99 103 133 163 194 194 194 213 23 258>
VStem: 50 180<0 680>
LayerCount: 2
Fore
SplineSet
230 0 m 1
 50 0 l 1
 50 680 l 1
 230 680 l 1
 230 0 l 1
194 730 m 1
 133 910 l 1
 213 910 l 1
 258 730 l 1
 194 730 l 1
99 730 m 1
 23 910 l 1
 103 910 l 1
 163 730 l 1
 99 730 l 1
EndSplineSet
EndChar

StartChar: uni0209
Encoding: 532 521 379
Width: 280
GlyphClass: 2
Flags: MW
HStem: 0 21G<99 179 99 99> 530 180<60 60 60 64 94 124 155 155 155 174 -16 219>
VStem: 99 80<0 460>
LayerCount: 2
Fore
SplineSet
155 530 m 1
 94 710 l 1
 174 710 l 1
 219 530 l 1
 155 530 l 1
60 530 m 1
 -16 710 l 1
 64 710 l 1
 124 530 l 1
 60 530 l 1
179 0 m 1
 99 0 l 1
 99 460 l 1
 179 460 l 1
 179 0 l 1
EndSplineSet
EndChar

StartChar: uni020A
Encoding: 533 522 380
Width: 280
GlyphClass: 2
Flags: MW
HStem: 0 21G<50 230 50 50> 820 60<122.5 157.5>
VStem: -15 80<740 770 740 790> 50 180<0 680> 215 80<740 770>
LayerCount: 2
Fore
SplineSet
230 0 m 1xd0
 50 0 l 1
 50 680 l 1
 230 680 l 1
 230 0 l 1xd0
65 740 m 1xe8
 -15 740 l 1
 -15 840 60 880 140 880 c 0
 220 880 295 840 295 740 c 1
 215 740 l 1
 215 800 175 820 140 820 c 0
 105 820 65 800 65 740 c 1xe8
EndSplineSet
EndChar

StartChar: uni020B
Encoding: 534 523 381
Width: 280
GlyphClass: 2
Flags: MW
HStem: -1 21G<100 180 100 100> 605 64<123.5 164>
VStem: -15 75<530 558.5 530 573.5> 100 80<-1 459> 220 75<529 555.5>
CounterMasks: 1 38
LayerCount: 2
Fore
SplineSet
-15 529 m 1
 -15 618 54 669 140 669 c 0
 229 669 295 621 295 529 c 1
 220 529 l 1
 220 582 188 605 140 605 c 0
 107 605 60 587 60 530 c 1
 35 530 10 529 -15 529 c 1
180 -1 m 1
 100 -1 l 1
 100 459 l 1
 180 459 l 1
 180 -1 l 1
EndSplineSet
EndChar

StartChar: uni020C
Encoding: 535 524 382
Width: 696
GlyphClass: 2
Flags: MW
HStem: -10 160<306 390 306 450.5> 530 160<306 390> 730 180<307 311 341 371 307 307 402 402 402 421 231 466>
VStem: 30 180<282.5 397.5 282.5 453> 486 180<282.5 397.5>
LayerCount: 2
Fore
SplineSet
348 530 m 0
 264 530 210 455 210 340 c 0
 210 225 264 150 348 150 c 0
 432 150 486 225 486 340 c 0
 486 455 432 530 348 530 c 0
348 -10 m 0
 143 -10 30 114 30 340 c 0
 30 566 143 690 348 690 c 0
 553 690 666 566 666 340 c 0
 666 114 553 -10 348 -10 c 0
371 730 m 1
 307 730 l 1
 231 910 l 1
 311 910 l 1
 371 730 l 1
466 730 m 1
 402 730 l 1
 341 910 l 1
 421 910 l 1
 466 730 l 1
EndSplineSet
EndChar

StartChar: uni020D
Encoding: 536 525 383
Width: 480
GlyphClass: 2
Flags: MW
HStem: -10 65<204 275.5 204 306> 405 65<203.5 274.5> 530 180<160 160 160 164 194 224 255 255 255 274 84 319>
VStem: 34 80<169.5 293.5 169.5 299> 364 80<167.5 293.5>
LayerCount: 2
Fore
SplineSet
255 530 m 1
 194 710 l 1
 274 710 l 1
 319 530 l 1
 255 530 l 1
160 530 m 1
 84 710 l 1
 164 710 l 1
 224 530 l 1
 160 530 l 1
34 230 m 0
 34 368 98 470 239 470 c 0
 379 470 444 370 444 230 c 0
 444 96 373 -10 239 -10 c 0
 87 -10 34 102 34 230 c 0
114 230 m 0
 114 109 169 55 239 55 c 0
 312 55 364 105 364 230 c 0
 364 357 310 405 239 405 c 0
 168 405 114 357 114 230 c 0
EndSplineSet
EndChar

StartChar: uni020E
Encoding: 537 526 384
Width: 696
GlyphClass: 2
Flags: MW
HStem: -10 160<306 390 306 450.5> 530 160<306 390> 820 60<332.5 367.5>
VStem: 30 180<282.5 397.5 282.5 453> 195 80<740 770 740 790> 425 80<740 770> 486 180<282.5 397.5>
LayerCount: 2
Fore
SplineSet
348 530 m 0xf2
 264 530 210 455 210 340 c 0
 210 225 264 150 348 150 c 0
 432 150 486 225 486 340 c 0
 486 455 432 530 348 530 c 0xf2
348 -10 m 0
 143 -10 30 114 30 340 c 0
 30 566 143 690 348 690 c 0
 553 690 666 566 666 340 c 0
 666 114 553 -10 348 -10 c 0
275 740 m 1xec
 195 740 l 1
 195 840 270 880 350 880 c 0
 430 880 505 840 505 740 c 1
 425 740 l 1
 425 800 385 820 350 820 c 0
 315 820 275 800 275 740 c 1xec
EndSplineSet
EndChar

StartChar: uni0210
Encoding: 539 528 386
Width: 580
GlyphClass: 2
Flags: MW
HStem: 0 21G<50 140 50 50 420 420 420 530> 300 79 620 80<140 285 285 287 140 140> 770 180<88 92 122 152 88 88 183 183 183 202 12 247>
VStem: 50 90<0 300 380 620> 440 90<463 538.5>
LayerCount: 2
Fore
SplineSet
287 620 m 2
 140 620 l 1
 140 380 l 1
 285 380 l 2
 375 380 440 417 440 507 c 0
 440 570 364 620 287 620 c 2
140 300 m 1
 140 0 l 1
 50 0 l 1
 50 700 l 1
 285 700 l 2
 425 700 530 657 530 507 c 0
 530 419 465 318 322 303 c 1
 530 0 l 1
 420 0 l 1
 221 301 l 1
 140 300 l 1
152 770 m 1
 88 770 l 1
 12 950 l 1
 92 950 l 1
 152 770 l 1
247 770 m 1
 183 770 l 1
 122 950 l 1
 202 950 l 1
 247 770 l 1
EndSplineSet
EndChar

StartChar: uni0211
Encoding: 540 529 387
Width: 370
GlyphClass: 2
Flags: MW
HStem: 0 21G<44 124 44 44> 390 80<241 262.5> 530 180<110 110 110 114 144 174 205 205 205 224 34 269>
VStem: 44 80<0 233 370 460>
LayerCount: 2
Fore
SplineSet
205 530 m 1
 144 710 l 1
 224 710 l 1
 269 530 l 1
 205 530 l 1
110 530 m 1
 34 710 l 1
 114 710 l 1
 174 530 l 1
 110 530 l 1
124 0 m 1
 44 0 l 1
 44 460 l 1
 124 460 l 1
 124 370 l 1
 147 421 211 470 271 470 c 0
 294 470 316 466 334 460 c 1
 334 359 l 1
 311 379 280 390 245 390 c 0
 189 390 139 331 124 233 c 1
 124 0 l 1
EndSplineSet
EndChar

StartChar: uni0213
Encoding: 542 531 389
Width: 370
GlyphClass: 2
Flags: MW
HStem: -1 21G<45 125 45 45> 389 80<242 262> 605 64<173 211.5>
VStem: 35 75<530 559 530 573.5> 45 80<-1 232 369 459> 270 75<529 557.5>
LayerCount: 2
Fore
SplineSet
35 529 m 1xf0
 35 618 104 669 190 669 c 0
 279 669 345 621 345 529 c 1
 270 529 l 1
 270 586 233 605 190 605 c 0
 156 605 110 588 110 530 c 1
 102 530 93 530 85 530 c 0xec
 68 530 52 529 35 529 c 1xf0
125 -1 m 1xec
 45 -1 l 1
 45 459 l 1
 125 459 l 1
 125 369 l 1
 148 420 212 469 272 469 c 0
 295 469 317 465 335 459 c 1
 335 358 l 1
 312 378 278 389 246 389 c 0
 172 389 134 292 125 232 c 1
 125 -1 l 1xec
EndSplineSet
EndChar

StartChar: uni0214
Encoding: 543 532 390
Width: 640
GlyphClass: 2
Flags: MW
HStem: -10 170<285 355 285 405> 730 180<279 279 279 283 313 343 374 374 374 393 203 438>
VStem: 50 180<270 310 310 680> 410 180<310 680>
LayerCount: 2
Fore
SplineSet
50 270 m 2
 50 680 l 1
 230 680 l 1
 230 310 l 2
 230 211 250 160 320 160 c 0
 390 160 410 211 410 310 c 2
 410 680 l 1
 590 680 l 1
 590 270 l 2
 590 86 490 -10 320 -10 c 0
 150 -10 50 86 50 270 c 2
374 730 m 1
 313 910 l 1
 393 910 l 1
 438 730 l 1
 374 730 l 1
279 730 m 1
 203 910 l 1
 283 910 l 1
 343 730 l 1
 279 730 l 1
EndSplineSet
EndChar

StartChar: uni0215
Encoding: 544 533 391
Width: 478
GlyphClass: 2
Flags: MW
HStem: -10 65<158 199> 0 21G<353 433 353 353> 530 180<159 159 159 163 193 223 254 254 254 273 83 318>
VStem: 44 80<160 190 190 460> 353 80<0 90 90 90>
LayerCount: 2
Fore
SplineSet
254 530 m 1xb8
 193 710 l 1
 273 710 l 1
 318 530 l 1
 254 530 l 1xb8
159 530 m 1
 83 710 l 1
 163 710 l 1
 223 530 l 1
 159 530 l 1
44 160 m 2
 44 460 l 1
 124 460 l 1
 124 190 l 2
 124 107 124 55 192 55 c 0xb8
 255 55 352 115 352 230 c 2
 352 460 l 1
 433 460 l 1
 433 0 l 1
 353 0 l 1x78
 353 90 l 1
 314 43 232 -10 166 -10 c 0
 49 -10 44 78 44 160 c 2
EndSplineSet
EndChar

StartChar: uni0216
Encoding: 545 534 392
Width: 560
GlyphClass: 2
Flags: MW
HStem: -10 170<245 315 245 365> 800 60<257.5 292.5>
VStem: 10 180<270 310 310 680> 120 80<720 750 720 770> 370 180<310 680>
LayerCount: 2
Fore
SplineSet
200 720 m 1xd8
 120 720 l 1
 120 820 195 860 275 860 c 0
 355 860 430 820 430 720 c 1
 350 720 l 1
 350 780 310 800 275 800 c 0
 240 800 200 780 200 720 c 1xd8
10 270 m 2xe8
 10 680 l 1
 190 680 l 1
 190 310 l 2
 190 211 210 160 280 160 c 0
 350 160 370 211 370 310 c 2
 370 680 l 1
 550 680 l 1
 550 270 l 2
 550 86 450 -10 280 -10 c 0
 110 -10 10 86 10 270 c 2xe8
EndSplineSet
EndChar

StartChar: uni0217
Encoding: 546 535 393
Width: 478
GlyphClass: 2
Flags: MW
HStem: -10 65<178 237.5> 0 21G<374 433 374 374> 600 60<221.5 256.5>
VStem: 45 80<165 460> 84 80<520 550 520 570> 314 80<520 550> 354 79<154 460 0 460>
LayerCount: 2
Fore
SplineSet
354 154 m 1xb2
 354 460 l 1
 433 460 l 1
 433 0 l 1
 374 0 l 1x6a
 357 83 l 1
 323 36 275 -10 200 -10 c 0
 51 -10 45 98 45 165 c 2
 45 460 l 1
 125 460 l 1
 125 165 l 2
 125 121 134 55 222 55 c 0
 266 55 330 90 354 154 c 1xb2
164 520 m 1
 84 520 l 1
 84 620 159 660 239 660 c 0
 319 660 394 620 394 520 c 1
 314 520 l 1xac
 314 580 274 600 239 600 c 0
 204 600 164 580 164 520 c 1
EndSplineSet
EndChar

StartChar: uni0218
Encoding: 547 536 394
Width: 582
GlyphClass: 2
Flags: MW
HStem: -151 80<264 344 264 286 264 344> -10 160<267.5 316 267.5 371.5> -10 233<210 221 31 371.5> 481 209<360 371 219.5 550 360 360> 530 160<272 316>
VStem: 49 190<486 507.5 486 552> 264 80<-151 -71 -151 -71> 362 190<182 208>
LayerCount: 2
Fore
SplineSet
264 -151 m 1xd2
 264 -71 l 1
 344 -71 l 1
 344 -151 l 1
 298 -281 l 1
 264 -281 l 1
 286 -151 l 1
 264 -151 l 1xd2
31 223 m 1xb2
 221 223 l 1
 221 183 244 150 291 150 c 0
 341 150 362 170 362 194 c 0
 362 222 348 243 326 255 c 2
 139 358 l 2
 85 388 49 430 49 492 c 0
 49 612 140 690 299 690 c 0
 443 690 550 590 550 481 c 1
 360 481 l 1xd7
 360 506 342 530 290 530 c 0
 254 530 239 522 239 493 c 0
 239 479 246 470 274 455 c 2
 449 360 l 2
 516 324 552 274 552 191 c 0
 552 69 459 -10 284 -10 c 0xcf
 136 -10 31 91 31 223 c 1xb2
EndSplineSet
EndChar

StartChar: uni0219
Encoding: 548 537 395
Width: 452
GlyphClass: 2
Flags: MW
HStem: -140 80<190 270 190 212 190 270> -10 65<214.5 249 214.5 275.5> 405 65<192.5 240>
VStem: 35 79<99 136 99 136> 55 80<301.5 362.5 301.5 373.5> 190 80<-140 -60 -140 -60> 335 82<98.5 183>
LayerCount: 2
Fore
SplineSet
190 -140 m 1xee
 190 -60 l 1
 270 -60 l 1
 270 -140 l 1
 224 -270 l 1
 190 -270 l 1
 212 -140 l 1
 190 -140 l 1xee
35 136 m 1xf6
 114 136 l 1xf6
 114 62 192 55 237 55 c 0
 261 55 335 67 335 130 c 0
 335 236 55 185 55 340 c 0
 55 407 105 470 215 470 c 0
 307 470 397 414 397 336 c 1
 316 336 l 1
 304 378 265 405 215 405 c 0
 170 405 135 385 135 340 c 0xee
 135 263 417 288 417 130 c 0
 417 10 314 -10 237 -10 c 0
 133 -10 35 52 35 136 c 1xf6
EndSplineSet
EndChar

